<svg width="24" height="25" viewBox="0 0 24 25" fill="none" xmlns="http://www.w3.org/2000/svg">
<path d="M15.7053 16.662L15.9317 17.1078L15.7053 16.662ZM19.2949 16.6621L19.5215 16.2163L19.2949 16.6621ZM19.9171 18.3387L19.4427 18.1806L19.9171 18.3387ZM15.0829 18.3387L15.5572 18.1806L15.0829 18.3387ZM17.5 20.5L17.2571 20.9371C17.4082 21.021 17.5918 21.021 17.7428 20.9371L17.5 20.5ZM17.5 17.4197L17.0372 17.609C17.114 17.7969 17.2968 17.9196 17.4998 17.9197C17.7028 17.9198 17.8857 17.7971 17.9627 17.6092L17.5 17.4197ZM13 21C13.2761 21 13.5 20.7761 13.5 20.5C13.5 20.2239 13.2761 20 13 20V21ZM5.77772 19.8259L6.0555 19.4101H6.0555L5.77772 19.8259ZM4.67412 18.7223L5.08986 18.4445H5.08986L4.67412 18.7223ZM18.2223 7.17412L17.9445 7.58986V7.58986L18.2223 7.17412ZM19.3259 8.27772L18.9101 8.5555V8.5555L19.3259 8.27772ZM5.77772 7.17412L5.49993 6.75839L5.77772 7.17412ZM4.67412 8.27772L5.08986 8.5555L4.67412 8.27772ZM19.5 14C19.5 14.2761 19.7239 14.5 20 14.5C20.2761 14.5 20.5 14.2761 20.5 14H19.5ZM12.2121 5.10113L12.102 5.58887V5.58887L12.2121 5.10113ZM13.8849 5.47863L13.9949 4.9909L13.9949 4.9909L13.8849 5.47863ZM18.1221 7.01327L17.7623 7.36039V7.36039L18.1221 7.01327ZM7.7134 4.66437L7.88603 5.13362L7.7134 4.66437ZM6.57638 5.35473L6.23901 4.9857V4.98571L6.57638 5.35473ZM5.07745 7.14645C4.99861 7.4111 5.14924 7.68955 5.41389 7.76839C5.67854 7.84723 5.95699 7.6966 6.03583 7.43196L5.07745 7.14645ZM17.9798 7.58999C18.1672 7.79279 18.4836 7.80524 18.6863 7.61781C18.8891 7.43039 18.9016 7.11405 18.7142 6.91126L17.9798 7.58999ZM4 12V11.5C3.72386 11.5 3.5 11.7239 3.5 12H4ZM4 15H3.5C3.5 15.2761 3.72386 15.5 4 15.5V15ZM19.0684 17.1078C19.4251 17.2891 19.6002 17.7077 19.4427 18.1806L20.3914 18.4967C20.6814 17.6263 20.3842 16.6548 19.5215 16.2163L19.0684 17.1078ZM15.5572 18.1806C15.3997 17.7079 15.5751 17.2889 15.9317 17.1078L15.4788 16.2162C14.6163 16.6544 14.3185 17.6262 14.6085 18.4967L15.5572 18.1806ZM19.4427 18.1806C19.3944 18.3256 19.2631 18.5214 19.0394 18.7519C18.8233 18.9746 18.5552 19.1952 18.2863 19.3936C18.0189 19.5907 17.76 19.7591 17.5673 19.8785C17.4713 19.9379 17.3924 19.9848 17.3382 20.0164C17.3111 20.0322 17.2901 20.0442 17.2763 20.0521C17.2694 20.056 17.2643 20.0589 17.261 20.0607C17.2594 20.0617 17.2583 20.0623 17.2576 20.0627C17.2573 20.0628 17.2571 20.063 17.257 20.063C17.257 20.063 17.257 20.063 17.257 20.063C17.257 20.063 17.257 20.063 17.257 20.063C17.2571 20.063 17.2571 20.0629 17.5 20.5C17.7428 20.9371 17.7429 20.937 17.743 20.937C17.743 20.937 17.7431 20.9369 17.7432 20.9369C17.7433 20.9368 17.7435 20.9367 17.7437 20.9366C17.7441 20.9363 17.7447 20.936 17.7453 20.9356C17.7467 20.9349 17.7486 20.9339 17.7509 20.9325C17.7556 20.9299 17.7622 20.9262 17.7706 20.9214C17.7874 20.9118 17.8116 20.898 17.842 20.8802C17.903 20.8447 17.9894 20.7933 18.0939 20.7286C18.3021 20.5996 18.5847 20.416 18.8798 20.1984C19.1733 19.9819 19.4886 19.7249 19.7571 19.4483C20.0179 19.1794 20.2724 18.8539 20.3914 18.4967L19.4427 18.1806ZM17.5 20.5C17.7428 20.0629 17.7429 20.063 17.7429 20.063C17.7429 20.063 17.743 20.063 17.743 20.063C17.743 20.063 17.743 20.063 17.7429 20.063C17.7429 20.063 17.7427 20.0628 17.7423 20.0627C17.7417 20.0623 17.7405 20.0617 17.7389 20.0607C17.7357 20.0589 17.7306 20.056 17.7237 20.0521C17.7098 20.0443 17.6889 20.0323 17.6618 20.0164C17.6075 19.9848 17.5287 19.9379 17.4326 19.8785C17.24 19.7591 16.9811 19.5907 16.7137 19.3936C16.4447 19.1952 16.1767 18.9746 15.9606 18.7519C15.7369 18.5214 15.6055 18.3256 15.5572 18.1806L14.6085 18.4967C14.7275 18.8539 14.982 19.1794 15.2429 19.4483C15.5113 19.7249 15.8267 19.9819 16.1202 20.1984C16.4152 20.416 16.6978 20.5996 16.9061 20.7286C17.0105 20.7933 17.097 20.8447 17.1579 20.8802C17.1884 20.898 17.2125 20.9118 17.2294 20.9214C17.2378 20.9262 17.2444 20.9299 17.2491 20.9325C17.2514 20.9339 17.2532 20.9349 17.2546 20.9356C17.2553 20.936 17.2558 20.9363 17.2562 20.9366C17.2565 20.9367 17.2566 20.9368 17.2568 20.9369C17.2569 20.9369 17.2569 20.937 17.257 20.937C17.2571 20.937 17.2571 20.9371 17.5 20.5ZM15.9317 17.1078C16.1541 16.9948 16.3089 16.9893 16.4134 17.0086C16.5244 17.0291 16.6288 17.0874 16.7278 17.1771C16.8279 17.2678 16.9078 17.378 16.9642 17.4716C16.9916 17.5171 17.0116 17.5555 17.024 17.5809C17.0302 17.5936 17.0344 17.6028 17.0366 17.6078C17.0377 17.6102 17.0383 17.6117 17.0384 17.6119C17.0384 17.612 17.0384 17.6118 17.0382 17.6114C17.0381 17.6111 17.0379 17.6108 17.0378 17.6104C17.0377 17.6102 17.0376 17.61 17.0375 17.6098C17.0375 17.6096 17.0374 17.6094 17.0374 17.6094C17.0373 17.6092 17.0372 17.609 17.5 17.4197C17.9628 17.2304 17.9627 17.2302 17.9626 17.23C17.9625 17.2299 17.9625 17.2297 17.9624 17.2295C17.9623 17.2292 17.9621 17.2288 17.962 17.2285C17.9617 17.2278 17.9613 17.2269 17.9609 17.226C17.9602 17.2242 17.9593 17.2221 17.9582 17.2196C17.9561 17.2147 17.9534 17.2084 17.9501 17.2009C17.9434 17.1859 17.9343 17.1661 17.9226 17.1421C17.8993 17.0944 17.8655 17.0297 17.8207 16.9554C17.7326 16.8093 17.5944 16.613 17.3995 16.4363C17.2034 16.2585 16.936 16.0883 16.5952 16.0253C16.248 15.9611 15.8711 16.0169 15.4788 16.2162L15.9317 17.1078ZM17.5 17.4197C17.9627 17.6092 17.9626 17.6094 17.9625 17.6096C17.9625 17.6097 17.9624 17.6099 17.9623 17.61C17.9622 17.6102 17.9621 17.6105 17.9621 17.6107C17.9619 17.6111 17.9618 17.6114 17.9617 17.6116C17.9615 17.6121 17.9614 17.6123 17.9614 17.6121C17.9616 17.6119 17.9622 17.6105 17.9633 17.608C17.9655 17.603 17.9697 17.5938 17.9759 17.5811C17.9883 17.5557 18.0083 17.5173 18.0358 17.4718C18.0922 17.3782 18.1723 17.2679 18.2724 17.1772C18.3715 17.0874 18.476 17.0291 18.587 17.0086C18.6915 16.9893 18.8462 16.9949 19.0684 17.1078L19.5215 16.2163C19.1293 16.017 18.7525 15.9611 18.4052 16.0253C18.0644 16.0883 17.797 16.2585 17.6009 16.4362C17.4059 16.6129 17.2676 16.8092 17.1795 16.9552C17.1347 17.0295 17.1008 17.0942 17.0775 17.1419C17.0658 17.1658 17.0567 17.1857 17.05 17.2007C17.0467 17.2081 17.0439 17.2144 17.0418 17.2194C17.0408 17.2218 17.0399 17.224 17.0391 17.2258C17.0387 17.2267 17.0384 17.2275 17.0381 17.2282C17.0379 17.2286 17.0378 17.2289 17.0377 17.2293C17.0376 17.2294 17.0375 17.2296 17.0375 17.2297C17.0374 17.2299 17.0373 17.2302 17.5 17.4197ZM11 7H13V6H11V7ZM13 20H11V21H13V20ZM11 20C9.58513 20 8.56161 19.9994 7.76445 19.9183C6.97564 19.8381 6.4641 19.6832 6.0555 19.4101L5.49993 20.2416C6.10023 20.6427 6.79537 20.8249 7.66324 20.9132C8.52277 21.0006 9.60594 21 11 21V20ZM3.5 13.5C3.5 14.8941 3.4994 15.9772 3.58683 16.8368C3.67512 17.7046 3.85728 18.3998 4.25839 19.0001L5.08986 18.4445C4.81684 18.0359 4.66194 17.5244 4.5817 16.7355C4.5006 15.9384 4.5 14.9149 4.5 13.5H3.5ZM6.0555 19.4101C5.67334 19.1548 5.34521 18.8267 5.08986 18.4445L4.25839 19.0001C4.5867 19.4914 5.00858 19.9133 5.49993 20.2416L6.0555 19.4101ZM13 7C14.4149 7 15.4384 7.0006 16.2355 7.0817C17.0244 7.16194 17.5359 7.31684 17.9445 7.58986L18.5001 6.75839C17.8998 6.35728 17.2046 6.17512 16.3368 6.08683C15.4772 5.9994 14.3941 6 13 6V7ZM20.5 13.5C20.5 12.1059 20.5006 11.0228 20.4132 10.1632C20.3249 9.29537 20.1427 8.60023 19.7416 7.99993L18.9101 8.5555C19.1832 8.9641 19.3381 9.47564 19.4183 10.2644C19.4994 11.0616 19.5 12.0851 19.5 13.5H20.5ZM17.9445 7.58986C18.3267 7.84521 18.6548 8.17334 18.9101 8.5555L19.7416 7.99993C19.4133 7.50858 18.9914 7.0867 18.5001 6.75839L17.9445 7.58986ZM11 6C9.60594 6 8.52277 5.9994 7.66324 6.08683C6.79537 6.17512 6.10023 6.35728 5.49993 6.75839L6.0555 7.58986C6.4641 7.31684 6.97564 7.16194 7.76445 7.0817C8.56161 7.0006 9.58513 7 11 7V6ZM4.5 13.5C4.5 12.0851 4.5006 11.0616 4.5817 10.2644C4.66194 9.47564 4.81684 8.9641 5.08986 8.5555L4.25839 7.99993C3.85728 8.60023 3.67512 9.29537 3.58683 10.1632C3.4994 11.0228 3.5 12.1059 3.5 13.5H4.5ZM5.49993 6.75839C5.00858 7.0867 4.5867 7.50858 4.25839 7.99993L5.08986 8.5555C5.34521 8.17334 5.67334 7.84521 6.0555 7.58986L5.49993 6.75839ZM19.5 13.5V14H20.5V13.5H19.5ZM12.102 5.58887L13.7748 5.96637L13.9949 4.9909L12.3221 4.6134L12.102 5.58887ZM13.7748 5.96637C14.9595 6.2337 15.8119 6.42666 16.4593 6.64196C17.0995 6.85486 17.4853 7.07325 17.7623 7.36039L18.482 6.66616C18.0458 6.21393 17.4877 5.93009 16.7749 5.69306C16.0693 5.45842 15.1597 5.25374 13.9949 4.9909L13.7748 5.96637ZM12.3221 4.6134C11.1573 4.35054 10.248 4.14476 9.50854 4.05327C8.7611 3.96081 8.13363 3.97702 7.54077 4.19512L7.88603 5.13362C8.26772 4.99321 8.71486 4.96271 9.38577 5.04571C10.0646 5.12969 10.9174 5.32155 12.102 5.58887L12.3221 4.6134ZM7.54077 4.19512C7.05856 4.37251 6.61612 4.64094 6.23901 4.9857L6.91376 5.72375C7.19419 5.46737 7.52447 5.26663 7.88603 5.13362L7.54077 4.19512ZM6.03583 7.43196C6.30257 6.53654 6.55298 6.05359 6.91376 5.72375L6.23901 4.98571C5.67169 5.50436 5.35777 6.20546 5.07745 7.14645L6.03583 7.43196ZM17.7623 7.36039C17.8516 7.45298 17.923 7.52857 17.9798 7.58999L18.7142 6.91126C18.6514 6.84335 18.5749 6.76244 18.482 6.66616L17.7623 7.36039ZM4 12.5H6.5V11.5H4V12.5ZM6.5 14.5H4V15.5H6.5V14.5ZM4.5 15V12H3.5V15H4.5ZM7.5 13.5C7.5 14.0523 7.05228 14.5 6.5 14.5V15.5C7.60457 15.5 8.5 14.6046 8.5 13.5H7.5ZM6.5 12.5C7.05228 12.5 7.5 12.9477 7.5 13.5H8.5C8.5 12.3954 7.60457 11.5 6.5 11.5V12.5Z" fill="currentColor"/>
</svg>
