<svg width="24" height="25" viewBox="0 0 24 25" fill="none" xmlns="http://www.w3.org/2000/svg">
<path d="M19 16.5764L19.4981 16.6201C19.522 16.3473 19.322 16.1059 19.0494 16.0788L19 16.5764ZM18.8777 17.9698L18.3796 17.926L18.8777 17.9698ZM15.1223 17.9698L15.6204 17.926L15.1223 17.9698ZM15 16.5764L14.9506 16.0788C14.678 16.1059 14.478 16.3473 14.5019 16.6201L15 16.5764ZM16.1429 16.2292L16.4245 16.6423L16.1429 16.2292ZM17 15.5L17.3549 15.1478C17.261 15.0532 17.1333 15 17 15C16.8667 15 16.739 15.0532 16.6451 15.1478L17 15.5ZM17.8571 16.2292L17.5755 16.6423L17.8571 16.2292ZM16.4931 20.1882L16.2311 20.6141L16.4931 20.1882ZM17.5069 20.1882L17.2449 19.7623L17.5069 20.1882ZM13 21C13.2761 21 13.5 20.7761 13.5 20.5C13.5 20.2239 13.2761 20 13 20V21ZM5.77772 19.8259L6.0555 19.4101H6.0555L5.77772 19.8259ZM4.67412 18.7223L5.08986 18.4445H5.08986L4.67412 18.7223ZM18.2223 7.17412L17.9445 7.58986V7.58986L18.2223 7.17412ZM19.3259 8.27772L18.9101 8.5555V8.5555L19.3259 8.27772ZM5.77772 7.17412L5.49993 6.75839L5.77772 7.17412ZM4.67412 8.27772L5.08986 8.5555L4.67412 8.27772ZM19.5 14C19.5 14.2761 19.7239 14.5 20 14.5C20.2761 14.5 20.5 14.2761 20.5 14H19.5ZM12.2121 5.10113L12.102 5.58887V5.58887L12.2121 5.10113ZM13.8849 5.47863L13.9949 4.9909L13.9949 4.9909L13.8849 5.47863ZM18.1221 7.01327L17.7623 7.36039V7.36039L18.1221 7.01327ZM7.7134 4.66437L7.88603 5.13362L7.7134 4.66437ZM6.57638 5.35473L6.23901 4.9857V4.98571L6.57638 5.35473ZM5.07745 7.14645C4.99861 7.4111 5.14924 7.68955 5.41389 7.76839C5.67854 7.84723 5.95699 7.6966 6.03583 7.43196L5.07745 7.14645ZM17.9798 7.58999C18.1672 7.79279 18.4836 7.80524 18.6863 7.61781C18.8891 7.43039 18.9016 7.11405 18.7142 6.91126L17.9798 7.58999ZM4 12V11.5C3.72386 11.5 3.5 11.7239 3.5 12H4ZM4 15H3.5C3.5 15.2761 3.72386 15.5 4 15.5V15ZM18.5019 16.5327L18.3796 17.926L19.3757 18.0135L19.4981 16.6201L18.5019 16.5327ZM15.6204 17.926L15.4981 16.5327L14.5019 16.6201L14.6243 18.0135L15.6204 17.926ZM15 16.5764C15.0494 17.0739 15.0495 17.0739 15.0496 17.0739C15.0496 17.0739 15.0497 17.0739 15.0498 17.0739C15.0499 17.0739 15.05 17.0739 15.0502 17.0739C15.0505 17.0738 15.0508 17.0738 15.0512 17.0738C15.052 17.0737 15.0529 17.0736 15.0541 17.0735C15.0563 17.0732 15.0593 17.0729 15.0629 17.0725C15.0702 17.0717 15.0803 17.0706 15.0927 17.0691C15.1176 17.066 15.1525 17.0615 15.1951 17.0552C15.28 17.0427 15.3976 17.0229 15.53 16.9933C15.7785 16.9378 16.142 16.8349 16.4245 16.6423L15.8612 15.816C15.7425 15.897 15.5346 15.9677 15.312 16.0174C15.2088 16.0404 15.1159 16.0561 15.0492 16.066C15.016 16.0708 14.9898 16.0742 14.9726 16.0763C14.964 16.0773 14.9577 16.0781 14.9539 16.0785C14.952 16.0787 14.9508 16.0788 14.9502 16.0789C14.9499 16.0789 14.9498 16.0789 14.9499 16.0789C14.9499 16.0789 14.95 16.0789 14.9501 16.0789C14.9501 16.0789 14.9502 16.0789 14.9503 16.0789C14.9503 16.0789 14.9504 16.0789 14.9504 16.0789C14.9505 16.0788 14.9506 16.0788 15 16.5764ZM16.4245 16.6423C16.6587 16.4826 16.8926 16.2827 17.0616 16.1299C17.1476 16.0521 17.22 15.9836 17.2711 15.9343C17.2968 15.9096 17.3172 15.8896 17.3314 15.8756C17.3385 15.8685 17.3441 15.863 17.3481 15.859C17.3501 15.857 17.3516 15.8555 17.3528 15.8543C17.3533 15.8538 17.3538 15.8533 17.3542 15.8529C17.3543 15.8528 17.3545 15.8526 17.3546 15.8525C17.3547 15.8524 17.3547 15.8524 17.3548 15.8523C17.3548 15.8523 17.3548 15.8523 17.3548 15.8522C17.3549 15.8522 17.3549 15.8522 17 15.5C16.6451 15.1478 16.6451 15.1478 16.6451 15.1478C16.6451 15.1477 16.6452 15.1477 16.6452 15.1477C16.6452 15.1477 16.6452 15.1477 16.6452 15.1477C16.6452 15.1477 16.6452 15.1477 16.6452 15.1477C16.6451 15.1478 16.6449 15.148 16.6446 15.1482C16.6441 15.1488 16.6431 15.1498 16.6417 15.1512C16.639 15.1539 16.6346 15.1582 16.6288 15.164C16.6171 15.1755 16.5996 15.1927 16.5771 15.2144C16.532 15.2578 16.4675 15.3189 16.3909 15.3882C16.2345 15.5296 16.0398 15.6943 15.8612 15.816L16.4245 16.6423ZM17 15.5C16.6451 15.8522 16.6451 15.8522 16.6451 15.8522C16.6452 15.8523 16.6452 15.8523 16.6452 15.8523C16.6453 15.8524 16.6453 15.8524 16.6454 15.8525C16.6455 15.8526 16.6457 15.8528 16.6458 15.8529C16.6462 15.8533 16.6467 15.8538 16.6472 15.8543C16.6484 15.8555 16.6499 15.857 16.6519 15.859C16.6559 15.863 16.6615 15.8685 16.6686 15.8756C16.6828 15.8896 16.7032 15.9096 16.7289 15.9343C16.78 15.9836 16.8524 16.0521 16.9384 16.1299C17.1074 16.2827 17.3413 16.4826 17.5755 16.6423L18.1388 15.816C17.9602 15.6943 17.7655 15.5296 17.6091 15.3882C17.5324 15.3189 17.4679 15.2578 17.4229 15.2144C17.4004 15.1927 17.3829 15.1755 17.3712 15.164C17.3654 15.1582 17.361 15.1539 17.3583 15.1512C17.3569 15.1498 17.3559 15.1488 17.3553 15.1482C17.3551 15.148 17.3549 15.1478 17.3548 15.1477C17.3548 15.1477 17.3548 15.1477 17.3548 15.1477C17.3548 15.1477 17.3548 15.1477 17.3548 15.1477C17.3548 15.1477 17.3549 15.1477 17.3549 15.1478C17.3549 15.1478 17.3549 15.1478 17 15.5ZM17.5755 16.6423C17.858 16.8349 18.2215 16.9378 18.47 16.9933C18.6024 17.0229 18.72 17.0427 18.8049 17.0552C18.8475 17.0615 18.8824 17.066 18.9073 17.0691C18.9197 17.0706 18.9298 17.0717 18.9371 17.0725C18.9407 17.0729 18.9437 17.0732 18.9459 17.0735C18.9471 17.0736 18.948 17.0737 18.9488 17.0738C18.9492 17.0738 18.9495 17.0738 18.9498 17.0739C18.95 17.0739 18.9501 17.0739 18.9502 17.0739C18.9503 17.0739 18.9504 17.0739 18.9504 17.0739C18.9505 17.0739 18.9506 17.0739 19 16.5764C19.0494 16.0788 19.0495 16.0788 19.0496 16.0789C19.0496 16.0789 19.0497 16.0789 19.0497 16.0789C19.0498 16.0789 19.0499 16.0789 19.0499 16.0789C19.05 16.0789 19.0501 16.0789 19.0501 16.0789C19.0502 16.0789 19.0501 16.0789 19.0498 16.0789C19.0492 16.0788 19.048 16.0787 19.0461 16.0785C19.0423 16.0781 19.036 16.0773 19.0274 16.0763C19.0102 16.0742 18.984 16.0708 18.9508 16.066C18.8841 16.0561 18.7912 16.0404 18.688 16.0174C18.4654 15.9677 18.2575 15.897 18.1388 15.816L17.5755 16.6423ZM16.7551 19.7623C16.1077 19.3641 15.6869 18.6831 15.6204 17.926L14.6243 18.0135C14.7184 19.0857 15.3143 20.0502 16.2311 20.6141L16.7551 19.7623ZM18.3796 17.926C18.3131 18.6831 17.8923 19.3641 17.2449 19.7623L17.7688 20.6141C18.6857 20.0502 19.2816 19.0857 19.3757 18.0135L18.3796 17.926ZM17.2449 19.7623C17.0947 19.8547 16.9053 19.8547 16.7551 19.7623L16.2311 20.6141C16.7027 20.9041 17.2973 20.9041 17.7688 20.6141L17.2449 19.7623ZM11 7H13V6H11V7ZM13 20H11V21H13V20ZM11 20C9.58513 20 8.56161 19.9994 7.76445 19.9183C6.97564 19.8381 6.4641 19.6832 6.0555 19.4101L5.49993 20.2416C6.10023 20.6427 6.79537 20.8249 7.66324 20.9132C8.52277 21.0006 9.60594 21 11 21V20ZM3.5 13.5C3.5 14.8941 3.4994 15.9772 3.58683 16.8368C3.67512 17.7046 3.85728 18.3998 4.25839 19.0001L5.08986 18.4445C4.81684 18.0359 4.66194 17.5244 4.5817 16.7355C4.5006 15.9384 4.5 14.9149 4.5 13.5H3.5ZM6.0555 19.4101C5.67334 19.1548 5.34521 18.8267 5.08986 18.4445L4.25839 19.0001C4.5867 19.4914 5.00858 19.9133 5.49993 20.2416L6.0555 19.4101ZM13 7C14.4149 7 15.4384 7.0006 16.2355 7.0817C17.0244 7.16194 17.5359 7.31684 17.9445 7.58986L18.5001 6.75839C17.8998 6.35728 17.2046 6.17512 16.3368 6.08683C15.4772 5.9994 14.3941 6 13 6V7ZM20.5 13.5C20.5 12.1059 20.5006 11.0228 20.4132 10.1632C20.3249 9.29537 20.1427 8.60023 19.7416 7.99993L18.9101 8.5555C19.1832 8.9641 19.3381 9.47564 19.4183 10.2644C19.4994 11.0616 19.5 12.0851 19.5 13.5H20.5ZM17.9445 7.58986C18.3267 7.84521 18.6548 8.17334 18.9101 8.5555L19.7416 7.99993C19.4133 7.50858 18.9914 7.0867 18.5001 6.75839L17.9445 7.58986ZM11 6C9.60594 6 8.52277 5.9994 7.66324 6.08683C6.79537 6.17512 6.10023 6.35728 5.49993 6.75839L6.0555 7.58986C6.4641 7.31684 6.97564 7.16194 7.76445 7.0817C8.56161 7.0006 9.58513 7 11 7V6ZM4.5 13.5C4.5 12.0851 4.5006 11.0616 4.5817 10.2644C4.66194 9.47564 4.81684 8.9641 5.08986 8.5555L4.25839 7.99993C3.85728 8.60023 3.67512 9.29537 3.58683 10.1632C3.4994 11.0228 3.5 12.1059 3.5 13.5H4.5ZM5.49993 6.75839C5.00858 7.0867 4.5867 7.50858 4.25839 7.99993L5.08986 8.5555C5.34521 8.17334 5.67334 7.84521 6.0555 7.58986L5.49993 6.75839ZM19.5 13.5V14H20.5V13.5H19.5ZM12.102 5.58887L13.7748 5.96637L13.9949 4.9909L12.3221 4.6134L12.102 5.58887ZM13.7748 5.96637C14.9595 6.2337 15.8119 6.42666 16.4593 6.64196C17.0995 6.85486 17.4853 7.07325 17.7623 7.36039L18.482 6.66616C18.0458 6.21393 17.4877 5.93009 16.7749 5.69306C16.0693 5.45842 15.1597 5.25374 13.9949 4.9909L13.7748 5.96637ZM12.3221 4.6134C11.1573 4.35054 10.248 4.14476 9.50854 4.05327C8.7611 3.96081 8.13363 3.97702 7.54077 4.19512L7.88603 5.13362C8.26772 4.99321 8.71486 4.96271 9.38577 5.04571C10.0646 5.12969 10.9174 5.32155 12.102 5.58887L12.3221 4.6134ZM7.54077 4.19512C7.05856 4.37251 6.61612 4.64094 6.23901 4.9857L6.91376 5.72375C7.19419 5.46737 7.52447 5.26663 7.88603 5.13362L7.54077 4.19512ZM6.03583 7.43196C6.30257 6.53654 6.55298 6.05359 6.91376 5.72375L6.23901 4.98571C5.67169 5.50436 5.35777 6.20546 5.07745 7.14645L6.03583 7.43196ZM17.7623 7.36039C17.8516 7.45298 17.923 7.52857 17.9798 7.58999L18.7142 6.91126C18.6514 6.84335 18.5749 6.76244 18.482 6.66616L17.7623 7.36039ZM4 12.5H6.5V11.5H4V12.5ZM6.5 14.5H4V15.5H6.5V14.5ZM4.5 15V12H3.5V15H4.5ZM7.5 13.5C7.5 14.0523 7.05228 14.5 6.5 14.5V15.5C7.60457 15.5 8.5 14.6046 8.5 13.5H7.5ZM6.5 12.5C7.05228 12.5 7.5 12.9477 7.5 13.5H8.5C8.5 12.3954 7.60457 11.5 6.5 11.5V12.5Z" fill="currentColor"/>
</svg>
