<svg width="24" height="25" viewBox="0 0 24 25" fill="none" xmlns="http://www.w3.org/2000/svg">
<path d="M17.1111 17.6561L17.0362 17.1617L17.1111 17.6561ZM17.3442 17.4794L17.7962 17.6932L17.3442 17.4794ZM16.0938 18.3351L15.7373 18.6857L16.0938 18.3351ZM16.2654 17.7843L16.3403 18.2786L16.2654 17.7843ZM16.7948 19.2431L17.2882 19.3243H17.2882L16.7948 19.2431ZM16.7058 18.9573L17.0623 18.6067L16.7058 18.9573ZM17.0995 20.4622L16.8591 20.0238L16.8591 20.0238L17.0995 20.4622ZM16.6503 20.1218L16.157 20.0406V20.0406L16.6503 20.1218ZM18.1441 20.0474L17.9036 20.4858L18.1441 20.0474ZM17.8559 20.0474L18.0964 20.4858L17.8559 20.0474ZM19.3496 20.1218L18.8563 20.2029V20.2029L19.3496 20.1218ZM18.9005 20.4622L19.1409 20.0238L19.1409 20.0238L18.9005 20.4622ZM19.2942 18.9573L18.9377 18.6067L19.2942 18.9573ZM19.2052 19.2431L19.6986 19.162L19.2052 19.2431ZM19.7346 17.7843L19.6597 18.2786L19.7346 17.7843ZM19.9062 18.3351L20.2627 18.6857L19.9062 18.3351ZM18.6558 17.4794L19.1078 17.2656L18.6558 17.4794ZM18.8889 17.6561L18.9638 17.1617L18.8889 17.6561ZM18.2776 16.68L17.8256 16.8938L18.2776 16.68ZM17.7224 16.68L17.2704 16.4662L17.7224 16.68ZM14 21C14.2761 21 14.5 20.7761 14.5 20.5C14.5 20.2239 14.2761 20 14 20V21ZM5.77772 19.8259L6.0555 19.4101H6.0555L5.77772 19.8259ZM4.67412 18.7223L5.08986 18.4445H5.08986L4.67412 18.7223ZM18.2223 7.17412L17.9445 7.58986V7.58986L18.2223 7.17412ZM19.3259 8.27772L18.9101 8.5555V8.5555L19.3259 8.27772ZM5.77772 7.17412L5.49993 6.75839L5.77772 7.17412ZM4.67412 8.27772L5.08986 8.5555L4.67412 8.27772ZM19.5 14.5C19.5 14.7761 19.7239 15 20 15C20.2761 15 20.5 14.7761 20.5 14.5H19.5ZM12.2121 5.10113L12.102 5.58887V5.58887L12.2121 5.10113ZM13.8849 5.47863L13.9949 4.9909L13.9949 4.9909L13.8849 5.47863ZM18.1221 7.01327L17.7623 7.36039V7.36039L18.1221 7.01327ZM7.7134 4.66437L7.88603 5.13362L7.7134 4.66437ZM6.57638 5.35473L6.23901 4.9857V4.98571L6.57638 5.35473ZM5.07745 7.14645C4.99861 7.4111 5.14924 7.68955 5.41389 7.76839C5.67854 7.84723 5.95699 7.6966 6.03583 7.43196L5.07745 7.14645ZM17.9798 7.58999C18.1672 7.79279 18.4836 7.80524 18.6863 7.61781C18.8891 7.43039 18.9016 7.11405 18.7142 6.91126L17.9798 7.58999ZM4 12V11.5C3.72386 11.5 3.5 11.7239 3.5 12H4ZM4 15H3.5C3.5 15.2761 3.72386 15.5 4 15.5V15ZM17.8256 16.8938L18.2038 17.6932L19.1078 17.2656L18.7296 16.4662L17.8256 16.8938ZM18.814 18.1504L19.6597 18.2786L19.8095 17.2899L18.9638 17.1617L18.814 18.1504ZM19.5497 17.9845L18.9377 18.6067L19.6507 19.3079L20.2627 18.6857L19.5497 17.9845ZM18.7118 19.3243L18.8563 20.2029L19.843 20.0406L19.6986 19.162L18.7118 19.3243ZM19.1409 20.0238L18.3845 19.609L17.9036 20.4858L18.6601 20.9006L19.1409 20.0238ZM17.6155 19.609L16.8591 20.0238L17.3399 20.9006L18.0964 20.4858L17.6155 19.609ZM17.1437 20.2029L17.2882 19.3243L16.3014 19.162L16.157 20.0406L17.1437 20.2029ZM17.0623 18.6067L16.4503 17.9845L15.7373 18.6857L16.3493 19.3079L17.0623 18.6067ZM16.3403 18.2786L17.186 18.1504L17.0362 17.1617L16.1905 17.2899L16.3403 18.2786ZM17.7962 17.6932L18.1744 16.8938L17.2704 16.4662L16.8922 17.2656L17.7962 17.6932ZM17.186 18.1504C17.458 18.1092 17.6828 17.9329 17.7962 17.6932L16.8922 17.2656C16.9154 17.2166 16.9659 17.1724 17.0362 17.1617L17.186 18.1504ZM16.4503 17.9845C16.5012 18.0362 16.5076 18.1055 16.4929 18.1527C16.4779 18.2007 16.4274 18.2654 16.3403 18.2786L16.1905 17.2899C15.5046 17.3939 15.2878 18.2285 15.7373 18.6857L16.4503 17.9845ZM17.2882 19.3243C17.3307 19.0658 17.2498 18.7974 17.0623 18.6067L16.3493 19.3079C16.3077 19.2656 16.2934 19.211 16.3014 19.162L17.2882 19.3243ZM16.8591 20.0238C16.9346 19.9824 17.0229 19.9993 17.0755 20.0391C17.1262 20.0775 17.1537 20.1423 17.1437 20.2029L16.157 20.0406C16.054 20.6667 16.7043 21.2492 17.3399 20.9006L16.8591 20.0238ZM18.3845 19.609C18.1445 19.4774 17.8555 19.4774 17.6155 19.609L18.0964 20.4858C18.0368 20.5184 17.9632 20.5184 17.9036 20.4858L18.3845 19.609ZM18.8563 20.2029C18.8463 20.1423 18.8738 20.0775 18.9245 20.0391C18.9771 19.9993 19.0654 19.9824 19.1409 20.0238L18.6601 20.9006C19.2957 21.2492 19.9459 20.6667 19.843 20.0406L18.8563 20.2029ZM18.9377 18.6067C18.7502 18.7974 18.6693 19.0658 18.7118 19.3243L19.6986 19.162C19.7066 19.211 19.6923 19.2656 19.6507 19.3079L18.9377 18.6067ZM19.6597 18.2786C19.5726 18.2654 19.5221 18.2007 19.5071 18.1527C19.4924 18.1055 19.4988 18.0362 19.5497 17.9845L20.2627 18.6857C20.7122 18.2285 20.4954 17.3939 19.8095 17.2899L19.6597 18.2786ZM18.2038 17.6932C18.3172 17.9329 18.542 18.1092 18.814 18.1504L18.9638 17.1617C19.0341 17.1724 19.0846 17.2166 19.1078 17.2656L18.2038 17.6932ZM18.7296 16.4662C18.4355 15.8446 17.5645 15.8446 17.2704 16.4662L18.1744 16.8938C18.145 16.956 18.0745 17 18 17C17.9254 17 17.855 16.956 17.8256 16.8938L18.7296 16.4662ZM11 7H13V6H11V7ZM14 20H11V21H14V20ZM11 20C9.58513 20 8.56161 19.9994 7.76445 19.9183C6.97564 19.8381 6.4641 19.6832 6.0555 19.4101L5.49993 20.2416C6.10023 20.6427 6.79537 20.8249 7.66324 20.9132C8.52277 21.0006 9.60594 21 11 21V20ZM3.5 13.5C3.5 14.8941 3.4994 15.9772 3.58683 16.8368C3.67512 17.7046 3.85728 18.3998 4.25839 19.0001L5.08986 18.4445C4.81684 18.0359 4.66194 17.5244 4.5817 16.7355C4.5006 15.9384 4.5 14.9149 4.5 13.5H3.5ZM6.0555 19.4101C5.67334 19.1548 5.34521 18.8267 5.08986 18.4445L4.25839 19.0001C4.5867 19.4914 5.00858 19.9133 5.49993 20.2416L6.0555 19.4101ZM13 7C14.4149 7 15.4384 7.0006 16.2355 7.0817C17.0244 7.16194 17.5359 7.31684 17.9445 7.58986L18.5001 6.75839C17.8998 6.35728 17.2046 6.17512 16.3368 6.08683C15.4772 5.9994 14.3941 6 13 6V7ZM20.5 13.5C20.5 12.1059 20.5006 11.0228 20.4132 10.1632C20.3249 9.29537 20.1427 8.60023 19.7416 7.99993L18.9101 8.5555C19.1832 8.9641 19.3381 9.47564 19.4183 10.2644C19.4994 11.0616 19.5 12.0851 19.5 13.5H20.5ZM17.9445 7.58986C18.3267 7.84521 18.6548 8.17334 18.9101 8.5555L19.7416 7.99993C19.4133 7.50858 18.9914 7.0867 18.5001 6.75839L17.9445 7.58986ZM11 6C9.60594 6 8.52277 5.9994 7.66324 6.08683C6.79537 6.17512 6.10023 6.35728 5.49993 6.75839L6.0555 7.58986C6.4641 7.31684 6.97564 7.16194 7.76445 7.0817C8.56161 7.0006 9.58513 7 11 7V6ZM4.5 13.5C4.5 12.0851 4.5006 11.0616 4.5817 10.2644C4.66194 9.47564 4.81684 8.9641 5.08986 8.5555L4.25839 7.99993C3.85728 8.60023 3.67512 9.29537 3.58683 10.1632C3.4994 11.0228 3.5 12.1059 3.5 13.5H4.5ZM5.49993 6.75839C5.00858 7.0867 4.5867 7.50858 4.25839 7.99993L5.08986 8.5555C5.34521 8.17334 5.67334 7.84521 6.0555 7.58986L5.49993 6.75839ZM19.5 13.5V14.5H20.5V13.5H19.5ZM12.102 5.58887L13.7748 5.96637L13.9949 4.9909L12.3221 4.6134L12.102 5.58887ZM13.7748 5.96637C14.9595 6.2337 15.8119 6.42666 16.4593 6.64196C17.0995 6.85486 17.4853 7.07325 17.7623 7.36039L18.482 6.66616C18.0458 6.21393 17.4877 5.93009 16.7749 5.69306C16.0693 5.45842 15.1597 5.25374 13.9949 4.9909L13.7748 5.96637ZM12.3221 4.6134C11.1573 4.35054 10.248 4.14476 9.50854 4.05327C8.7611 3.96081 8.13363 3.97702 7.54077 4.19512L7.88603 5.13362C8.26772 4.99321 8.71486 4.96271 9.38577 5.04571C10.0646 5.12969 10.9174 5.32155 12.102 5.58887L12.3221 4.6134ZM7.54077 4.19512C7.05856 4.37251 6.61612 4.64094 6.23901 4.9857L6.91376 5.72375C7.19419 5.46737 7.52447 5.26663 7.88603 5.13362L7.54077 4.19512ZM6.03583 7.43196C6.30257 6.53654 6.55298 6.05359 6.91376 5.72375L6.23901 4.98571C5.67169 5.50436 5.35777 6.20546 5.07745 7.14645L6.03583 7.43196ZM17.7623 7.36039C17.8516 7.45298 17.923 7.52857 17.9798 7.58999L18.7142 6.91126C18.6514 6.84335 18.5749 6.76244 18.482 6.66616L17.7623 7.36039ZM4 12.5H6.5V11.5H4V12.5ZM6.5 14.5H4V15.5H6.5V14.5ZM4.5 15V12H3.5V15H4.5ZM7.5 13.5C7.5 14.0523 7.05228 14.5 6.5 14.5V15.5C7.60457 15.5 8.5 14.6046 8.5 13.5H7.5ZM6.5 12.5C7.05228 12.5 7.5 12.9477 7.5 13.5H8.5C8.5 12.3954 7.60457 11.5 6.5 11.5V12.5Z" fill="currentColor"/>
</svg>
