<svg width="24" height="25" viewBox="0 0 24 25" fill="none" xmlns="http://www.w3.org/2000/svg">
<path d="M20 18C20.2761 18 20.5 17.7761 20.5 17.5C20.5 17.2239 20.2761 17 20 17V18ZM18 17C17.7239 17 17.5 17.2239 17.5 17.5C17.5 17.7761 17.7239 18 18 18L18 17ZM17.8846 18.2113C17.7252 18.4368 17.7787 18.7488 18.0042 18.9082C18.2297 19.0677 18.5417 19.0141 18.7011 18.7887L17.8846 18.2113ZM20.1154 16.7887C20.2748 16.5632 20.2212 16.2512 19.9958 16.0917C19.7703 15.9323 19.4583 15.9859 19.2989 16.2113L20.1154 16.7887ZM18.7011 16.2114C18.5416 15.9859 18.2296 15.9324 18.0041 16.0919C17.7787 16.2513 17.7251 16.5633 17.8846 16.7888L18.7011 16.2114ZM19.2988 18.7886C19.4582 19.0141 19.7703 19.0676 19.9957 18.9082C20.2212 18.7487 20.2747 18.4367 20.1153 18.2112L19.2988 18.7886ZM16 18C16.2761 18 16.5 17.7761 16.5 17.5C16.5 17.2239 16.2761 17 16 17V18ZM14 17C13.7239 17 13.5 17.2239 13.5 17.5C13.5 17.7761 13.7239 18 14 18L14 17ZM13.8846 18.2113C13.7252 18.4368 13.7787 18.7488 14.0042 18.9082C14.2297 19.0677 14.5417 19.0141 14.7011 18.7887L13.8846 18.2113ZM16.1154 16.7887C16.2748 16.5632 16.2212 16.2512 15.9958 16.0917C15.7703 15.9323 15.4583 15.9859 15.2989 16.2113L16.1154 16.7887ZM14.7011 16.2114C14.5416 15.9859 14.2296 15.9324 14.0041 16.0919C13.7787 16.2513 13.7251 16.5633 13.8846 16.7888L14.7011 16.2114ZM15.2988 18.7886C15.4582 19.0141 15.7703 19.0676 15.9957 18.9082C16.2212 18.7487 16.2747 18.4367 16.1153 18.2112L15.2988 18.7886ZM12.2121 21C12.4882 21 12.7121 20.7761 12.7121 20.5C12.7121 20.2239 12.4882 20 12.2121 20V21ZM5.77772 19.8259L6.0555 19.4101H6.0555L5.77772 19.8259ZM4.67412 18.7223L5.08986 18.4445H5.08986L4.67412 18.7223ZM18.2223 7.17412L17.9445 7.58986V7.58986L18.2223 7.17412ZM19.3259 8.27772L18.9101 8.5555V8.5555L19.3259 8.27772ZM5.77772 7.17412L5.49993 6.75839L5.77772 7.17412ZM4.67412 8.27772L5.08986 8.5555L4.67412 8.27772ZM19.5 14C19.5 14.2761 19.7239 14.5 20 14.5C20.2761 14.5 20.5 14.2761 20.5 14H19.5ZM12.2121 5.10113L12.102 5.58887V5.58887L12.2121 5.10113ZM13.8849 5.47863L13.9949 4.9909L13.9949 4.9909L13.8849 5.47863ZM18.1221 7.01327L17.7623 7.36039V7.36039L18.1221 7.01327ZM7.7134 4.66437L7.88603 5.13362L7.7134 4.66437ZM6.57638 5.35473L6.23901 4.9857V4.98571L6.57638 5.35473ZM5.07745 7.14645C4.99861 7.4111 5.14924 7.68955 5.41389 7.76839C5.67854 7.84723 5.95699 7.6966 6.03583 7.43196L5.07745 7.14645ZM17.9798 7.58999C18.1672 7.79279 18.4836 7.80524 18.6863 7.61781C18.8891 7.43039 18.9016 7.11405 18.7142 6.91126L17.9798 7.58999ZM4 12V11.5C3.72386 11.5 3.5 11.7239 3.5 12H4ZM4 15H3.5C3.5 15.2761 3.72386 15.5 4 15.5V15ZM20 17L18 17L18 18L20 18V17ZM18.7011 18.7887L20.1154 16.7887L19.2989 16.2113L17.8846 18.2113L18.7011 18.7887ZM17.8846 16.7888L19.2988 18.7886L20.1153 18.2112L18.7011 16.2114L17.8846 16.7888ZM16 17L14 17L14 18L16 18V17ZM14.7011 18.7887L16.1154 16.7887L15.2989 16.2113L13.8846 18.2113L14.7011 18.7887ZM13.8846 16.7888L15.2988 18.7886L16.1153 18.2112L14.7011 16.2114L13.8846 16.7888ZM11 7H13V6H11V7ZM12.2121 20H11V21H12.2121V20ZM11 20C9.58513 20 8.56161 19.9994 7.76445 19.9183C6.97564 19.8381 6.4641 19.6832 6.0555 19.4101L5.49993 20.2416C6.10023 20.6427 6.79537 20.8249 7.66324 20.9132C8.52277 21.0006 9.60594 21 11 21V20ZM3.5 13.5C3.5 14.8941 3.4994 15.9772 3.58683 16.8368C3.67512 17.7046 3.85728 18.3998 4.25839 19.0001L5.08986 18.4445C4.81684 18.0359 4.66194 17.5244 4.5817 16.7355C4.5006 15.9384 4.5 14.9149 4.5 13.5H3.5ZM6.0555 19.4101C5.67334 19.1548 5.34521 18.8267 5.08986 18.4445L4.25839 19.0001C4.5867 19.4914 5.00858 19.9133 5.49993 20.2416L6.0555 19.4101ZM13 7C14.4149 7 15.4384 7.0006 16.2355 7.0817C17.0244 7.16194 17.5359 7.31684 17.9445 7.58986L18.5001 6.75839C17.8998 6.35728 17.2046 6.17512 16.3368 6.08683C15.4772 5.9994 14.3941 6 13 6V7ZM20.5 13.5C20.5 12.1059 20.5006 11.0228 20.4132 10.1632C20.3249 9.29537 20.1427 8.60023 19.7416 7.99993L18.9101 8.5555C19.1832 8.9641 19.3381 9.47564 19.4183 10.2644C19.4994 11.0616 19.5 12.0851 19.5 13.5H20.5ZM17.9445 7.58986C18.3267 7.84521 18.6548 8.17334 18.9101 8.5555L19.7416 7.99993C19.4133 7.50858 18.9914 7.0867 18.5001 6.75839L17.9445 7.58986ZM11 6C9.60594 6 8.52277 5.9994 7.66324 6.08683C6.79537 6.17512 6.10023 6.35728 5.49993 6.75839L6.0555 7.58986C6.4641 7.31684 6.97564 7.16194 7.76445 7.0817C8.56161 7.0006 9.58513 7 11 7V6ZM4.5 13.5C4.5 12.0851 4.5006 11.0616 4.5817 10.2644C4.66194 9.47564 4.81684 8.9641 5.08986 8.5555L4.25839 7.99993C3.85728 8.60023 3.67512 9.29537 3.58683 10.1632C3.4994 11.0228 3.5 12.1059 3.5 13.5H4.5ZM5.49993 6.75839C5.00858 7.0867 4.5867 7.50858 4.25839 7.99993L5.08986 8.5555C5.34521 8.17334 5.67334 7.84521 6.0555 7.58986L5.49993 6.75839ZM19.5 13.5V14H20.5V13.5H19.5ZM12.102 5.58887L13.7748 5.96637L13.9949 4.9909L12.3221 4.6134L12.102 5.58887ZM13.7748 5.96637C14.9595 6.2337 15.8119 6.42666 16.4593 6.64196C17.0995 6.85486 17.4853 7.07325 17.7623 7.36039L18.482 6.66616C18.0458 6.21393 17.4877 5.93009 16.7749 5.69306C16.0693 5.45842 15.1597 5.25374 13.9949 4.9909L13.7748 5.96637ZM12.3221 4.6134C11.1573 4.35054 10.248 4.14476 9.50854 4.05327C8.7611 3.96081 8.13363 3.97702 7.54077 4.19512L7.88603 5.13362C8.26772 4.99321 8.71486 4.96271 9.38577 5.04571C10.0646 5.12969 10.9174 5.32155 12.102 5.58887L12.3221 4.6134ZM7.54077 4.19512C7.05856 4.37251 6.61612 4.64094 6.23901 4.9857L6.91376 5.72375C7.19419 5.46737 7.52447 5.26663 7.88603 5.13362L7.54077 4.19512ZM6.03583 7.43196C6.30257 6.53654 6.55298 6.05359 6.91376 5.72375L6.23901 4.98571C5.67169 5.50436 5.35777 6.20546 5.07745 7.14645L6.03583 7.43196ZM17.7623 7.36039C17.8516 7.45298 17.923 7.52857 17.9798 7.58999L18.7142 6.91126C18.6514 6.84335 18.5749 6.76244 18.482 6.66616L17.7623 7.36039ZM4 12.5H6.5V11.5H4V12.5ZM6.5 14.5H4V15.5H6.5V14.5ZM4.5 15V12H3.5V15H4.5ZM7.5 13.5C7.5 14.0523 7.05228 14.5 6.5 14.5V15.5C7.60457 15.5 8.5 14.6046 8.5 13.5H7.5ZM6.5 12.5C7.05228 12.5 7.5 12.9477 7.5 13.5H8.5C8.5 12.3954 7.60457 11.5 6.5 11.5V12.5Z" fill="currentColor"/>
</svg>
