<svg width="24" height="25" viewBox="0 0 24 25" fill="none" xmlns="http://www.w3.org/2000/svg">
<path d="M12 21C12.2761 21 12.5 20.7761 12.5 20.5C12.5 20.2239 12.2761 20 12 20V21ZM5.77772 19.8259L6.0555 19.4101H6.0555L5.77772 19.8259ZM4.67412 18.7223L5.08986 18.4445H5.08986L4.67412 18.7223ZM18.2223 7.17412L17.9445 7.58986V7.58986L18.2223 7.17412ZM19.3259 8.27772L18.9101 8.5555V8.5555L19.3259 8.27772ZM5.77772 7.17412L5.49993 6.75839L5.77772 7.17412ZM4.67412 8.27772L5.08986 8.5555L4.67412 8.27772ZM12.2121 5.10113L12.102 5.58887V5.58887L12.2121 5.10113ZM13.8849 5.47863L13.9949 4.9909L13.9949 4.9909L13.8849 5.47863ZM18.1221 7.01327L17.7623 7.36039V7.36039L18.1221 7.01327ZM7.7134 4.66437L7.88603 5.13362L7.7134 4.66437ZM6.57638 5.35473L6.23901 4.9857V4.98571L6.57638 5.35473ZM5.07745 7.14645C4.99861 7.4111 5.14924 7.68955 5.41389 7.76839C5.67854 7.84723 5.95699 7.6966 6.03583 7.43196L5.07745 7.14645ZM17.9798 7.58999C18.1672 7.79279 18.4836 7.80524 18.6863 7.61781C18.8891 7.43039 18.9016 7.11405 18.7142 6.91126L17.9798 7.58999ZM4 12V11.5C3.72386 11.5 3.5 11.7239 3.5 12H4ZM4 15H3.5C3.5 15.2761 3.72386 15.5 4 15.5V15ZM19.4986 12.5022C19.4998 12.7783 19.7247 13.0012 20.0008 13C20.277 12.9988 20.4998 12.774 20.4986 12.4978L19.4986 12.5022ZM13.5 17.4999C13.5 17.776 13.7238 17.9999 13.9999 17.9999C14.2761 18 14.5 17.7761 14.5 17.5L13.5 17.4999ZM14.3225 16.1454L14.7689 16.3706L14.769 16.3704L14.3225 16.1454ZM15.2225 15.0857L15.5168 15.4899L15.5195 15.4879L15.2225 15.0857ZM19.1224 15.3806L18.7682 15.7335L18.7713 15.7366L19.1224 15.3806ZM19.6938 15.9555L19.709 16.4553C19.8416 16.4512 19.9672 16.3947 20.058 16.298C20.1489 16.2014 20.1977 16.0726 20.1936 15.9401L19.6938 15.9555ZM20.1581 14.7904C20.1496 14.5144 19.9189 14.2975 19.6429 14.3061C19.3669 14.3146 19.15 14.5452 19.1586 14.8212L20.1581 14.7904ZM18.5287 15.4907C18.2526 15.4991 18.0357 15.7296 18.0441 16.0056C18.0525 16.2817 18.283 16.4986 18.559 16.4902L18.5287 15.4907ZM20.5 17.5001C20.5 17.224 20.2762 17.0001 20.0001 17.0001C19.7239 17 19.5 17.2239 19.5 17.5L20.5 17.5001ZM19.6775 18.8546L19.2311 18.6294L19.2309 18.6298L19.6775 18.8546ZM18.7775 19.9143L18.4833 19.51L18.4805 19.5121L18.7775 19.9143ZM14.8776 19.6194L15.2318 19.2665L15.2291 19.2638L14.8776 19.6194ZM14.3061 19.0446L14.2909 18.5448C14.1584 18.5488 14.0328 18.6054 13.9419 18.702C13.851 18.7986 13.8023 18.9274 13.8064 19.06L14.3061 19.0446ZM13.8419 20.2097C13.8504 20.4857 14.0811 20.7025 14.3571 20.694C14.6331 20.6855 14.8499 20.4548 14.8414 20.1788L13.8419 20.2097ZM15.4713 19.5094C15.7473 19.501 15.9643 19.2704 15.9559 18.9944C15.9475 18.7184 15.7169 18.5015 15.4409 18.5098L15.4713 19.5094ZM11 7H13V6H11V7ZM12 20H11V21H12V20ZM11 20C9.58513 20 8.56161 19.9994 7.76445 19.9183C6.97564 19.8381 6.4641 19.6832 6.0555 19.4101L5.49993 20.2416C6.10023 20.6427 6.79537 20.8249 7.66324 20.9132C8.52277 21.0006 9.60594 21 11 21V20ZM3.5 13.5C3.5 14.8941 3.4994 15.9772 3.58683 16.8368C3.67512 17.7046 3.85728 18.3998 4.25839 19.0001L5.08986 18.4445C4.81684 18.0359 4.66194 17.5244 4.5817 16.7355C4.5006 15.9384 4.5 14.9149 4.5 13.5H3.5ZM6.0555 19.4101C5.67334 19.1548 5.34521 18.8267 5.08986 18.4445L4.25839 19.0001C4.5867 19.4914 5.00858 19.9133 5.49993 20.2416L6.0555 19.4101ZM13 7C14.4149 7 15.4384 7.0006 16.2355 7.0817C17.0244 7.16194 17.5359 7.31684 17.9445 7.58986L18.5001 6.75839C17.8998 6.35728 17.2046 6.17512 16.3368 6.08683C15.4772 5.9994 14.3941 6 13 6V7ZM17.9445 7.58986C18.3267 7.84521 18.6548 8.17334 18.9101 8.5555L19.7416 7.99993C19.4133 7.50858 18.9914 7.0867 18.5001 6.75839L17.9445 7.58986ZM11 6C9.60594 6 8.52277 5.9994 7.66324 6.08683C6.79537 6.17512 6.10023 6.35728 5.49993 6.75839L6.0555 7.58986C6.4641 7.31684 6.97564 7.16194 7.76445 7.0817C8.56161 7.0006 9.58513 7 11 7V6ZM4.5 13.5C4.5 12.0851 4.5006 11.0616 4.5817 10.2644C4.66194 9.47564 4.81684 8.9641 5.08986 8.5555L4.25839 7.99993C3.85728 8.60023 3.67512 9.29537 3.58683 10.1632C3.4994 11.0228 3.5 12.1059 3.5 13.5H4.5ZM5.49993 6.75839C5.00858 7.0867 4.5867 7.50858 4.25839 7.99993L5.08986 8.5555C5.34521 8.17334 5.67334 7.84521 6.0555 7.58986L5.49993 6.75839ZM12.102 5.58887L13.7748 5.96637L13.9949 4.9909L12.3221 4.6134L12.102 5.58887ZM13.7748 5.96637C14.9595 6.2337 15.8119 6.42666 16.4593 6.64196C17.0995 6.85486 17.4853 7.07325 17.7623 7.36039L18.482 6.66616C18.0458 6.21393 17.4877 5.93009 16.7749 5.69306C16.0693 5.45842 15.1597 5.25374 13.9949 4.9909L13.7748 5.96637ZM12.3221 4.6134C11.1573 4.35054 10.248 4.14476 9.50854 4.05327C8.7611 3.96081 8.13363 3.97702 7.54077 4.19512L7.88603 5.13362C8.26772 4.99321 8.71486 4.96271 9.38577 5.04571C10.0646 5.12969 10.9174 5.32155 12.102 5.58887L12.3221 4.6134ZM7.54077 4.19512C7.05856 4.37251 6.61612 4.64094 6.23901 4.9857L6.91376 5.72375C7.19419 5.46737 7.52447 5.26663 7.88603 5.13362L7.54077 4.19512ZM6.03583 7.43196C6.30257 6.53654 6.55298 6.05359 6.91376 5.72375L6.23901 4.98571C5.67169 5.50436 5.35777 6.20546 5.07745 7.14645L6.03583 7.43196ZM17.7623 7.36039C17.8516 7.45298 17.923 7.52857 17.9798 7.58999L18.7142 6.91126C18.6514 6.84335 18.5749 6.76244 18.482 6.66616L17.7623 7.36039ZM4 12.5H6.5V11.5H4V12.5ZM6.5 14.5H4V15.5H6.5V14.5ZM4.5 15V12H3.5V15H4.5ZM7.5 13.5C7.5 14.0523 7.05228 14.5 6.5 14.5V15.5C7.60457 15.5 8.5 14.6046 8.5 13.5H7.5ZM6.5 12.5C7.05228 12.5 7.5 12.9477 7.5 13.5H8.5C8.5 12.3954 7.60457 11.5 6.5 11.5V12.5ZM20.4986 12.4978C20.4939 11.4213 20.4734 10.5548 20.3749 9.84176C20.2752 9.12069 20.092 8.52427 19.7416 7.99993L18.9101 8.5555C19.1487 8.91252 19.2971 9.34838 19.3843 9.97869C19.4725 10.617 19.4939 11.4209 19.4986 12.5022L20.4986 12.4978ZM14.5 17.5C14.5001 17.1077 14.5921 16.7209 14.7689 16.3706L13.8761 15.9201C13.6289 16.4101 13.5001 16.9511 13.5 17.4999L14.5 17.5ZM14.769 16.3704C14.9447 16.0216 15.2011 15.7198 15.5168 15.4899L14.9281 14.6815C14.4839 15.005 14.1232 15.4297 13.876 15.9204L14.769 16.3704ZM15.5195 15.4879C16.0005 15.1326 16.5932 14.962 17.1896 15.0071L17.265 14.01C16.4296 13.9468 15.5993 14.1858 14.9254 14.6835L15.5195 15.4879ZM17.1896 15.0071C17.7859 15.0522 18.3462 15.31 18.7682 15.7335L19.4765 15.0276C18.8852 14.4343 18.1003 14.0731 17.265 14.01L17.1896 15.0071ZM18.7713 15.7366C18.8755 15.8393 19.1443 16.1022 19.3307 16.2992L20.057 15.6118C19.8555 15.399 19.5709 15.1206 19.4734 15.0245L18.7713 15.7366ZM19.1586 14.8212L19.1941 15.9709L20.1936 15.9401L20.1581 14.7904L19.1586 14.8212ZM19.6786 15.4557L18.5287 15.4907L18.559 16.4902L19.709 16.4553L19.6786 15.4557ZM19.5 17.5C19.4999 17.8923 19.4079 18.2791 19.2311 18.6294L20.1239 19.0799C20.3711 18.5899 20.4999 18.0489 20.5 17.5001L19.5 17.5ZM19.2309 18.6298C19.0554 18.9785 18.7991 19.2803 18.4833 19.51L19.0717 20.3186C19.5162 19.9952 19.877 19.5704 20.1241 19.0794L19.2309 18.6298ZM18.4805 19.5121C17.9995 19.8673 17.4068 20.038 16.8104 19.9929L16.735 20.99C17.5704 21.0532 18.4007 20.8142 19.0746 20.3165L18.4805 19.5121ZM16.8104 19.9929C16.2141 19.9478 15.6538 19.69 15.2318 19.2665L14.5234 19.9724C15.1148 20.5657 15.8997 20.9269 16.735 20.99L16.8104 19.9929ZM15.2291 19.2638C15.1239 19.1598 14.8558 18.898 14.6694 18.701L13.9429 19.3881C14.1442 19.601 14.4299 19.8799 14.5261 19.975L15.2291 19.2638ZM14.8414 20.1788L14.8059 19.0291L13.8064 19.06L13.8419 20.2097L14.8414 20.1788ZM14.3213 19.5443L15.4713 19.5094L15.4409 18.5098L14.2909 18.5448L14.3213 19.5443Z" fill="currentColor"/>
</svg>
