<svg width="24" height="25" viewBox="0 0 24 25" fill="none" xmlns="http://www.w3.org/2000/svg">
<path d="M4.33329 15.9944L4.61107 15.5787L4.33329 15.9944ZM3.50559 15.1667L3.92133 14.8889L3.50559 15.1667ZM14.4944 15.1667L14.0787 14.8889L14.4944 15.1667ZM13.6667 15.9944L13.3889 15.5787L13.6667 15.9944ZM13.6667 6.50559L13.3889 6.92133L13.6667 6.50559ZM14.4944 7.33329L14.0787 7.61107L14.4944 7.33329ZM4.33329 6.50559L4.61107 6.92133L4.33329 6.50559ZM3.50559 7.33329L3.92133 7.61107L3.50559 7.33329ZM9.15895 4.95085L9.04889 5.43859L9.15895 4.95085ZM10.4136 5.23397L10.5236 4.74624L10.4136 5.23397ZM13.5915 6.38496L13.2316 6.73207V6.73207L13.5915 6.38496ZM5.78496 4.62328L5.95759 5.09253L5.78496 4.62328ZM4.9322 5.14105L4.59482 4.77202L4.59482 4.77202L4.9322 5.14105ZM3.6882 6.44915C3.60936 6.7138 3.75999 6.99225 4.02464 7.07109C4.28929 7.14993 4.56774 6.9993 4.64658 6.73466L3.6882 6.44915ZM13.393 6.90234C13.5804 7.10513 13.8967 7.11759 14.0995 6.93016C14.3023 6.74273 14.3148 6.42639 14.1273 6.2236L13.393 6.90234ZM3 10.125V9.625C2.72386 9.625 2.5 9.84886 2.5 10.125H3ZM3 12.375H2.5C2.5 12.6511 2.72386 12.875 3 12.875V12.375ZM21.1317 6.1967C21.327 6.00144 21.327 5.68485 21.1317 5.48959C20.9364 5.29433 20.6199 5.29433 20.4246 5.48959L21.1317 6.1967ZM19.1213 7.5L18.7677 7.85355C18.8615 7.94732 18.9887 8 19.1213 8C19.2539 8 19.3811 7.94732 19.4749 7.85355L19.1213 7.5ZM17.8535 5.52513C17.6583 5.32986 17.3417 5.32986 17.1464 5.52513C16.9512 5.72039 16.9512 6.03697 17.1464 6.23223L17.8535 5.52513ZM14.7798 3C14.5036 3 14.2798 3.22386 14.2798 3.5C14.2798 3.77614 14.5036 4 14.7798 4V3ZM19.1213 5.5H18.6213H19.1213ZM19.6667 20.9944L19.3889 20.5787L19.6667 20.9944ZM20.4944 20.1667L20.0787 19.8889L20.4944 20.1667ZM9.50559 20.1667L9.92133 19.8889L9.50559 20.1667ZM10.3333 20.9944L10.6111 20.5787L10.3333 20.9944ZM19.6667 11.5056L19.3889 11.9213L19.6667 11.5056ZM20.4944 12.3333L20.0787 12.6111L20.4944 12.3333ZM21 15.125H21.5C21.5 14.8489 21.2761 14.625 21 14.625V15.125ZM21 17.375V17.875C21.2761 17.875 21.5 17.6511 21.5 17.375H21ZM9.00545 17.5H8.5054L8.5055 17.5073L9.00545 17.5ZM15 10.5C14.7239 10.5 14.5 10.7239 14.5 11C14.5 11.2761 14.7239 11.5 15 11.5V10.5ZM9.50545 16.5C9.50545 16.2239 9.28159 16 9.00545 16C8.72931 16 8.50545 16.2239 8.50545 16.5H9.50545ZM8.25 6.5H9.75V5.5H8.25V6.5ZM9.75 16H8.25V17H9.75V16ZM8.25 16C7.18625 16 6.42607 15.9994 5.83599 15.9394C5.25427 15.8802 4.89356 15.7674 4.61107 15.5787L4.0555 16.4101C4.52969 16.727 5.07399 16.867 5.73478 16.9342C6.38722 17.0006 7.20706 17 8.25 17V16ZM2.5 11.25C2.5 12.2929 2.4994 13.1128 2.56577 13.7652C2.63299 14.426 2.77302 14.9703 3.08986 15.4445L3.92133 14.8889C3.73257 14.6064 3.61981 14.2457 3.56063 13.664C3.5006 13.0739 3.5 12.3138 3.5 11.25H2.5ZM4.61107 15.5787C4.3381 15.3963 4.10372 15.1619 3.92133 14.8889L3.08986 15.4445C3.34521 15.8267 3.67334 16.1548 4.0555 16.4101L4.61107 15.5787ZM14.5 11.25C14.5 12.3138 14.4994 13.0739 14.4394 13.664C14.3802 14.2457 14.2674 14.6064 14.0787 14.8889L14.9101 15.4445C15.227 14.9703 15.367 14.426 15.4342 13.7652C15.5006 13.1128 15.5 12.2929 15.5 11.25H14.5ZM9.75 17C10.7929 17 11.6128 17.0006 12.2652 16.9342C12.926 16.867 13.4703 16.727 13.9445 16.4101L13.3889 15.5787C13.1064 15.7674 12.7457 15.8802 12.164 15.9394C11.5739 15.9994 10.8138 16 9.75 16V17ZM14.0787 14.8889C13.8963 15.1619 13.6619 15.3963 13.3889 15.5787L13.9445 16.4101C14.3267 16.1548 14.6548 15.8267 14.9101 15.4445L14.0787 14.8889ZM9.75 6.5C10.8138 6.5 11.5739 6.5006 12.164 6.56063C12.7457 6.61981 13.1064 6.73257 13.3889 6.92133L13.9445 6.08986C13.4703 5.77302 12.926 5.63299 12.2652 5.56577C11.6128 5.4994 10.7929 5.5 9.75 5.5V6.5ZM15.5 11.25C15.5 10.2071 15.5006 9.38722 15.4342 8.73478C15.367 8.07399 15.227 7.52969 14.9101 7.0555L14.0787 7.61107C14.2674 7.89356 14.3802 8.25427 14.4394 8.83599C14.4994 9.42607 14.5 10.1862 14.5 11.25H15.5ZM13.3889 6.92133C13.6619 7.10372 13.8963 7.3381 14.0787 7.61107L14.9101 7.0555C14.6548 6.67334 14.3267 6.34521 13.9445 6.08986L13.3889 6.92133ZM8.25 5.5C7.20706 5.5 6.38722 5.4994 5.73478 5.56577C5.07399 5.63299 4.52969 5.77302 4.0555 6.08986L4.61107 6.92133C4.89356 6.73257 5.25427 6.61981 5.83599 6.56063C6.42607 6.5006 7.18625 6.5 8.25 6.5V5.5ZM3.5 11.25C3.5 10.1862 3.5006 9.42607 3.56063 8.83599C3.61981 8.25427 3.73257 7.89356 3.92133 7.61107L3.08986 7.0555C2.77302 7.52969 2.63299 8.07399 2.56577 8.73478C2.4994 9.38722 2.5 10.2071 2.5 11.25H3.5ZM4.0555 6.08986C3.67334 6.34521 3.34521 6.67334 3.08986 7.0555L3.92133 7.61107C4.10372 7.3381 4.3381 7.10372 4.61107 6.92133L4.0555 6.08986ZM9.04889 5.43859L10.3035 5.72171L10.5236 4.74624L9.26902 4.46311L9.04889 5.43859ZM10.3035 5.72171C11.1945 5.92277 11.8267 6.06603 12.305 6.22509C12.7761 6.38174 13.0438 6.53736 13.2316 6.73207L13.9514 6.03784C13.6043 5.67803 13.1642 5.45697 12.6205 5.27618C12.0841 5.09779 11.3947 4.94281 10.5236 4.74624L10.3035 5.72171ZM9.26902 4.46311C8.39787 4.26653 7.70887 4.11045 7.14666 4.0409C6.57652 3.97037 6.08337 3.98074 5.61233 4.15402L5.95759 5.09253C6.21746 4.99693 6.53028 4.97227 7.02389 5.03334C7.52544 5.09538 8.15798 5.23754 9.04889 5.43859L9.26902 4.46311ZM5.61233 4.15402C5.23559 4.29262 4.88974 4.5024 4.59482 4.77202L5.26957 5.51007C5.46781 5.32883 5.7015 5.18674 5.95759 5.09253L5.61233 4.15402ZM4.64658 6.73466C4.84494 6.06879 5.0248 5.73385 5.26957 5.51007L4.59482 4.77202C4.14352 5.18462 3.90014 5.73771 3.6882 6.44915L4.64658 6.73466ZM13.2316 6.73207C13.2982 6.80105 13.3511 6.85708 13.393 6.90234L14.1273 6.2236C14.0795 6.17186 14.0215 6.11051 13.9514 6.03784L13.2316 6.73207ZM3 10.625H4.875V9.625H3V10.625ZM4.875 11.875H3V12.875H4.875V11.875ZM3.5 12.375V10.125H2.5V12.375H3.5ZM5.5 11.25C5.5 11.5952 5.22018 11.875 4.875 11.875V12.875C5.77246 12.875 6.5 12.1475 6.5 11.25H5.5ZM4.875 10.625C5.22018 10.625 5.5 10.9048 5.5 11.25H6.5C6.5 10.3525 5.77246 9.625 4.875 9.625V10.625ZM20.4246 5.48959L18.7677 7.14645L19.4749 7.85355L21.1317 6.1967L20.4246 5.48959ZM19.4749 7.14645L17.8535 5.52513L17.1464 6.23223L18.7677 7.85355L19.4749 7.14645ZM19.6213 7.5V5.5H18.6213V7.5H19.6213ZM17.1213 3H14.7798V4H17.1213V3ZM19.6213 5.5C19.6213 4.11929 18.502 3 17.1213 3V4C17.9497 4 18.6213 4.67157 18.6213 5.5H19.6213ZM14.25 22H15.75V21H14.25V22ZM15.75 22C16.7929 22 17.6128 22.0006 18.2652 21.9342C18.926 21.867 19.4703 21.727 19.9445 21.4101L19.3889 20.5787C19.1064 20.7674 18.7457 20.8802 18.164 20.9394C17.5739 20.9994 16.8138 21 15.75 21V22ZM20.5 16.25C20.5 17.3138 20.4994 18.0739 20.4394 18.664C20.3802 19.2457 20.2674 19.6064 20.0787 19.8889L20.9101 20.4445C21.227 19.9703 21.367 19.426 21.4342 18.7652C21.5006 18.1128 21.5 17.2929 21.5 16.25H20.5ZM19.9445 21.4101C20.3267 21.1548 20.6548 20.8267 20.9101 20.4445L20.0787 19.8889C19.8963 20.1619 19.6619 20.3963 19.3889 20.5787L19.9445 21.4101ZM14.25 21C13.1862 21 12.4261 20.9994 11.836 20.9394C11.2543 20.8802 10.8936 20.7674 10.6111 20.5787L10.0555 21.4101C10.5297 21.727 11.074 21.867 11.7348 21.9342C12.3872 22.0006 13.2071 22 14.25 22V21ZM9.08986 20.4445C9.34521 20.8267 9.67334 21.1548 10.0555 21.4101L10.6111 20.5787C10.3381 20.3963 10.1037 20.1619 9.92133 19.8889L9.08986 20.4445ZM15.75 11.5C16.8138 11.5 17.5739 11.5006 18.164 11.5606C18.7457 11.6198 19.1064 11.7326 19.3889 11.9213L19.9445 11.0899C19.4703 10.773 18.926 10.633 18.2652 10.5658C17.6128 10.4994 16.7929 10.5 15.75 10.5V11.5ZM21.5 16.25C21.5 15.2071 21.5006 14.3872 21.4342 13.7348C21.367 13.074 21.227 12.5297 20.9101 12.0555L20.0787 12.6111C20.2674 12.8936 20.3802 13.2543 20.4394 13.836C20.4994 14.4261 20.5 15.1862 20.5 16.25H21.5ZM19.3889 11.9213C19.6619 12.1037 19.8963 12.3381 20.0787 12.6111L20.9101 12.0555C20.6548 11.6733 20.3267 11.3452 19.9445 11.0899L19.3889 11.9213ZM21 14.625H19.125V15.625H21V14.625ZM19.125 17.875H21V16.875H19.125V17.875ZM21.5 17.375V15.125H20.5V17.375H21.5ZM17.5 16.25C17.5 17.1475 18.2275 17.875 19.125 17.875V16.875C18.7798 16.875 18.5 16.5952 18.5 16.25H17.5ZM19.125 14.625C18.2275 14.625 17.5 15.3525 17.5 16.25H18.5C18.5 15.9048 18.7798 15.625 19.125 15.625V14.625ZM8.5055 17.5073C8.52448 18.7987 8.6028 19.7156 9.08986 20.4445L9.92133 19.8889C9.62055 19.4388 9.52485 18.8164 9.5054 17.4927L8.5055 17.5073ZM15.75 10.5H15V11.5H15.75V10.5ZM9.50545 17.5V16.5H8.50545V17.5H9.50545Z" fill="currentColor"/>
</svg>
