<svg width="24" height="25" viewBox="0 0 24 25" fill="none" xmlns="http://www.w3.org/2000/svg">
<path d="M12 21C12.2761 21 12.5 20.7761 12.5 20.5C12.5 20.2239 12.2761 20 12 20V21ZM5.77772 19.8259L6.0555 19.4101H6.0555L5.77772 19.8259ZM4.67412 18.7223L5.08986 18.4445H5.08986L4.67412 18.7223ZM18.2223 7.17412L17.9445 7.58986V7.58986L18.2223 7.17412ZM19.3259 8.27772L18.9101 8.5555V8.5555L19.3259 8.27772ZM5.77772 7.17412L5.49993 6.75839L5.77772 7.17412ZM4.67412 8.27772L5.08986 8.5555L4.67412 8.27772ZM12.2121 5.10113L12.102 5.58887V5.58887L12.2121 5.10113ZM13.8849 5.47863L13.9949 4.9909L13.9949 4.9909L13.8849 5.47863ZM18.1221 7.01327L17.7623 7.36039V7.36039L18.1221 7.01327ZM7.7134 4.66437L7.88603 5.13362L7.7134 4.66437ZM6.57638 5.35473L6.23901 4.9857V4.98571L6.57638 5.35473ZM5.07745 7.14645C4.99861 7.4111 5.14924 7.68955 5.41389 7.76839C5.67854 7.84723 5.95699 7.6966 6.03583 7.43196L5.07745 7.14645ZM17.9798 7.58999C18.1672 7.79279 18.4836 7.80524 18.6863 7.61781C18.8891 7.43039 18.9016 7.11405 18.7142 6.91126L17.9798 7.58999ZM4 12V11.5C3.72386 11.5 3.5 11.7239 3.5 12H4ZM4 15H3.5C3.5 15.2761 3.72386 15.5 4 15.5V15ZM19.4986 12.5022C19.4998 12.7783 19.7247 13.0012 20.0008 13C20.277 12.9988 20.4998 12.774 20.4986 12.4978L19.4986 12.5022ZM18.526 14.4903C18.2766 14.3718 17.9783 14.4779 17.8598 14.7273C17.7413 14.9767 17.8474 15.275 18.0969 15.3935L18.526 14.4903ZM16.7959 20.4938L16.8275 19.9948L16.827 19.9948L16.7959 20.4938ZM15.669 20.2001L15.4501 20.6496L15.4521 20.6505L15.669 20.2001ZM14.5183 15.9249L14.9289 16.2102L14.9292 16.2097L14.5183 15.9249ZM15.875 14.7513L16.3713 14.8121C16.4046 14.5402 16.2129 14.2921 15.9414 14.2557L15.875 14.7513ZM14.0664 14.0044C13.7927 13.9677 13.5411 14.1599 13.5044 14.4336C13.4677 14.7073 13.6599 14.9589 13.9336 14.9956L14.0664 14.0044ZM15.1337 16.6892C15.1001 16.9632 15.295 17.2127 15.5691 17.2463C15.8432 17.2799 16.0927 17.0849 16.1263 16.8108L15.1337 16.6892ZM11 7H13V6H11V7ZM12 20H11V21H12V20ZM11 20C9.58513 20 8.56161 19.9994 7.76445 19.9183C6.97564 19.8381 6.4641 19.6832 6.0555 19.4101L5.49993 20.2416C6.10023 20.6427 6.79537 20.8249 7.66324 20.9132C8.52277 21.0006 9.60594 21 11 21V20ZM3.5 13.5C3.5 14.8941 3.4994 15.9772 3.58683 16.8368C3.67512 17.7046 3.85728 18.3998 4.25839 19.0001L5.08986 18.4445C4.81684 18.0359 4.66194 17.5244 4.5817 16.7355C4.5006 15.9384 4.5 14.9149 4.5 13.5H3.5ZM6.0555 19.4101C5.67334 19.1548 5.34521 18.8267 5.08986 18.4445L4.25839 19.0001C4.5867 19.4914 5.00858 19.9133 5.49993 20.2416L6.0555 19.4101ZM13 7C14.4149 7 15.4384 7.0006 16.2355 7.0817C17.0244 7.16194 17.5359 7.31684 17.9445 7.58986L18.5001 6.75839C17.8998 6.35728 17.2046 6.17512 16.3368 6.08683C15.4772 5.9994 14.3941 6 13 6V7ZM17.9445 7.58986C18.3267 7.84521 18.6548 8.17334 18.9101 8.5555L19.7416 7.99993C19.4133 7.50858 18.9914 7.0867 18.5001 6.75839L17.9445 7.58986ZM11 6C9.60594 6 8.52277 5.9994 7.66324 6.08683C6.79537 6.17512 6.10023 6.35728 5.49993 6.75839L6.0555 7.58986C6.4641 7.31684 6.97564 7.16194 7.76445 7.0817C8.56161 7.0006 9.58513 7 11 7V6ZM4.5 13.5C4.5 12.0851 4.5006 11.0616 4.5817 10.2644C4.66194 9.47564 4.81684 8.9641 5.08986 8.5555L4.25839 7.99993C3.85728 8.60023 3.67512 9.29537 3.58683 10.1632C3.4994 11.0228 3.5 12.1059 3.5 13.5H4.5ZM5.49993 6.75839C5.00858 7.0867 4.5867 7.50858 4.25839 7.99993L5.08986 8.5555C5.34521 8.17334 5.67334 7.84521 6.0555 7.58986L5.49993 6.75839ZM12.102 5.58887L13.7748 5.96637L13.9949 4.9909L12.3221 4.6134L12.102 5.58887ZM13.7748 5.96637C14.9595 6.2337 15.8119 6.42666 16.4593 6.64196C17.0995 6.85486 17.4853 7.07325 17.7623 7.36039L18.482 6.66616C18.0458 6.21393 17.4877 5.93009 16.7749 5.69306C16.0693 5.45842 15.1597 5.25374 13.9949 4.9909L13.7748 5.96637ZM12.3221 4.6134C11.1573 4.35054 10.248 4.14476 9.50854 4.05327C8.7611 3.96081 8.13363 3.97702 7.54077 4.19512L7.88603 5.13362C8.26772 4.99321 8.71486 4.96271 9.38577 5.04571C10.0646 5.12969 10.9174 5.32155 12.102 5.58887L12.3221 4.6134ZM7.54077 4.19512C7.05856 4.37251 6.61612 4.64094 6.23901 4.9857L6.91376 5.72375C7.19419 5.46737 7.52447 5.26663 7.88603 5.13362L7.54077 4.19512ZM6.03583 7.43196C6.30257 6.53654 6.55298 6.05359 6.91376 5.72375L6.23901 4.98571C5.67169 5.50436 5.35777 6.20546 5.07745 7.14645L6.03583 7.43196ZM17.7623 7.36039C17.8516 7.45298 17.923 7.52857 17.9798 7.58999L18.7142 6.91126C18.6514 6.84335 18.5749 6.76244 18.482 6.66616L17.7623 7.36039ZM4 12.5H6.5V11.5H4V12.5ZM6.5 14.5H4V15.5H6.5V14.5ZM4.5 15V12H3.5V15H4.5ZM7.5 13.5C7.5 14.0523 7.05228 14.5 6.5 14.5V15.5C7.60457 15.5 8.5 14.6046 8.5 13.5H7.5ZM6.5 12.5C7.05228 12.5 7.5 12.9477 7.5 13.5H8.5C8.5 12.3954 7.60457 11.5 6.5 11.5V12.5ZM20.4986 12.4978C20.4939 11.4213 20.4734 10.5548 20.3749 9.84176C20.2752 9.12069 20.092 8.52427 19.7416 7.99993L18.9101 8.5555C19.1487 8.91252 19.2971 9.34838 19.3843 9.97869C19.4725 10.617 19.4939 11.4209 19.4986 12.5022L20.4986 12.4978ZM18.0969 15.3935C18.6205 15.6423 19.036 16.0587 19.2754 16.5686L20.1806 16.1437C19.8408 15.42 19.2549 14.8366 18.526 14.4903L18.0969 15.3935ZM19.2754 16.5686C19.5147 17.0783 19.5644 17.6519 19.4168 18.1923L20.3815 18.4556C20.5918 17.6852 20.5205 16.8677 20.1806 16.1437L19.2754 16.5686ZM19.4168 18.1923C19.2693 18.733 18.9325 19.21 18.4606 19.54L19.0336 20.3596C19.6936 19.898 20.1713 19.2258 20.3815 18.4556L19.4168 18.1923ZM18.4606 19.54C17.9884 19.8702 17.4111 20.0317 16.8275 19.9948L16.7644 20.9928C17.5718 21.0439 18.3738 20.8209 19.0336 20.3596L18.4606 19.54ZM16.827 19.9948C16.4993 19.9744 16.1794 19.8909 15.886 19.7496L15.4521 20.6505C15.8626 20.8483 16.3088 20.9645 16.7649 20.9929L16.827 19.9948ZM15.888 19.7506C15.5663 19.5939 15.2838 19.3729 15.0588 19.1029L14.2907 19.7432C14.6073 20.1231 15.0028 20.4318 15.4501 20.6496L15.888 19.7506ZM15.0588 19.1029C14.8338 18.833 14.6714 18.5204 14.5814 18.1861L13.6158 18.446C13.7437 18.9212 13.974 19.3633 14.2907 19.7432L15.0588 19.1029ZM14.5814 18.1861C14.4914 17.8519 14.4759 17.5031 14.5356 17.1628L13.5506 16.99C13.4656 17.4744 13.4879 17.9709 13.6158 18.446L14.5814 18.1861ZM14.5356 17.1628C14.5953 16.8225 14.7291 16.4977 14.9289 16.2102L14.1076 15.6396C13.8258 16.0452 13.6357 16.5056 13.5506 16.99L14.5356 17.1628ZM14.9292 16.2097C15.1979 15.8219 15.6059 15.4716 16.117 15.1888L15.6329 14.3138C15.0191 14.6534 14.4822 15.099 14.1073 15.6401L14.9292 16.2097ZM14 14.5C13.9336 14.9956 13.9336 14.9956 13.9336 14.9956C13.9336 14.9956 13.9336 14.9956 13.9336 14.9956C13.9337 14.9956 13.9337 14.9956 13.9338 14.9956C13.9339 14.9956 13.9341 14.9956 13.9344 14.9957C13.935 14.9958 13.9358 14.9959 13.9369 14.996C13.9391 14.9963 13.9423 14.9967 13.9466 14.9973C13.9551 14.9985 13.9678 15.0001 13.9841 15.0023C14.0168 15.0067 14.0643 15.0131 14.1236 15.021C14.2422 15.0369 14.4079 15.0591 14.5965 15.0844C14.9737 15.135 15.4425 15.1978 15.8086 15.2469L15.9414 14.2557C15.5753 14.2067 15.1066 14.1438 14.7293 14.0933C14.5407 14.068 14.375 14.0458 14.2564 14.0299C14.1971 14.0219 14.1496 14.0156 14.117 14.0112C14.1006 14.009 14.088 14.0073 14.0794 14.0062C14.0752 14.0056 14.0719 14.0052 14.0697 14.0049C14.0686 14.0047 14.0678 14.0046 14.0672 14.0045C14.067 14.0045 14.0668 14.0045 14.0666 14.0045C14.0666 14.0044 14.0665 14.0044 14.0665 14.0044C14.0665 14.0044 14.0664 14.0044 14.0664 14.0044C14.0664 14.0044 14.0664 14.0044 14 14.5ZM15.3787 14.6905C15.3309 15.0807 15.2696 15.5804 15.2203 15.9825C15.1957 16.1836 15.174 16.3602 15.1585 16.4866C15.1508 16.5498 15.1446 16.6005 15.1403 16.6353C15.1382 16.6527 15.1365 16.6662 15.1354 16.6753C15.1348 16.6798 15.1344 16.6833 15.1341 16.6856C15.134 16.6868 15.1339 16.6877 15.1338 16.6883C15.1338 16.6886 15.1337 16.6888 15.1337 16.6889C15.1337 16.689 15.1337 16.6891 15.1337 16.6891C15.1337 16.6891 15.1337 16.6891 15.1337 16.6891C15.1337 16.6892 15.1337 16.6892 15.63 16.75C16.1263 16.8108 16.1263 16.8108 16.1263 16.8108C16.1263 16.8108 16.1263 16.8108 16.1263 16.8108C16.1263 16.8107 16.1263 16.8107 16.1263 16.8106C16.1263 16.8105 16.1263 16.8102 16.1264 16.81C16.1264 16.8094 16.1266 16.8085 16.1267 16.8073C16.127 16.805 16.1274 16.8015 16.128 16.797C16.1291 16.7879 16.1307 16.7744 16.1329 16.757C16.1371 16.7221 16.1433 16.6715 16.1511 16.6083C16.1666 16.4819 16.1882 16.3052 16.2129 16.1042C16.2622 15.7021 16.3234 15.2024 16.3713 14.8121L15.3787 14.6905Z" fill="currentColor"/>
</svg>
