<svg width="24" height="25" viewBox="0 0 24 25" fill="none" xmlns="http://www.w3.org/2000/svg">
<path d="M5.77766 19.8259L6.05544 19.4101L5.77766 19.8259ZM4.67406 18.7223L5.0898 18.4445L4.67406 18.7223ZM19.3258 18.7223L18.9101 18.4445L19.3258 18.7223ZM18.2222 19.8259L17.9444 19.4101L18.2222 19.8259ZM18.2222 7.17412L17.9444 7.58986L18.2222 7.17412ZM19.3258 8.27772L18.9101 8.5555L19.3258 8.27772ZM5.77766 7.17412L6.05544 7.58986L5.77766 7.17412ZM4.67406 8.27772L5.0898 8.5555L4.67406 8.27772ZM12.2119 5.10113L12.1018 5.58887L12.2119 5.10113ZM13.8847 5.47863L13.9948 4.9909L13.8847 5.47863ZM18.122 7.01327L17.7621 7.36039V7.36039L18.122 7.01327ZM7.71322 4.66437L7.88585 5.13362L7.71322 4.66437ZM6.5762 5.35473L6.23883 4.9857V4.9857L6.5762 5.35473ZM5.07727 7.14645C4.99843 7.4111 5.14906 7.68955 5.41371 7.76839C5.67836 7.84723 5.95681 7.6966 6.03565 7.43196L5.07727 7.14645ZM17.9796 7.58999C18.167 7.79279 18.4834 7.80524 18.6862 7.61781C18.889 7.43039 18.9014 7.11405 18.714 6.91126L17.9796 7.58999ZM3.99994 12V11.5C3.7238 11.5 3.49994 11.7239 3.49994 12H3.99994ZM3.99994 15H3.49994C3.49994 15.2761 3.7238 15.5 3.99994 15.5V15ZM17 18C17.2761 18 17.5 17.7761 17.5 17.5C17.5 17.2239 17.2761 17 17 17V18ZM16 17C15.7238 17 15.5 17.2239 15.5 17.5C15.5 17.7761 15.7238 18 16 18V17ZM10.9999 7H12.9999V6H10.9999V7ZM12.9999 20H10.9999V21H12.9999V20ZM10.9999 20C9.58507 20 8.56156 19.9994 7.76439 19.9183C6.97558 19.8381 6.46404 19.6832 6.05544 19.4101L5.49987 20.2416C6.10017 20.6427 6.79531 20.8249 7.66318 20.9132C8.52271 21.0006 9.60588 21 10.9999 21V20ZM3.49994 13.5C3.49994 14.8941 3.49933 15.9772 3.58677 16.8368C3.67506 17.7046 3.85722 18.3998 4.25833 19.0001L5.0898 18.4445C4.81678 18.0359 4.66188 17.5244 4.58164 16.7355C4.50054 15.9384 4.49994 14.9149 4.49994 13.5H3.49994ZM6.05544 19.4101C5.67328 19.1548 5.34515 18.8267 5.0898 18.4445L4.25833 19.0001C4.58664 19.4914 5.00852 19.9133 5.49987 20.2416L6.05544 19.4101ZM19.4999 13.5C19.4999 14.9149 19.4993 15.9384 19.4182 16.7355C19.338 17.5244 19.1831 18.0359 18.9101 18.4445L19.7416 19.0001C20.1427 18.3998 20.3248 17.7046 20.4131 16.8368C20.5005 15.9772 20.4999 14.8941 20.4999 13.5H19.4999ZM12.9999 21C14.394 21 15.4772 21.0006 16.3367 20.9132C17.2046 20.8249 17.8997 20.6427 18.5 20.2416L17.9444 19.4101C17.5358 19.6832 17.0243 19.8381 16.2355 19.9183C15.4383 19.9994 14.4148 20 12.9999 20V21ZM18.9101 18.4445C18.6547 18.8267 18.3266 19.1548 17.9444 19.4101L18.5 20.2416C18.9914 19.9133 19.4132 19.4914 19.7416 19.0001L18.9101 18.4445ZM12.9999 7C14.4148 7 15.4383 7.0006 16.2355 7.0817C17.0243 7.16194 17.5358 7.31684 17.9444 7.58986L18.5 6.75839C17.8997 6.35728 17.2046 6.17512 16.3367 6.08683C15.4772 5.9994 14.394 6 12.9999 6V7ZM20.4999 13.5C20.4999 12.1059 20.5005 11.0228 20.4131 10.1632C20.3248 9.29537 20.1427 8.60023 19.7416 7.99993L18.9101 8.5555C19.1831 8.9641 19.338 9.47564 19.4182 10.2644C19.4993 11.0616 19.4999 12.0851 19.4999 13.5H20.4999ZM17.9444 7.58986C18.3266 7.84521 18.6547 8.17334 18.9101 8.5555L19.7416 7.99993C19.4132 7.50858 18.9914 7.0867 18.5 6.75839L17.9444 7.58986ZM10.9999 6C9.60588 6 8.52271 5.9994 7.66319 6.08683C6.79531 6.17512 6.10017 6.35728 5.49987 6.75839L6.05544 7.58986C6.46404 7.31684 6.97558 7.16194 7.76439 7.0817C8.56156 7.0006 9.58507 7 10.9999 7V6ZM4.49994 13.5C4.49994 12.0851 4.50054 11.0616 4.58164 10.2644C4.66188 9.47564 4.81678 8.9641 5.0898 8.5555L4.25833 7.99993C3.85722 8.60023 3.67506 9.29537 3.58677 10.1632C3.49933 11.0228 3.49994 12.1059 3.49994 13.5H4.49994ZM5.49987 6.75839C5.00852 7.0867 4.58664 7.50858 4.25833 7.99993L5.0898 8.5555C5.34515 8.17334 5.67328 7.84521 6.05544 7.58986L5.49987 6.75839ZM12.1018 5.58887L13.7746 5.96637L13.9948 4.9909L12.3219 4.6134L12.1018 5.58887ZM13.7746 5.96637C14.9593 6.2337 15.8117 6.42666 16.4592 6.64196C17.0994 6.85486 17.4851 7.07325 17.7621 7.36039L18.4818 6.66616C18.0456 6.21393 17.4875 5.93009 16.7747 5.69306C16.0691 5.45842 15.1595 5.25374 13.9948 4.9909L13.7746 5.96637ZM12.3219 4.6134C11.1571 4.35054 10.2479 4.14476 9.50836 4.05327C8.76092 3.96081 8.13344 3.97702 7.54059 4.19512L7.88585 5.13362C8.26754 4.99321 8.71468 4.96271 9.38559 5.04571C10.0644 5.12969 10.9172 5.32155 12.1018 5.58887L12.3219 4.6134ZM7.54059 4.19512C7.05838 4.37251 6.61594 4.64094 6.23883 4.9857L6.91358 5.72375C7.19401 5.46737 7.52428 5.26663 7.88585 5.13362L7.54059 4.19512ZM6.03565 7.43196C6.30239 6.53654 6.55279 6.05359 6.91358 5.72375L6.23883 4.9857C5.67151 5.50436 5.35759 6.20546 5.07727 7.14645L6.03565 7.43196ZM17.7621 7.36039C17.8514 7.45298 17.9228 7.52857 17.9796 7.58999L18.714 6.91126C18.6512 6.84335 18.5747 6.76244 18.4818 6.66616L17.7621 7.36039ZM3.99994 12.5H6.49994V11.5H3.99994V12.5ZM6.49994 14.5H3.99994V15.5H6.49994V14.5ZM4.49994 15V12H3.49994V15H4.49994ZM7.49994 13.5C7.49994 14.0523 7.05222 14.5 6.49994 14.5V15.5C7.60451 15.5 8.49994 14.6046 8.49994 13.5H7.49994ZM6.49994 12.5C7.05222 12.5 7.49994 12.9477 7.49994 13.5H8.49994C8.49994 12.3954 7.60451 11.5 6.49994 11.5V12.5ZM17 17H16V18H17V17Z" fill="currentColor"/>
</svg>
