<svg width="24" height="25" viewBox="0 0 24 25" fill="none" xmlns="http://www.w3.org/2000/svg">
<path d="M20 8.5C20 6.29086 18.2091 4.5 16 4.5L8 4.5C5.79086 4.5 4 6.29086 4 8.5L4 16.5C4 18.7091 5.79086 20.5 8 20.5L16 20.5C18.2091 20.5 20 18.7091 20 16.5L20 8.5Z" stroke="currentColor" stroke-linecap="round" stroke-linejoin="round" stroke-dasharray="5 8"/>
<path d="M20 8.5C20 6.29086 18.2091 4.5 16 4.5L8 4.5C5.79086 4.5 4 6.29086 4 8.5L4 11.5C4 12.0523 4.44772 12.5 5 12.5L19 12.5C19.5523 12.5 20 12.0523 20 11.5V8.5Z" stroke="currentColor" stroke-linecap="round" stroke-linejoin="round"/>
</svg>
