<svg width="24" height="25" viewBox="0 0 24 25" fill="none" xmlns="http://www.w3.org/2000/svg">
<path d="M16 20.5C18.2091 20.5 20 18.7091 20 16.5V8.5C20 6.29086 18.2091 4.5 16 4.5L8 4.5C5.79086 4.5 4 6.29086 4 8.5L4 16.5C4 18.7091 5.79086 20.5 8 20.5H16Z" stroke="currentColor" stroke-linecap="round" stroke-linejoin="round" stroke-dasharray="5 8"/>
<path d="M16 20.5C18.2091 20.5 20 18.7091 20 16.5L20 8.5C20 6.29086 18.2091 4.5 16 4.5L13 4.5C12.4477 4.5 12 4.94772 12 5.5L12 19.5C12 20.0523 12.4477 20.5 13 20.5H16Z" stroke="currentColor" stroke-linecap="round" stroke-linejoin="round"/>
</svg>
