<svg width="24" height="25" viewBox="0 0 24 25" fill="none" xmlns="http://www.w3.org/2000/svg">
<path d="M4 16.5C4 18.7091 5.79086 20.5 8 20.5H16C18.2091 20.5 20 18.7091 20 16.5V8.5C20 6.29086 18.2091 4.5 16 4.5H8C5.79086 4.5 4 6.29086 4 8.5V16.5Z" stroke="currentColor" stroke-linecap="round" stroke-linejoin="round" stroke-dasharray="5 8"/>
<path d="M4 16.5C4 18.7091 5.79086 20.5 8 20.5H16C18.2091 20.5 20 18.7091 20 16.5V13.5C20 12.9477 19.5523 12.5 19 12.5H5C4.44772 12.5 4 12.9477 4 13.5V16.5Z" stroke="currentColor" stroke-linecap="round" stroke-linejoin="round"/>
</svg>
