<svg width="24" height="25" viewBox="0 0 24 25" fill="none" xmlns="http://www.w3.org/2000/svg">
<path d="M15.9998 20.5002C18.2089 20.5002 19.9998 18.7094 19.9998 16.5002L19.9998 8.50025C19.9998 6.29111 18.2089 4.50025 15.9998 4.50025L7.99976 4.50024C5.79062 4.50024 3.99976 6.2911 3.99976 8.50024L3.99976 16.5002C3.99976 18.7094 5.79062 20.5002 7.99976 20.5002L15.9998 20.5002Z" stroke="currentColor" stroke-linecap="round" stroke-linejoin="round"/>
<path d="M13.9998 17.5002C15.6566 17.5002 16.9998 16.1571 16.9998 14.5002L16.9998 10.5002C16.9998 8.84339 15.6566 7.50024 13.9998 7.50024L9.99976 7.50024C8.3429 7.50024 6.99976 8.84339 6.99976 10.5002L6.99976 14.5002C6.99976 16.1571 8.3429 17.5002 9.99976 17.5002L13.9998 17.5002Z" stroke="currentColor" stroke-linecap="round" stroke-linejoin="round" stroke-dasharray="2 3"/>
</svg>
