<svg width="24" height="25" viewBox="0 0 24 25" fill="none" xmlns="http://www.w3.org/2000/svg">
<path d="M16 20.5C18.2091 20.5 20 18.7091 20 16.5L20 8.5C20 6.29086 18.2091 4.5 16 4.5L8 4.5C5.79086 4.5 4 6.29086 4 8.5L4 16.5C4 18.7091 5.79086 20.5 8 20.5L16 20.5Z" stroke="currentColor" stroke-linecap="round" stroke-linejoin="round" stroke-dasharray="2 3"/>
<path d="M13.9998 17.5002C15.6566 17.5002 16.9998 16.1571 16.9998 14.5002L16.9998 10.5002C16.9998 8.84339 15.6566 7.50024 13.9998 7.50024L9.99976 7.50024C8.3429 7.50024 6.99976 8.84339 6.99976 10.5002L6.99976 14.5002C6.99976 16.1571 8.3429 17.5002 9.99976 17.5002L13.9998 17.5002Z" stroke="currentColor" stroke-linecap="round" stroke-linejoin="round"/>
</svg>
