<svg width="24" height="25" viewBox="0 0 24 25" fill="none" xmlns="http://www.w3.org/2000/svg">
<path d="M14 15.5C14 18.2614 11.7614 20.5 9 20.5C6.23858 20.5 4 18.2614 4 15.5C4 12.7386 6.23858 10.5 9 10.5C11.7614 10.5 14 12.7386 14 15.5Z" stroke="currentColor" stroke-linecap="round" stroke-linejoin="round"/>
<path d="M20 15.5C20 18.2614 17.7614 20.5 15 20.5C12.2386 20.5 10 18.2614 10 15.5C10 12.7386 12.2386 10.5 15 10.5C17.7614 10.5 20 12.7386 20 15.5Z" stroke="currentColor" stroke-linecap="round" stroke-linejoin="round"/>
<path d="M17 9.5C17 12.2614 14.7614 14.5 12 14.5C9.23858 14.5 7 12.2614 7 9.5C7 6.73858 9.23858 4.5 12 4.5C14.7614 4.5 17 6.73858 17 9.5Z" stroke="currentColor" stroke-linecap="round" stroke-linejoin="round"/>
</svg>
