<svg width="24" height="25" viewBox="0 0 24 25" fill="none" xmlns="http://www.w3.org/2000/svg">
<path d="M4.04768 19.026C4.16322 17.7551 4.72066 16.5649 5.62303 15.6626L10.6553 10.6303C11.0104 10.2752 11.586 10.2752 11.9411 10.6303L13.8697 12.5589C14.2248 12.914 14.2248 13.4896 13.8697 13.8447L8.83744 18.877C7.93508 19.7793 6.74491 20.3368 5.47402 20.4523L4.99158 20.4962C4.42613 20.5476 3.95242 20.0739 4.00383 19.5084L4.04768 19.026Z" stroke="currentColor" stroke-linecap="round" stroke-linejoin="round"/>
<path d="M13.5483 5.80861C13.0157 5.27603 12.1523 5.27603 11.6197 5.80861C11.0871 6.34119 11.0871 7.20467 11.6197 7.73725L16.7627 12.8803C17.2953 13.4129 18.1588 13.4129 18.6914 12.8803C19.224 12.3477 19.224 11.4842 18.6914 10.9517C18.1588 10.4191 18.1588 9.55559 18.6914 9.02301L19.3343 8.38013C20.2219 7.4925 20.2219 6.05336 19.3343 5.16573C18.4466 4.27809 17.0075 4.27809 16.1199 5.16573L15.477 5.80861C14.9444 6.34119 14.0809 6.34119 13.5483 5.80861Z" stroke="currentColor" stroke-linecap="round" stroke-linejoin="round"/>
</svg>
