<svg width="24" height="25" viewBox="0 0 24 25" fill="none" xmlns="http://www.w3.org/2000/svg">
<path d="M8 13.5L12.5 15M4.99158 20.4962L5.47402 20.4523C6.74491 20.3368 7.93508 19.7793 8.83744 18.877L13.8697 13.8447C14.2248 13.4896 14.2248 12.914 13.8697 12.5589L11.9411 10.6303C11.586 10.2752 11.0104 10.2752 10.6553 10.6303L5.62303 15.6626C4.72066 16.5649 4.16322 17.7551 4.04768 19.026L4.00383 19.5084C3.95242 20.0739 4.42613 20.5476 4.99158 20.4962ZM15.477 5.80861L16.1199 5.16573C17.0075 4.27809 18.4466 4.27809 19.3343 5.16573C20.2219 6.05336 20.2219 7.4925 19.3343 8.38013L18.6914 9.02301C18.1588 9.55559 18.1588 10.4191 18.6914 10.9517C19.224 11.4842 19.224 12.3477 18.6914 12.8803C18.1588 13.4129 17.2953 13.4129 16.7627 12.8803L11.6197 7.73725C11.0871 7.20467 11.0871 6.34119 11.6197 5.80861C12.1523 5.27603 13.0157 5.27603 13.5483 5.80861C14.0809 6.34119 14.9444 6.34119 15.477 5.80861Z" stroke="currentColor" stroke-linecap="round" stroke-linejoin="round"/>
</svg>
