<svg width="24" height="25" viewBox="0 0 24 25" fill="none" xmlns="http://www.w3.org/2000/svg">
<path d="M15 7.5C15 5.84315 13.6569 4.5 12 4.5L7 4.5C5.34315 4.5 4 5.84315 4 7.5L4 12.5C4 14.1569 5.34315 15.5 7 15.5L12 15.5C13.6569 15.5 15 14.1569 15 12.5L15 7.5Z" stroke="currentColor" stroke-linecap="round" stroke-linejoin="round"/>
<path d="M20 12.5C20 10.8431 18.6569 9.5 17 9.5L12 9.5C10.3431 9.5 9 10.8431 9 12.5L9 17.5C9 19.1569 10.3431 20.5 12 20.5H17C18.6568 20.5 20 19.1569 20 17.5L20 12.5Z" stroke="currentColor" stroke-linecap="round" stroke-linejoin="round"/>
</svg>
