<svg width="24" height="25" viewBox="0 0 24 25" fill="none" xmlns="http://www.w3.org/2000/svg">
<path d="M9 15.5V12.5C9 10.8431 10.3431 9.5 12 9.5H15M9 15.5H12C13.6569 15.5 15 14.1569 15 12.5V9.5M9 15.5L7 15.5C5.34315 15.5 4 14.1569 4 12.5V7.5C4 5.84315 5.34315 4.5 7 4.5H12C13.6569 4.5 15 5.84315 15 7.5V9.5M9 15.5L9 17.5C9 19.1569 10.3431 20.5 12 20.5H17C18.6569 20.5 20 19.1569 20 17.5V12.5C20 10.8431 18.6569 9.5 17 9.5L15 9.5" stroke="currentColor" stroke-linecap="round" stroke-linejoin="round"/>
</svg>
