<svg width="24" height="25" viewBox="0 0 24 25" fill="none" xmlns="http://www.w3.org/2000/svg">
<path d="M9 14.5V12.5C9 10.8431 10.3431 9.5 12 9.5H14M15 10.5V12.5C15 14.1569 13.6569 15.5 12 15.5L10 15.5" stroke="currentColor" stroke-linecap="round" stroke-linejoin="round"/>
<path d="M17 20.5L11.5 20.5C10.1193 20.5 9 19.3807 9 18V17.5C9 16.3954 8.10457 15.5 7 15.5C5.34315 15.5 4 14.1569 4 12.5L4 7.5C4 5.84315 5.34315 4.5 7 4.5L12 4.5C13.6569 4.5 15 5.84315 15 7.5C15 8.60456 15.8954 9.49998 17 9.49998H17.5C18.8807 9.49998 20 10.6193 20 12V17.5C20 19.1568 18.6569 20.5 17 20.5Z" stroke="currentColor" stroke-linecap="round" stroke-linejoin="round" stroke-dasharray="2 3"/>
</svg>
