<svg width="24" height="25" viewBox="0 0 24 25" fill="none" xmlns="http://www.w3.org/2000/svg">
<path d="M4 16.5001C4 18.7093 5.79086 20.5001 8 20.5001M8 4.50012C5.79086 4.50012 4 6.29098 4 8.50012M20 8.50012C20 6.29098 18.2091 4.50012 16 4.50012M20 16.5001C20 18.7093 18.2091 20.5001 16 20.5001M13.9999 12.5H9.99995M5.99994 16.5L5.99995 8.49999C5.99995 7.39542 6.89538 6.49999 7.99995 6.49999L15.9999 6.49999C17.1045 6.49999 17.9999 7.39542 17.9999 8.49999L17.9999 16.5C17.9999 17.6046 17.1045 18.5 15.9999 18.5L7.99994 18.5C6.89537 18.5 5.99994 17.6046 5.99994 16.5Z" stroke="currentColor" stroke-linecap="round" stroke-linejoin="round"/>
</svg>
