<svg width="24" height="25" viewBox="0 0 24 25" fill="none" xmlns="http://www.w3.org/2000/svg">
<path d="M15.5 9.66725C18 8.66699 20 10.167 20 10.167M15.5 9.66725C12.4991 10.8679 11.5 13.1673 8 13.1673C6.07689 13.1673 4 11.6671 4 11.6671M15.5 9.66725C16.1982 9.20164 17.0106 8.70946 16.7628 7.71826C16.6084 7.10042 16.0478 6.66699 15.4109 6.66699C14.6356 6.66699 14 7.29553 14 8.07087V8.16699M7.42847 7.63722C7.42847 7.63722 8.88057 8.36626 9.57944 7.01307C9.81803 6.5511 9.73938 5.95725 9.34648 5.6604C9.06613 5.44859 8.59175 5.42829 8.34275 5.71031M5.71436 16.5834C8.5715 18.3334 9.71435 16.5834 10.7225 17.987C11.025 18.4082 10.8824 19.0428 10.4895 19.3397C10.2092 19.5515 9.73478 19.5718 9.48578 19.2898M18.1431 13.666C16.4136 13.666 14.7107 15.1623 14.1431 15.666" stroke="currentColor" stroke-linecap="round" stroke-linejoin="round"/>
</svg>
