<svg width="24" height="25" viewBox="0 0 24 25" fill="none" xmlns="http://www.w3.org/2000/svg">
<path d="M11.8829 4.61111C12.0706 4.61111 12.2538 4.63027 12.4309 4.66677C13.1264 3.94673 14.0957 3.5 15.1677 3.5C17.2842 3.5 19 5.24111 19 7.38889C19 9.53666 17.2842 11.2778 15.1677 11.2778C14.5512 11.2778 13.9686 11.13 13.4526 10.8675C13.1354 12.3719 11.8178 13.5 10.2405 13.5C9.64815 13.5 9.09238 13.3409 8.61248 13.0624C8.32025 13.3342 7.93082 13.5 7.50321 13.5C6.59614 13.5 5.86081 12.7538 5.86081 11.8333C5.86081 11.1072 6.31845 10.4895 6.95703 10.261C6.95618 10.2297 6.95574 10.1982 6.95574 10.1667C6.95574 8.70597 7.88161 7.46472 9.17029 7.01427C9.35056 5.65731 10.4964 4.61111 11.8829 4.61111ZM11.8829 4.61111C12.6278 4.61111 13.3031 4.91298 13.7966 5.40273M8.05055 10.2615C7.87932 10.2001 7.69505 10.1667 7.50309 10.1667C7.20133 10.1667 6.91859 10.2492 6.67559 10.3933M13.2441 11.518C13.4248 11.105 13.5252 10.6477 13.5252 10.1667C13.5252 9.84852 13.4813 9.54072 13.3992 9.24924M5.00979 20.3624L5.57129 16.3624C5.64069 15.868 6.06792 15.5 6.57239 15.5H8.18135C8.68582 15.5 9.11305 15.868 9.18245 16.3624L9.74395 20.3624C9.82835 20.9636 9.35634 21.5 8.74285 21.5H6.01089C5.39741 21.5 4.92539 20.9636 5.00979 20.3624Z" stroke="currentColor" stroke-linecap="round" stroke-linejoin="round"/>
</svg>
