<svg width="24" height="25" viewBox="0 0 24 25" fill="none" xmlns="http://www.w3.org/2000/svg">
<path d="M15.6143 12.6329C15.8942 12.5465 16.1917 12.5 16.5 12.5C16.8033 12.5 17.0961 12.545 17.3721 12.6287M17.3721 12.6287C17.4558 12.266 17.5 11.8882 17.5 11.5C17.5 8.73858 15.2614 6.5 12.5 6.5C10.0806 6.5 8.06257 8.21837 7.59977 10.5012M17.3721 12.6287C18.6036 13.0023 19.5 14.1465 19.5 15.5C19.5 17.1569 18.1569 18.5 16.5 18.5H7.5C5.29086 18.5 3.5 16.7091 3.5 14.5C3.5 12.2909 5.29086 10.5 7.5 10.5C7.53335 10.5 7.56661 10.5004 7.59977 10.5012M7.59977 10.5012C8.14689 10.5146 8.66677 10.6379 9.13818 10.8498M7 4.5H8M9 15.5H7M16 15.5H14M14 10.5H13M3 20.5H2M22 19.5H21M22 8.5H21M2 9.5H1" stroke="currentColor" stroke-linecap="round" stroke-linejoin="round"/>
</svg>
