<svg width="24" height="25" viewBox="0 0 24 25" fill="none" xmlns="http://www.w3.org/2000/svg">
<path d="M20 16.5C20 15.5962 19.6003 14.7857 18.968 14.2357C18.6355 13.9464 18.5 13.4408 18.5 13V7C18.5 6.17157 17.8284 5.5 17 5.5C16.1716 5.5 15.5 6.17157 15.5 7V13C15.5 13.4408 15.3645 13.9464 15.032 14.2357C14.3997 14.7857 14 15.5962 14 16.5M20 16.5C20 18.1569 18.6569 19.5 17 19.5C15.3431 19.5 14 18.1569 14 16.5M20 16.5L19.1158 16.7947C18.7079 16.9307 18.2705 17.0272 17.8633 16.8894C17.2786 16.6916 16.771 16.2805 16.14 16.0947C15.7275 15.9733 15.2921 16.0693 14.8842 16.2053L14 16.5M16.5 12H15.5M16.5 10H15.5M16.5 8H15.5M7.99994 14.5L7.99994 13M7.99994 13L7.99994 10M7.99994 13L7.23015 13.5625M7.99994 13L8.76973 13.5625M7.99994 10L7.99994 7M7.99994 10L5.33332 11.5M7.99994 10L10.6666 8.5M7.99994 10L5.33341 8.49991M7.99994 10L10.6667 11.4999M7.99994 7V5.5M7.99994 7L8.76973 6.4375M7.99994 7L7.23015 6.4375M4 12.25L5.33332 11.5M5.33332 11.5L4.44843 11.1317M5.33332 11.5L5.21822 12.4308M10.6666 8.5L11.9999 7.75M10.6666 8.5L11.5515 8.86827M10.6666 8.5L10.7817 7.56924M4.00009 7.74991L5.33341 8.49991M5.33341 8.49991L5.21831 7.56914M5.33341 8.49991L4.44852 8.86818M10.6667 11.4999L12 12.2499M10.6667 11.4999L10.7818 12.4307M10.6667 11.4999L11.5516 11.1316" stroke="currentColor" stroke-linecap="round" stroke-linejoin="round"/>
</svg>
