<svg width="24" height="25" viewBox="0 0 24 25" fill="none" xmlns="http://www.w3.org/2000/svg">
<path d="M16.1143 10.6329C16.3942 10.5465 16.6917 10.5 17 10.5C17.3033 10.5 17.5961 10.545 17.8721 10.6287M17.8721 10.6287C17.9558 10.266 18 9.88816 18 9.5C18 6.73858 15.7614 4.5 13 4.5C10.5806 4.5 8.56257 6.21837 8.09977 8.50122M17.8721 10.6287C19.1036 11.0023 20 12.1465 20 13.5C20 15.1569 18.6569 16.5 17 16.5H16M8.09977 8.50122C8.06661 8.50041 8.03335 8.5 8 8.5C5.79086 8.5 4 10.2909 4 12.5C4 14.7091 5.79086 16.5 8 16.5H9M8.09977 8.50122C8.64689 8.51461 9.16677 8.63787 9.63818 8.84976M12.5 20.5L14 17.5L11 17.5L12.5 14.5" stroke="currentColor" stroke-linecap="round" stroke-linejoin="round"/>
</svg>
