<svg width="24" height="25" viewBox="0 0 24 25" fill="none" xmlns="http://www.w3.org/2000/svg">
<path d="M17 19.5H14M8 12.5H4M10 7.5H8M19 17.5H18M12 5.5H11M20 11.5H18M9.3 16.5H7M14.1093 16.1516C13.623 16.957 12.7048 17.5 11.6522 17.5C10.0914 17.5 8.82609 16.3061 8.82609 14.8333C7.26528 14.8333 6 13.6394 6 12.1667C6 10.6939 7.26528 9.5 8.82609 9.5C11.2519 9.5 13.3141 9.5 16.1739 9.5C17.7347 9.5 19 10.6939 19 12.1667C19 13.4947 17.9712 14.596 16.6246 14.7996C16.0444 15.5479 15.1415 16.0593 14.1093 16.1516ZM14.1093 16.1516C14.1093 16.1516 14.518 15.4926 14.342 14.6628" stroke="currentColor" stroke-linecap="round" stroke-linejoin="round"/>
</svg>
