<svg width="24" height="25" viewBox="0 0 24 25" fill="none" xmlns="http://www.w3.org/2000/svg">
<path d="M17 19.5C18.1046 19.5 19 18.6248 19 17.5451C19 16.4654 18 14.75 17 13.5C16 14.75 15 16.4654 15 17.5451C15 18.6248 15.8955 19.5 17 19.5Z" stroke="currentColor" stroke-linecap="round" stroke-linejoin="round"/>
<path d="M7.00004 19.5C8.10461 19.5 9 18.6248 9 17.5451C9 16.4654 8 14.75 7 13.5C6 14.75 5 16.4654 5 17.5451C5 18.6248 5.89547 19.5 7.00004 19.5Z" stroke="currentColor" stroke-linecap="round" stroke-linejoin="round"/>
<path d="M12 11.5C13.1046 11.5 14 10.6248 14 9.54511C14 8.46545 13 6.75 12 5.5C11 6.75 10 8.46545 10 9.54511C10 10.6248 10.8955 11.5 12 11.5Z" stroke="currentColor" stroke-linecap="round" stroke-linejoin="round"/>
</svg>
