<svg width="24" height="25" viewBox="0 0 24 25" fill="none" xmlns="http://www.w3.org/2000/svg">
<path d="M15.5 12H14.5M15.5 10H14.5M14.5 7.5C15.7084 7.5 16.4038 8.5 17.5 8.5M5 10H7.5M7.5 10H10M7.5 10V7.5M7.5 10L7.5 12.5M14.5 7V13C14.5 13.4408 14.3645 13.9464 14.032 14.2357C13.3997 14.7857 13 15.5962 13 16.5C13 18.1569 14.3431 19.5 16 19.5C17.6569 19.5 19 18.1569 19 16.5C19 15.5962 18.6003 14.7857 17.9681 14.2357C17.6355 13.9464 17.5 13.4408 17.5 13V7C17.5 6.17157 16.8284 5.5 16 5.5C15.1716 5.5 14.5 6.17157 14.5 7Z" stroke="currentColor" stroke-linecap="round" stroke-linejoin="round"/>
</svg>
