<svg width="24" height="25" viewBox="0 0 24 25" fill="none" xmlns="http://www.w3.org/2000/svg">
<path d="M12 19.5V20.5M12 4.5V5.5M5 12.5H4M20 12.5H19M5.93782 16L4.20577 17M19.7942 8L18.0622 9M18.0622 16.0001L19.7943 17.0001M4.20579 8.00003L5.93784 9.00003M15.5001 18.5622L16.5001 20.2943M7.50003 4.70579L8.50003 6.43784M8.49993 18.562L7.49993 20.294M16.5 4.70555L15.5 6.4376M17 12.5C17 15.2614 14.7614 17.5 12 17.5C9.23857 17.5 7 15.2614 7 12.5C7 9.73857 9.23857 7.5 12 7.5C14.7614 7.5 17 9.73857 17 12.5Z" stroke="currentColor" stroke-linecap="round" stroke-linejoin="round"/>
</svg>
