<svg width="24" height="25" viewBox="0 0 24 25" fill="none" xmlns="http://www.w3.org/2000/svg">
<path d="M16.1143 12.6329C16.3942 12.5465 16.6917 12.5 17 12.5C17.3033 12.5 17.5961 12.545 17.8721 12.6287M17.8721 12.6287C17.9558 12.266 18 11.8882 18 11.5C18 8.73858 15.7614 6.5 13 6.5C10.5806 6.5 8.56257 8.21837 8.09977 10.5012M17.8721 12.6287C19.1036 13.0023 20 14.1465 20 15.5C20 17.1569 18.6569 18.5 17 18.5H8C5.79086 18.5 4 16.7091 4 14.5C4 12.2909 5.79086 10.5 8 10.5C8.03335 10.5 8.06661 10.5004 8.09977 10.5012M8.09977 10.5012C8.64689 10.5146 9.16677 10.6379 9.63818 10.8498" stroke="currentColor" stroke-linecap="round" stroke-linejoin="round"/>
</svg>
