<svg width="24" height="25" viewBox="0 0 24 25" fill="none" xmlns="http://www.w3.org/2000/svg">
<path d="M8 11.5C5.79086 11.5 4 13.2909 4 15.5C4 17.7091 5.79086 19.5 8 19.5H17C18.6569 19.5 20 18.1569 20 16.5C20 15.1465 19.1036 14.0023 17.8721 13.6287M8 11.5C8.03335 11.5 8.06661 11.5004 8.09977 11.5012C8.64689 11.5146 9.16677 11.6379 9.63818 11.8498M8 11.5C9.65685 11.5 11 10.1569 11 8.5C11 6.84315 9.65685 5.5 8 5.5C6.34315 5.5 5 6.84315 5 8.5C5 10.1569 6.34315 11.5 8 11.5ZM16.1143 13.6329C16.3942 13.5465 16.6917 13.5 17 13.5C17.3033 13.5 17.5961 13.545 17.8721 13.6287M17.8721 13.6287C17.9558 13.266 18 12.8882 18 12.5C18 9.73858 15.7614 7.5 13 7.5C12.2889 7.5 11.6125 7.64845 11 7.91604" stroke="currentColor" stroke-linecap="round" stroke-linejoin="round"/>
</svg>
