<svg width="24" height="25" viewBox="0 0 24 25" fill="none" xmlns="http://www.w3.org/2000/svg">
<path d="M17.3286 15.0997C17.521 15.0349 17.7255 15 17.9375 15C18.146 15 18.3473 15.0338 18.537 15.0965M18.537 15.0965C18.5946 14.8245 18.625 14.5411 18.625 14.25C18.625 12.1789 17.086 10.5 15.1875 10.5C13.5242 10.5 12.1368 11.7888 11.8186 13.5009M18.537 15.0965C19.3837 15.3767 20 16.2348 20 17.25C20 18.4926 19.0766 19.5 17.9375 19.5H11.75C10.2312 19.5 9 18.1569 9 16.5C9 14.8431 10.2312 13.5 11.75 13.5C11.7729 13.5 11.7958 13.5003 11.8186 13.5009M11.8186 13.5009C12.1947 13.511 12.5522 13.6034 12.8762 13.7623M6 14.5H4M6 17.5H5M11 8.5C11 10.1569 9.65685 11.5 8 11.5C6.34315 11.5 5 10.1569 5 8.5C5 6.84315 6.34315 5.5 8 5.5C9.65685 5.5 11 6.84315 11 8.5Z" stroke="currentColor" stroke-linecap="round" stroke-linejoin="round"/>
</svg>
