<svg width="24" height="25" viewBox="0 0 24 25" fill="none" xmlns="http://www.w3.org/2000/svg">
<path d="M11.9999 18.5L11.9999 16.5M11.9999 16.5V12.5M11.9999 16.5L9.91775 18M11.9999 16.5L14.0821 18M11.9999 12.5L11.9999 8.5M11.9999 12.5L8.3935 14.5M11.9999 12.5L15.6064 10.5M11.9999 12.5L8.39363 10.4999M11.9999 12.5L15.6065 14.4999M11.9999 8.5V6.5M11.9999 8.5L14.0821 7M11.9999 8.5L9.91775 7M6.59028 15.5L8.3935 14.5M8.3935 14.5L6 13.518M8.3935 14.5L8.08218 16.9821M15.6064 10.5L17.4096 9.50001M15.6064 10.5L17.9999 11.4821M15.6064 10.5L15.9177 8.01796M6.59041 9.49988L8.39363 10.4999M8.39363 10.4999L8.0823 8.01783M8.39363 10.4999L6.00013 11.4819M15.6065 14.4999L17.4097 15.4999M15.6065 14.4999L15.9178 16.9819M15.6065 14.4999L18 13.5178" stroke="currentColor" stroke-linecap="round" stroke-linejoin="round"/>
</svg>
