<svg width="24" height="25" viewBox="0 0 24 25" fill="none" xmlns="http://www.w3.org/2000/svg">
<path d="M17 16.5C18.6569 16.5 20 15.1569 20 13.5C20 12.1465 19.1036 11.0023 17.8721 10.6287M16.1143 10.6329C16.3942 10.5465 16.6917 10.5 17 10.5C17.3033 10.5 17.5961 10.545 17.8721 10.6287M17.8721 10.6287C17.9558 10.266 18 9.88816 18 9.5C18 6.73858 15.7614 4.5 13 4.5C10.5806 4.5 8.56257 6.21837 8.09977 8.50122M8.09977 8.50122C8.06661 8.50041 8.03335 8.5 8 8.5C5.79086 8.5 4 10.2909 4 12.5C4 14.3638 5.27477 15.9299 7 16.374M8.09977 8.50122C8.64689 8.51461 9.16677 8.63787 9.63818 8.84976M14.75 18.5V19.4999M14.75 19.4999V20.5M14.75 19.4999L14.0002 19M14.75 19.4999L15.5 20M14.75 19.4999L15.4998 19M14.75 19.4999L14 20M11.7501 15.5V16.4999M11.7501 16.4999L11.7501 17.5M11.7501 16.4999L11.0002 16M11.7501 16.4999L12.5 17M11.7501 16.4999L12.4998 16M11.7501 16.4999L11 17M8.75005 18.5V19.4999M8.75005 19.4999L8.75005 20.5M8.75005 19.4999L8.00021 19M8.75005 19.4999L9.5 20M8.75005 19.4999L9.49979 19M8.75005 19.4999L8 20" stroke="currentColor" stroke-linecap="round" stroke-linejoin="round"/>
</svg>
