<svg width="24" height="25" viewBox="0 0 24 25" fill="none" xmlns="http://www.w3.org/2000/svg">
<path d="M12 5.5L12 7.83333M12 7.83333L12 12.4999M12 7.83333L13.3333 7.08333M12 7.83333L10.6667 7.08333M12 12.4999L12 17.1667M12 12.4999L7.33333 12.5001M12 12.4999L16.6667 12.5001M12 12.4999L14.0442 10.4557M12 12.4999L9.9555 14.5444M12 12.4999L9.95541 10.4558M12 12.4999L14.0441 14.5445M12 17.1667L12 19.5M12 17.1667L10.6667 17.9167M12 17.1667L13.3333 17.9167M5 12.5001L7.33333 12.5001M7.33333 12.5001L6.58333 11.1668M7.33333 12.5001L6.58333 13.8334M16.6667 12.5001L19 12.5001M16.6667 12.5001L17.4167 13.8334M16.6667 12.5001L17.4167 11.1668M14.0442 10.4557L15.6941 10.4557M14.0442 10.4557L14.0442 8.80579M9.9555 14.5444L8.30559 14.5444M9.9555 14.5444L9.9555 16.1943M9.95541 10.4558V8.80589M9.95541 10.4558L8.30549 10.4558M14.0441 14.5445V16.1944M14.0441 14.5445L15.694 14.5445" stroke="currentColor" stroke-linecap="round" stroke-linejoin="round"/>
</svg>
