<svg width="24" height="25" viewBox="0 0 24 25" fill="none" xmlns="http://www.w3.org/2000/svg">
<path d="M4 15.149L5.59506 16.0418C6.72226 16.6727 8.10287 16.74 9.29225 16.2223L10.091 15.8746C11.1491 15.4139 12.366 15.4139 13.4242 15.8746L14.5386 16.3597C15.548 16.7991 16.7042 16.8203 17.7306 16.4181L20 15.5289M17.7307 20.2172C16.7043 20.6194 15.5481 20.5982 14.5388 20.1588L13.4243 19.6736C12.3662 19.213 11.1493 19.213 10.0911 19.6736L9.29241 20.0213C8.10302 20.5391 6.72242 20.4718 5.59521 19.8409M7 12.5C7 9.73858 9.23858 7.5 12 7.5C14.7614 7.5 17 9.73858 17 12.5M11.9999 4.5V5.5M17.6568 6.84315L16.9497 7.55025M7.05019 7.55017L6.34307 6.84306M5.00001 12.5H4M20 12.5H19" stroke="currentColor" stroke-linecap="round" stroke-linejoin="round"/>
</svg>
