<svg width="24" height="25" viewBox="0 0 24 25" fill="none" xmlns="http://www.w3.org/2000/svg">
<path d="M4 15.1489L5.59506 16.0417C6.72226 16.6726 8.10287 16.74 9.29225 16.2222L10.091 15.8745C11.1491 15.4138 12.366 15.4138 13.4242 15.8745L14.5386 16.3596C15.548 16.799 16.7042 16.8202 17.7306 16.418L20 15.5289M17.7307 20.2172C16.7043 20.6193 15.5481 20.5982 14.5388 20.1588L13.4243 19.6736C12.3662 19.213 11.1493 19.213 10.0911 19.6736L9.29241 20.0213C8.10302 20.5391 6.72242 20.4718 5.59521 19.8409M7 12.5C7 9.73858 9.23858 7.5 12 7.5C14.7614 7.5 17 9.73858 17 12.5M5 7.90339C5 7.90339 5.61953 7.56254 6.28051 8.27496C6.51749 7.45829 7.19945 7.50037 7.19945 7.50037M8 4.90339C8 4.90339 8.61953 4.56254 9.28051 5.27496C9.51749 4.45829 10.1994 4.50037 10.1994 4.50037" stroke="currentColor" stroke-linecap="round" stroke-linejoin="round"/>
</svg>
