<svg width="24" height="25" viewBox="0 0 24 25" fill="none" xmlns="http://www.w3.org/2000/svg">
<path d="M15.5 12H14.5M15.5 10H14.5M14.5 7.5C15.7084 7.5 16.4038 8.5 17.5 8.5M8.00006 14.5C8.82849 14.5 9.50006 13.746 9.50006 12.8158C9.50006 11.8856 8.93756 11.3421 8.93756 11.3421C8.93756 11.3421 8.67382 12.6833 8.18756 12.6053C7.54124 12.5016 7.51354 11.0118 7.43756 10.5C7.43756 10.5 6.50006 11.8856 6.50006 12.8158C6.50006 13.746 7.17163 14.5 8.00006 14.5ZM8.00006 14.5C9.65691 14.5 11 13.0996 11 11.3722C11 9.12331 9.125 9.7 8 6.5C6.875 6.9 5 8.9 5 11.3722C5 13.0996 6.34321 14.5 8.00006 14.5ZM14.5 7V13C14.5 13.4408 14.3645 13.9464 14.032 14.2357C13.3997 14.7857 13 15.5962 13 16.5C13 18.1569 14.3431 19.5 16 19.5C17.6569 19.5 19 18.1569 19 16.5C19 15.5962 18.6003 14.7857 17.9681 14.2357C17.6355 13.9464 17.5 13.4408 17.5 13V7C17.5 6.17157 16.8284 5.5 16 5.5C15.1716 5.5 14.5 6.17157 14.5 7Z" stroke="currentColor" stroke-linecap="round" stroke-linejoin="round"/>
</svg>
