<svg width="24" height="25" viewBox="0 0 24 25" fill="none" xmlns="http://www.w3.org/2000/svg">
<path d="M4 9.34961C4 9.34961 5.36667 10.7744 7.5 10.7744C10.1097 10.7744 10.2991 8.18885 13.5 6.87613C16.1667 5.78253 17.5 7.45003 17.5 7.45003C17.5 7.45003 16.4853 7.4405 15.8771 8.22466C14.8286 9.57647 17.025 10.8027 18.6502 10.2683L20 9.82453M4 13.149L5.59506 14.0418C6.72226 14.6727 8.10287 14.74 9.29225 14.2223L10.091 13.8746C11.1491 13.4139 12.366 13.4139 13.4242 13.8746L14.5386 14.3597C15.548 14.7991 16.7042 14.8203 17.7306 14.4181L20 13.5289M17.7307 18.2172C16.7043 18.6194 15.5481 18.5982 14.5388 18.1588L13.4243 17.6737C12.3662 17.213 11.1493 17.213 10.0911 17.6737L9.29241 18.0214C8.10303 18.5391 6.72242 18.4718 5.59521 17.8409" stroke="currentColor" stroke-linecap="round" stroke-linejoin="round"/>
</svg>
