<svg width="24" height="25" viewBox="0 0 24 25" fill="none" xmlns="http://www.w3.org/2000/svg">
<path d="M17.1143 14.6329C17.3942 14.5465 17.6917 14.5 18 14.5C18.3033 14.5 18.5961 14.545 18.8721 14.6287M18.8721 14.6287C18.9558 14.266 19 13.8882 19 13.5C19 10.7386 16.7614 8.5 14 8.5C11.5806 8.5 9.56257 10.2184 9.09977 12.5012M18.8721 14.6287C20.1036 15.0023 21 16.1465 21 17.5C21 19.1569 19.6569 20.5 18 20.5H9C6.79086 20.5 5 18.7091 5 16.5C5 14.2909 6.79086 12.5 9 12.5C9.03335 12.5 9.06661 12.5004 9.09977 12.5012M9.09977 12.5012C9.64689 12.5146 10.1668 12.6379 10.6382 12.8498M7 6.5H8C8.55228 6.5 9 6.05228 9 5.5C9 5.04882 8.7012 4.66742 8.29069 4.54291C8.1987 4.515 8.1011 4.5 8 4.5C7.89723 4.5 7.79808 4.5155 7.70476 4.5443M3 8.5H6C6.55228 8.5 7 8.94771 7 9.5C7 9.95118 6.7012 10.3326 6.29069 10.4571C6.1987 10.485 6.1011 10.5 6 10.5C5.89723 10.5 5.79808 10.4845 5.70476 10.4557M6 6.5H11M4 10.5H3" stroke="currentColor" stroke-linecap="round" stroke-linejoin="round"/>
</svg>
