<svg width="24" height="25" viewBox="0 0 24 25" fill="none" xmlns="http://www.w3.org/2000/svg">
<path d="M8 7.49998C8 6.70885 8.23461 5.93548 8.67413 5.27769C9.11366 4.61989 9.73833 4.10717 10.4692 3.80442C11.2001 3.50167 12.0044 3.42254 12.7803 3.57688C13.5563 3.73122 14.269 4.1122 14.8284 4.67161C15.3878 5.23102 15.7688 5.94366 15.9232 6.71958C16.0775 7.49551 15.9982 8.29984 15.6955 9.03074C15.3927 9.76164 14.8801 10.3864 14.2223 10.8259C13.5645 11.2654 12.7911 11.5 12 11.5C10.9391 11.5 9.92171 11.0785 9.17157 10.3283C8.42142 9.5782 8 8.56084 8 7.49998ZM8 7.49998L7 7.5C5.34315 7.5 4 8.84315 4 10.5V18.5C4 20.1569 5.34315 21.5 7 21.5H17C18.6569 21.5 20 20.1569 20 18.5V10.5C20 8.84315 18.6569 7.5 17 7.5H16M12 3.5V4.5M12.626 6.86597L12 7.5M14.828 4.67004L14.121 5.38M9.172 4.67004L9.87903 5.38M9 13.5V17.3835M9.39751 15.9757L10.6637 17.3835M10.6637 14.6456L9 16.4029M14.9999 14.6456V18.0437C14.9999 18.4299 14.8597 18.8003 14.6101 19.0735C14.3605 19.3466 14.0219 19.5 13.669 19.5C13.4193 19.4994 13.1749 19.4221 12.9636 19.2767C12.7507 19.1316 12.5804 18.9227 12.4729 18.6748M13.669 17.5582C13.9322 17.5582 14.1896 17.4728 14.4085 17.3128C14.6273 17.1528 14.798 16.9254 14.8987 16.6593C14.9994 16.3932 15.0258 16.1003 14.9744 15.8178C14.9231 15.5353 14.7963 15.2758 14.6102 15.0721C14.424 14.8684 14.1869 14.7297 13.9287 14.6735C13.6705 14.6173 13.4029 14.6463 13.1597 14.7565C12.9165 14.8667 12.7086 15.0533 12.5624 15.2928C12.4161 15.5323 12.338 15.8139 12.338 16.1019C12.3394 16.4877 12.4801 16.8572 12.7294 17.13C12.9787 17.4028 13.3164 17.5567 13.669 17.5582Z" stroke="currentColor" stroke-linecap="round" stroke-linejoin="round"/>
</svg>
