<svg width="24" height="25" viewBox="0 0 24 25" fill="none" xmlns="http://www.w3.org/2000/svg">
<path d="M19 16.5002H19.8794C20.4766 16.5002 20.9406 15.9801 20.8729 15.3868L20.4048 11.2851C20.1742 9.26459 18.4642 7.73871 16.4306 7.73871H16.3086C16.0023 7.73871 15.7129 7.8791 15.5232 8.11968L13.9473 10.1191C13.7577 10.3597 13.4683 10.5001 13.162 10.5001H6.73028C6.29525 10.5001 5.91013 10.2188 5.77772 9.80444L5.33992 8.43433C5.20751 8.01995 4.8224 7.73871 4.38737 7.73871H4C3.44772 7.73871 3 8.18642 3 8.73871V15.5002C3 16.0525 3.44772 16.5002 4 16.5002H5M19 16.5002C19 17.6047 18.1046 18.5002 17 18.5002C15.8954 18.5002 15 17.6047 15 16.5002M19 16.5002C19 15.3956 18.1046 14.5002 17 14.5002C15.8954 14.5002 15 15.3956 15 16.5002M5 16.5002C5 17.6047 5.89543 18.5 7 18.5C8.10457 18.5 9 17.6047 9 16.5002M5 16.5002C5 15.3956 5.89543 14.5 7 14.5C8.10457 14.5 9 15.3956 9 16.5002M15 16.5002H9M13 8.26154L14.5 6.5M15 8.5L14 7.5M8.5 10.5L7.5 8" stroke="currentColor" stroke-linecap="round" stroke-linejoin="round"/>
</svg>
