<svg width="24" height="25" viewBox="0 0 24 25" fill="none" xmlns="http://www.w3.org/2000/svg">
<path d="M17 14.5L14.5 9.5H14.4615M14.4615 9.5H10.5M14.4615 9.5L11.6004 13.2194C11.2219 13.7116 10.6361 14 10.0152 14H10M14.4615 9.5L15.6982 7.89228C15.8885 7.64494 16.1829 7.5 16.4949 7.5C17.05 7.5 17.5 7.94999 17.5 8.50509V9M10.5 9.5L7 14.5M10.5 9.5L9 7.5M9 7.5H11M9 7.5H8M20 14.5C20 16.1569 18.6569 17.5 17 17.5C15.3431 17.5 14 16.1569 14 14.5C14 12.8431 15.3431 11.5 17 11.5C18.6569 11.5 20 12.8431 20 14.5ZM10 14.5C10 16.1569 8.65685 17.5 7 17.5C5.34315 17.5 4 16.1569 4 14.5C4 12.8431 5.34315 11.5 7 11.5C8.65685 11.5 10 12.8431 10 14.5Z" stroke="currentColor" stroke-linecap="round" stroke-linejoin="round"/>
</svg>
