<svg width="24" height="25" viewBox="0 0 24 25" fill="none" xmlns="http://www.w3.org/2000/svg">
<path d="M9.00027 12.9202C8.42427 12.3154 8.07485 11.5302 8.01107 10.6975C7.9473 9.86478 8.17311 9.03552 8.6503 8.3501M15.3175 8.31006C15.8114 8.99445 16.0502 9.83009 15.9925 10.6721C15.9348 11.5142 15.5842 12.3095 15.0015 12.92M13.5791 8.74023C13.8598 9.24661 13.9913 9.82223 13.9581 10.4003C13.8497 11.0348 13.5916 11.6343 13.2051 12.149C12.8187 12.6638 12.3151 13.079 11.7361 13.3602C11.2116 13.6582 10.6343 13.8518 10.0361 13.9303M10.4211 8.74023C10.1423 9.24735 10.011 9.82241 10.0421 10.4003C10.1505 11.0348 10.4086 11.6343 10.7951 12.149C11.1815 12.6638 11.6851 13.079 12.2641 13.3602C12.7887 13.658 13.366 13.8516 13.9641 13.9303M12.0005 8.4502V14.5002M10.867 6.5C10.8645 6.57481 10.8761 6.6494 10.901 6.71997C10.9281 6.78948 10.967 6.85383 11.016 6.91003C11.0676 6.96357 11.1282 7.00758 11.195 7.04004C11.2625 7.07139 11.3356 7.08834 11.41 7.08997C11.484 7.09015 11.5578 7.08014 11.6291 7.06006C11.6983 7.03086 11.7621 6.99018 11.818 6.93994C11.8735 6.88952 11.9181 6.82833 11.949 6.76001C11.9805 6.6943 11.9982 6.62287 12.001 6.55005C12.002 6.5334 12.002 6.51665 12.001 6.5C11.9981 6.57484 12.0086 6.64951 12.034 6.71997C12.0607 6.78967 12.0996 6.85409 12.149 6.91003C12.2003 6.96381 12.261 7.00786 12.328 7.04004C12.3951 7.07147 12.468 7.08843 12.542 7.08997C12.616 7.09015 12.6897 7.08014 12.761 7.06006C12.8302 7.03086 12.8941 6.99018 12.95 6.93994C13.0055 6.88952 13.0501 6.82833 13.081 6.76001C13.1125 6.6943 13.1302 6.62287 13.133 6.55005C13.1341 6.5334 13.1341 6.51665 13.133 6.5M14.5002 17.5H9.50024M13.5002 19.5H10.5002M7.00024 21.5H17.0002C18.6571 21.5 20.0002 20.1569 20.0002 18.5V6.5C20.0002 4.84315 18.6571 3.5 17.0002 3.5H7.00024C5.34339 3.5 4.00024 4.84315 4.00024 6.5V18.5C4.00024 20.1569 5.34339 21.5 7.00024 21.5Z" stroke="currentColor" stroke-linecap="round" stroke-linejoin="round"/>
</svg>
