<svg width="24" height="25" viewBox="0 0 24 25" fill="none" xmlns="http://www.w3.org/2000/svg">
<path d="M8 16.5V15.5M7 18.5V19.5C7 20.0523 7.44772 20.5 8 20.5C8.55228 20.5 9 20.0523 9 19.5V18.5M15 18.5V19.5C15 20.0523 15.4477 20.5 16 20.5C16.5523 20.5 17 20.0523 17 19.5V18.5M16 16.5V15.5M18 13.1543C18 13.1543 14.2322 13.4987 12 13.5C9.76735 13.5013 6 13.1543 6 13.1543M18 11.5C18 11.5 14.2322 11.5 12 11.5C9.76735 11.5 6 11.5 6 11.5M8 18.5H16C17.1046 18.5 18 17.6046 18 16.5V7.5C18 5.84315 16.6569 4.5 15 4.5H9C7.34315 4.5 6 5.84315 6 7.5V16.5C6 17.6046 6.89543 18.5 8 18.5Z" stroke="currentColor" stroke-linecap="round" stroke-linejoin="round"/>
</svg>
