<svg width="24" height="25" viewBox="0 0 24 25" fill="none" xmlns="http://www.w3.org/2000/svg">
<path d="M5 6.5C3.89543 6.5 3 7.39543 3 8.5M5 6.5H6M5 6.5H19C20.1046 6.5 21 7.39543 21 8.5V16C21 16.5523 20.5523 17 20 17H19M19 17C19 17.8284 18.3284 18.5 17.5 18.5C16.6716 18.5 16 17.8279 16 16.9995M19 17C19 16.1716 18.3284 15.5 17.5 15.5M4.5 16.9995H4C3.44772 16.9995 3 16.5518 3 15.9995V8.5M4.5 16.9995C4.5 17.8279 5.17157 18.5 6 18.5C6.82843 18.5 7.5 17.8279 7.5 16.9995M4.5 16.9995C4.5 16.1711 5.17157 15.5 6 15.5C6.82843 15.5 7.5 16.1711 7.5 16.9995M16 16.9995H7.5M16 16.9995C16 16.1711 16.6716 15.5 17.5 15.5M3 8.5V12.5H6M17.5 15.5V6.5M6 6.5V12.5M6 6.5H9M6 12.5H9V6.5M9 6.5V16.5M14 6.5V16.5M11.5 16.5V6.5M17 12H14" stroke="currentColor" stroke-linecap="round" stroke-linejoin="round"/>
</svg>
