<svg width="24" height="25" viewBox="0 0 24 25" fill="none" xmlns="http://www.w3.org/2000/svg">
<path d="M5 16.5V15.5M4 18.5V19.5C4 20.0523 4.44772 20.5 5 20.5C5.55228 20.5 6 20.0523 6 19.5V18.5M12 18.5V19.5C12 20.0523 12.4477 20.5 13 20.5C13.5523 20.5 14 20.0523 14 19.5V18.5M13 16.5V15.5M15 13.1543C15 13.1543 11.2322 13.4987 9 13.5C6.76735 13.5013 3 13.1543 3 13.1543M15 11.5C15 11.5 11.2322 11.5 9 11.5C6.76735 11.5 3 11.5 3 11.5M19 10.5V18.5M5 18.5H13C14.1046 18.5 15 17.6046 15 16.5V7.5C15 5.84315 13.6569 4.5 12 4.5H6C4.34315 4.5 3 5.84315 3 7.5V16.5C3 17.6046 3.89543 18.5 5 18.5ZM18 10.5H20C20.5523 10.5 21 10.0523 21 9.5V5.5C21 4.94772 20.5523 4.5 20 4.5H18C17.4477 4.5 17 4.94772 17 5.5V9.5C17 10.0523 17.4477 10.5 18 10.5Z" stroke="currentColor" stroke-linecap="round" stroke-linejoin="round"/>
</svg>
