<svg width="24" height="25" viewBox="0 0 24 25" fill="none" xmlns="http://www.w3.org/2000/svg">
<path d="M7.71924 11.9863H11.3191C11.6411 11.9857 11.9557 12.0806 12.2207 12.2585C12.4848 12.4356 12.6894 12.6845 12.8086 12.9741L13.6638 15.0974M14.0005 8.6109H18.0003M17.9601 17.4934C17.8095 17.5786 17.6346 17.614 17.4615 17.5944C17.2884 17.5748 17.1265 17.5011 17.0002 17.3845L14.9778 15.4944C14.8817 15.3708 14.7559 15.272 14.6114 15.2067C14.4698 15.136 14.3131 15.0986 14.1539 15.0978H9.57966C9.33121 15.083 9.09363 14.9935 8.89985 14.8416C8.70607 14.6897 8.56568 14.4829 8.49811 14.25L6.59257 8.72783C6.50103 8.45939 6.45433 8.17837 6.4542 7.89556V6.51898C6.45397 6.3855 6.42676 6.25338 6.37417 6.13009C6.32233 6.00718 6.24499 5.89594 6.14698 5.80339C6.05056 5.70621 5.93457 5.6294 5.80623 5.5778C5.67987 5.52524 5.54367 5.49877 5.40624 5.50004H5.05186C4.91443 5.49877 4.77823 5.52524 4.65188 5.5778C4.52354 5.6294 4.4075 5.70621 4.31107 5.80339C4.21308 5.89596 4.13575 6.00719 4.08388 6.13009C4.03132 6.25338 4.00416 6.38551 4.00391 6.51898V8.4167L4.05107 8.72005L7.15896 18.4111C7.26016 18.7269 7.46357 19.0024 7.73891 19.1967C8.01375 19.3925 8.34534 19.4987 8.68609 19.5C10.4394 19.5 16.5796 19.5 19.0043 19.5C19.5566 19.5 20 19.0523 20 18.5V18.0743C20 17.3416 19.2378 16.857 18.5794 17.1785C18.2999 17.315 18.0615 17.4346 17.9601 17.4934ZM14.8005 6.66695H17.2004C17.4117 6.66876 17.6142 6.74955 17.7659 6.89253C17.8405 6.96502 17.8996 7.05107 17.9398 7.14584C17.9801 7.24061 18.0006 7.3422 18.0003 7.44472V10.1669C17.9986 10.579 17.8295 10.9737 17.5298 11.2651C17.2302 11.5564 16.8242 11.7208 16.4004 11.7225H15.6004C15.1766 11.7208 14.7707 11.5564 14.471 11.2651C14.1713 10.9737 14.0022 10.579 14.0005 10.1669V7.44472C14.0002 7.3422 14.0208 7.24061 14.061 7.14584C14.1012 7.05107 14.1603 6.96502 14.2349 6.89253C14.3867 6.74955 14.5891 6.66876 14.8005 6.66695Z" stroke="currentColor" stroke-linecap="round" stroke-linejoin="round"/>
</svg>
