<svg width="24" height="25" viewBox="0 0 24 25" fill="none" xmlns="http://www.w3.org/2000/svg">
<path d="M16 17L8 16.9995M16 17C16 17.8284 16.6716 18.5 17.5 18.5C18.3284 18.5 19 17.8279 19 16.9995M16 17C16 16.1716 16.6716 15.5 17.5 15.5C18.3284 15.5 19 16.1711 19 16.9995M8 16.9995C8 17.8279 7.32843 18.5 6.5 18.5C5.67157 18.5 5 17.8279 5 16.9995M8 16.9995C8 16.1711 7.32843 15.5 6.5 15.5C5.67157 15.5 5 16.1711 5 16.9995M5 16.9995C3.89543 16.9995 3 16.1041 3 14.9995V13.569C3 12.5581 3.81949 11.7386 4.83038 11.7386C5.60263 11.7386 6.2918 11.254 6.55294 10.5272L7.52437 7.82369C7.80971 7.02959 8.56274 6.5 9.40655 6.5H14.3122C15.1204 6.5 15.8491 6.98636 16.1592 7.73266L17.3357 10.5645C17.6311 11.2754 18.3252 11.7386 19.095 11.7386C20.1471 11.7386 21 12.5916 21 13.6437V14.9995C21 16.1041 20.1046 16.9995 19 16.9995M12 6.5V11.5M17.5 11L15.7389 11.4403C15.5802 11.4799 15.4173 11.5 15.2538 11.5L8.74621 11.5C8.58269 11.5 8.41978 11.4799 8.26114 11.4403L6.5 11M13 13.5H12" stroke="currentColor" stroke-linecap="round" stroke-linejoin="round"/>
</svg>
