<svg width="24" height="25" viewBox="0 0 24 25" fill="none" xmlns="http://www.w3.org/2000/svg">
<path d="M17.3334 17.876V19.4845C17.3404 19.7605 17.4566 20.0225 17.6566 20.2129C17.8565 20.4033 18.1239 20.5066 18.4 20.5C18.676 20.5066 18.9434 20.4033 19.1433 20.2129C19.3433 20.0225 19.4595 19.7605 19.4665 19.4845V17.9604M4.53344 17.8761V19.4845C4.54039 19.7605 4.65661 20.0225 4.85658 20.2129C5.05655 20.4033 5.32392 20.5066 5.59996 20.5C5.87601 20.5066 6.14338 20.4033 6.34335 20.2129C6.54332 20.0225 6.65954 19.7605 6.66648 19.4845V17.8761M18.4 10.8755H19.4665C19.5371 10.875 19.6069 10.8606 19.6719 10.8331C19.7369 10.8056 19.7959 10.7655 19.8454 10.7153C19.895 10.665 19.9341 10.6054 19.9606 10.54C19.9872 10.4746 20.0005 10.4046 20 10.334V9.79199C20.0006 9.72136 19.9873 9.65131 19.9608 9.58583C19.9343 9.52036 19.8951 9.46075 19.8456 9.41041C19.796 9.36008 19.7371 9.32 19.672 9.29247C19.607 9.26494 19.5371 9.2505 19.4665 9.24998H18.1335M5.60005 10.8755H4.53353C4.46294 10.875 4.39315 10.8606 4.32813 10.8331C4.26312 10.8056 4.20416 10.7655 4.15462 10.7153C4.10508 10.665 4.06593 10.6054 4.0394 10.54C4.01287 10.4746 3.99949 10.4046 4.00002 10.334V9.79199C3.99943 9.72136 4.01276 9.65131 4.03926 9.58583C4.06575 9.52036 4.10489 9.46075 4.15444 9.41041C4.20399 9.36008 4.26297 9.32 4.32802 9.29247C4.39306 9.26494 4.4629 9.2505 4.53353 9.24998H5.86655M12 4.5V6.00003M5.67656 10.8755H18.3238L19.4173 12.05C19.7927 12.4547 20.0009 12.9865 20.0003 13.5385V16.7926C20.0014 16.9338 19.9748 17.0738 19.9218 17.2046C19.8688 17.3355 19.7905 17.4546 19.6915 17.5552C19.5924 17.6559 19.4746 17.736 19.3446 17.791C19.2146 17.8461 19.075 17.875 18.9338 17.8761H5.06655C4.92538 17.875 4.78581 17.8461 4.6558 17.791C4.5258 17.736 4.40792 17.6559 4.30888 17.5552C4.20984 17.4546 4.13159 17.3355 4.0786 17.2046C4.02561 17.0738 3.99891 16.9338 4.00003 16.7926V13.5265C3.99953 12.9708 4.21067 12.4357 4.59054 12.03L5.67656 10.8755ZM8.74665 5.99999H15.2538C15.7033 6.00202 16.1407 6.14583 16.5038 6.41094C16.8669 6.67605 17.137 7.04894 17.2758 7.47652L18.4003 10.8766H5.60009L6.72461 7.47652C6.86341 7.04894 7.13356 6.67605 7.49662 6.41094C7.85967 6.14583 8.29711 6.00202 8.74665 5.99999ZM10.4 15.709H13.6001C13.8852 15.7113 14.1576 15.8268 14.3576 16.03C14.5576 16.2331 14.6687 16.5074 14.6666 16.7925V17.876H9.3335V16.7925C9.33137 16.5074 9.44251 16.2331 9.6425 16.03C9.84248 15.8268 10.1149 15.7113 10.4 15.709ZM16.0666 13.0425H17.6001C17.706 13.0432 17.8107 13.0649 17.9082 13.1062C18.0057 13.1474 18.0942 13.2075 18.1685 13.2829C18.2428 13.3584 18.3015 13.4478 18.3412 13.5459C18.3809 13.6441 18.401 13.7491 18.4001 13.855C18.4017 14.0688 18.3183 14.2745 18.1683 14.4269C18.0183 14.5792 17.8139 14.6658 17.6001 14.6675H16.0666C15.8528 14.6658 15.6484 14.5792 15.4984 14.4269C15.3483 14.2745 15.265 14.0688 15.2666 13.855C15.265 13.6412 15.3483 13.4355 15.4984 13.2831C15.6484 13.1307 15.8528 13.0442 16.0666 13.0425ZM6.40013 13.0425H7.93364C8.14746 13.0442 8.35184 13.1307 8.50186 13.2831C8.65188 13.4355 8.73525 13.6412 8.73366 13.855C8.73525 14.0688 8.65188 14.2745 8.50186 14.4269C8.35184 14.5792 8.14746 14.6658 7.93364 14.6675H6.40013C6.18632 14.6658 5.98193 14.5792 5.83191 14.4269C5.68189 14.2745 5.59852 14.0688 5.60012 13.855C5.59926 13.7491 5.61928 13.6441 5.65902 13.5459C5.69877 13.4478 5.75747 13.3584 5.83177 13.2829C5.90606 13.2075 5.9945 13.1474 6.09202 13.1062C6.18954 13.0649 6.29424 13.0432 6.40013 13.0425Z" stroke="currentColor" stroke-linecap="round" stroke-linejoin="round"/>
</svg>
