<svg width="24" height="25" viewBox="0 0 24 25" fill="none" xmlns="http://www.w3.org/2000/svg">
<path d="M16 11.0003C16 14.0378 15.5 15.0001 10.5 15.0001C5.5 15.0001 5 14.0378 5 11.0003M16 11.0003H8.5M16 11.0003V10.5003C16 9.39571 16.8954 8.50028 18 8.50028C18.5523 8.50028 19 8.94799 19 9.50028V10.0003M5 11.0003C5 6.62265 6.783 5.72687 9.00083 5.54524C10.1017 5.45508 10.3167 6.06309 9.59512 6.89936C8.89496 7.71077 8.24605 8.96853 8.5 11.0003M5 11.0003H8.5M8 18.0004C8 18.8289 7.32843 19.5004 6.5 19.5004C5.67157 19.5004 5 18.8289 5 18.0004C5 17.172 5.67157 16.5004 6.5 16.5004C7.32843 16.5004 8 17.172 8 18.0004ZM16 18.0004C16 18.8289 15.3284 19.5004 14.5 19.5004C13.6716 19.5004 13 18.8289 13 18.0004C13 17.172 13.6716 16.5004 14.5 16.5004C15.3284 16.5004 16 17.172 16 18.0004Z" stroke="currentColor" stroke-linecap="round" stroke-linejoin="round"/>
</svg>
