<svg width="24" height="25" viewBox="0 0 24 25" fill="none" xmlns="http://www.w3.org/2000/svg">
<path d="M15 7.5H15.9169C16.8446 7.5 17.6505 8.13789 17.8635 9.04076L18.3807 11.2328C18.4555 11.5499 18.6801 11.8107 18.9826 11.9317L20.3714 12.4872C20.751 12.6391 21 13.0068 21 13.4157V16.9998C21 17.5519 20.5524 17.9996 20.0002 17.9998L19 18M19 18C19 18.8284 18.3284 19.5 17.5 19.5C16.6716 19.5 16 18.8279 16 17.9995M19 18C19 17.1716 18.3284 16.5 17.5 16.5C16.6716 16.5 16 17.1711 16 17.9995M4.5 17.9995H4C3.44772 17.9995 3 17.5518 3 16.9995V15.5C3 14.9477 3.44772 14.5 4 14.5H5.5M4.5 17.9995C4.5 18.8279 5.17157 19.5 6 19.5C6.82843 19.5 7.5 18.8284 7.5 18C7.5 17.1716 6.82843 16.5 6 16.5C5.17157 16.5 4.5 17.1711 4.5 17.9995ZM16 17.9995L11 18M11 18C11 18.8284 10.3284 19.5 9.5 19.5C8.67157 19.5 8 18.8284 8 18C8 17.1716 8.67157 16.5 9.5 16.5C10.3284 16.5 11 17.1716 11 18ZM3 12.5L4.5 10.5M17 13.5H16M3.06914 7.71689L3.58931 6.39156C3.71915 6.06074 4.0148 5.82369 4.36593 5.76887L5.47372 5.59592C8.32749 5.15038 11.1998 6.27772 12.9887 8.54542L13.6831 9.42571C13.9032 9.70472 13.9587 10.0796 13.8289 10.4104L13.3087 11.7357C13.1789 12.0665 12.8832 12.3036 12.5321 12.3584L11.4243 12.5314C8.57053 12.9769 5.69818 11.8496 3.90931 9.58187L3.21489 8.70159C2.99479 8.42257 2.9393 8.0477 3.06914 7.71689Z" stroke="currentColor" stroke-linecap="round" stroke-linejoin="round"/>
</svg>
