<svg width="24" height="25" viewBox="0 0 24 25" fill="none" xmlns="http://www.w3.org/2000/svg">
<path d="M10.5 14.5L9 16.5H11L9.5 18.5M19 10.5V11.5C19 12.0523 18.5523 12.5 18 12.5M19 10.5H17M19 10.5V9.5M17 10.5V11.5C17 12.0523 17.4477 12.5 18 12.5M17 10.5V9.5M18 12.5L18 13.5C18.0001 14.0523 18.4478 14.5 19.0001 14.5C19.5524 14.5 20.0001 14.9477 20.0001 15.5C20.0001 16.0523 19.5523 16.5 19 16.5C18.4478 16.5 18 16.9477 18 17.5C18 18.0523 18.4478 18.5 19 18.5C19.5523 18.5 20.0001 18.9477 20.0001 19.5C20.0001 20.0523 19.5524 20.5 19.0001 20.5H4M13 6.5H11M15 17.5V6.5M5 6.5V17.5M6 20.5H14C14.5523 20.5 15 20.0523 15 19.5V15.5C15 13.8431 13.6569 12.5 12 12.5H8C6.34315 12.5 5 13.8431 5 15.5V19.5C5 20.0523 5.44772 20.5 6 20.5ZM6 4.5H14C14.5523 4.5 15 4.94772 15 5.5V7.5C15 8.05228 14.5523 8.5 14 8.5H6C5.44772 8.5 5 8.05228 5 7.5V5.5C5 4.94772 5.44772 4.5 6 4.5Z" stroke="currentColor" stroke-linecap="round" stroke-linejoin="round"/>
</svg>
