<svg width="24" height="25" viewBox="0 0 24 25" fill="none" xmlns="http://www.w3.org/2000/svg">
<path d="M9.00004 16.502C9.00004 17.6055 8.10461 18.5 7.00004 18.5C5.89547 18.5 5.00004 17.6055 5.00004 16.502M16 6.5H14M16 6.5L14.6278 15.6483C14.5543 16.1379 14.1346 16.5 13.6396 16.5H9.00004M16 6.5L17.8462 12.5M4.00004 10.5H11M21 16.5C21 17.6046 20.1046 18.5 19 18.5C17.8955 18.5 17 17.6046 17 16.5C17 15.3954 17.8955 14.5 19 14.5C20.1046 14.5 21 15.3954 21 16.5ZM7.50004 10.5078C10.7188 10.5078 12.4021 14.2745 9.74646 16.3233C9.59022 16.4438 9.39475 16.5 9.19743 16.5001L4.00033 16.5016C3.44794 16.5017 2.9935 16.0524 3.04918 15.5029C3.37044 12.3319 5.22892 10.5007 7.50004 10.5078ZM8.00004 13.5048C8.00004 14.0565 7.55233 14.5038 7.00004 14.5038C6.44776 14.5038 6.00004 14.0565 6.00004 13.5048C6.00004 12.9531 6.44776 12.5058 7.00004 12.5058C7.55233 12.5058 8.00004 12.9531 8.00004 13.5048Z" stroke="currentColor" stroke-linecap="round" stroke-linejoin="round"/>
</svg>
