<svg width="24" height="25" viewBox="0 0 24 25" fill="none" xmlns="http://www.w3.org/2000/svg">
<path d="M5 14.9995C3.89543 14.9995 3 14.1041 3 12.9995V11.569C3 10.5581 3.81949 9.73864 4.83038 9.73864C5.60263 9.73864 6.2918 9.25397 6.55294 8.52721L7.52437 5.82369C7.80971 5.02959 8.56274 4.5 9.40655 4.5H14.3122C15.1204 4.5 15.8491 4.98636 16.1592 5.73266L17.3357 8.56451C17.6311 9.27537 18.3252 9.73864 19.095 9.73864C20.1471 9.73864 21 10.5916 21 11.6437V12.9995C21 14.1041 20.1046 14.9995 19 14.9995M5 14.9995C5 15.8279 5.67157 16.5 6.5 16.5C7.32843 16.5 8 15.8284 8 15C8 14.1716 7.32843 13.5 6.5 13.5C5.67157 13.5 5 14.1711 5 14.9995ZM19 14.9995C19 15.8279 18.3284 16.5 17.5 16.5C16.6716 16.5 16 15.8284 16 15C16 14.1716 16.6716 13.5 17.5 13.5C18.3284 13.5 19 14.1711 19 14.9995ZM12 4.5V9.5M17.5 9L15.7389 9.44028C15.5802 9.47994 15.4173 9.5 15.2538 9.5L8.74621 9.5C8.58269 9.5 8.41978 9.47994 8.26114 9.44028L6.5 9M11 13.5V15.5M13 13.5V15.5M12 18.5V20.5M12 18.5C13.1046 18.5 14 17.6046 14 16.5V15.5H10V16.5C10 17.6046 10.8954 18.5 12 18.5Z" stroke="currentColor" stroke-linecap="round" stroke-linejoin="round"/>
</svg>
