<svg width="24" height="25" viewBox="0 0 24 25" fill="none" xmlns="http://www.w3.org/2000/svg">
<path d="M10 17.5L11.2929 16.2071C11.6834 15.8166 12.3166 15.8166 12.7071 16.2071L14 17.5M10 19.5L14 19.5M19.726 8.07089L9.99924 11.3401C9.60521 11.4702 9.18934 11.5217 8.77537 11.4917C8.36067 11.4603 7.95598 11.3492 7.58353 11.1647L4 9.36265L6.37568 8.56526L9.05532 9.46631L11.591 8.36591L7.95946 6.1731L8.95933 5.67075C9.14321 5.57549 9.34459 5.51855 9.55125 5.50333C9.7598 5.48995 9.96899 5.51701 10.1672 5.58304L14.0947 7.32139L16.8944 6.31667C17.2622 6.2235 17.6514 6.26599 17.9902 6.4363L19.782 7.33735C19.8526 7.3728 19.911 7.42826 19.9499 7.49679C19.9893 7.56425 20.0062 7.64247 19.998 7.72008C19.9934 7.79818 19.9656 7.87316 19.918 7.93539C19.8688 7.99846 19.802 8.04556 19.726 8.07089Z" stroke="currentColor" stroke-linecap="round" stroke-linejoin="round"/>
</svg>
