<svg width="24" height="25" viewBox="0 0 24 25" fill="none" xmlns="http://www.w3.org/2000/svg">
<path d="M16 6.5L17.2 7.4C17.7036 7.77771 18 8.37048 18 9V11M14 6.5H12M14 8.5H11M18 12.4998L18.0001 13.4998C18.0001 14.0521 18.4478 14.4998 19.0001 14.4998C19.5524 14.4998 20.0001 14.9475 20.0001 15.4998C20.0001 16.0521 19.5523 16.4998 19.0001 16.4998C18.4478 16.4998 18 16.9475 18 17.4998C18 18.0521 18.4478 18.4998 19.0001 18.4998C19.5523 18.4998 20.0001 18.9475 20.0001 19.4998C20.0001 20.0521 19.5524 20.4998 19.0001 20.4998H4M16 17.5V8.5M6.00001 8.5V17.5M7.00002 20.5H15C15.5523 20.5 16 20.0523 16 19.5V16.5C16 14.8431 14.6569 13.5 13 13.5H9.00002C7.34316 13.5 6.00001 14.8431 6.00001 16.5V19.5C6.00001 20.0523 6.44773 20.5 7.00002 20.5ZM7.00002 4.5H15C15.5523 4.5 16 4.94772 16 5.5V9.5C16 10.0523 15.5523 10.5 15 10.5H7.00002C6.44773 10.5 6.00001 10.0523 6.00001 9.5V5.5C6.00001 4.94772 6.44773 4.5 7.00002 4.5Z" stroke="currentColor" stroke-linecap="round" stroke-linejoin="round"/>
</svg>
