<svg width="24" height="25" viewBox="0 0 24 25" fill="none" xmlns="http://www.w3.org/2000/svg">
<path d="M15.5 17L8.49998 16.9995M4.99998 16.9995C3.9977 16.9995 3.27409 16.0402 3.54945 15.0765L5.58552 7.95053C5.83085 7.09194 6.61561 6.5 7.50856 6.5H14.3122C15.1204 6.5 15.8491 6.98636 16.1592 7.73266L17.3357 10.5645C17.631 11.2754 18.3252 11.7386 19.0949 11.7386C20.1471 11.7386 21 12.5916 21 13.6437V14.9995C21 16.1041 20.1046 16.9995 19 16.9995M4.99998 16.9995C4.99998 17.8279 5.67155 18.5 6.49998 18.5C7.32841 18.5 7.99998 17.8284 7.99998 17C7.99998 16.1716 7.32841 15.5 6.49998 15.5C5.67155 15.5 4.99998 16.1711 4.99998 16.9995ZM19 16.9995C19 17.8279 18.3284 18.5 17.5 18.5C16.6716 18.5 16 17.8284 16 17C16 16.1716 16.6716 15.5 17.5 15.5C18.3284 15.5 19 16.1711 19 16.9995ZM12 7V11.5M7.99998 6.5L6.99998 11M17.5 11L15.9782 11.7609C15.6649 11.9176 15.3159 11.9892 14.9663 11.9686L7.18642 11.511C7.0624 11.5037 6.93932 11.4848 6.81879 11.4547L4.99998 11M13 13.5H12" stroke="currentColor" stroke-linecap="round" stroke-linejoin="round"/>
</svg>
