<svg width="24" height="25" viewBox="0 0 24 25" fill="none" xmlns="http://www.w3.org/2000/svg">
<path d="M18.9296 6.5H4.43642M21 19L19.4241 19.3806C19.0956 19.4599 18.7584 19.5 18.4198 19.5H10.6478M13.2358 9.49961C17.3767 8.5 19.9648 12.0001 19.9648 14.5001M11.683 5.5V6.5M12.7182 17.5V19.5M17.8943 17.5V19.5M13.1994 9.49998L13.9066 12.2048C14.2795 13.6311 15.6078 14.6304 17.1307 14.6304H19.5143C20.296 14.6304 20.8942 15.3028 20.7767 16.0492C20.7074 16.4889 20.3985 16.8586 19.9682 17.0167L19.1343 17.323C18.8158 17.44 18.4779 17.5 18.1371 17.5H13.0901C11.8141 17.5 10.6722 16.735 10.2249 15.5806C9.84543 14.6011 8.95824 13.8883 7.89206 13.7063L4.10412 13.0597C3.64896 12.982 3.26778 12.6825 3.09644 12.2678C2.74644 11.4208 3.39231 10.5 4.33645 10.5L8.81049 10.5C9.57782 10.5 10.2385 9.97682 10.389 9.25L10.4339 9.03271C10.5583 8.43223 11.1041 8 11.738 8C12.3209 8 12.8358 8.36662 13.0083 8.90442L13.1994 9.49998ZM8.57732 12C8.57732 12.8284 7.88209 13.5 7.02448 13.5C6.16687 13.5 5.47164 12.8284 5.47164 12C5.47164 11.1716 6.16687 10.5 7.02448 10.5C7.88209 10.5 8.57732 11.1716 8.57732 12Z" stroke="currentColor" stroke-linecap="round" stroke-linejoin="round"/>
</svg>
