<svg width="24" height="25" viewBox="0 0 24 25" fill="none" xmlns="http://www.w3.org/2000/svg">
<path d="M19 17L20.4474 16.276C20.7861 16.1065 21 15.7603 21 15.3816V11.4353C21 11.0167 20.7392 10.6423 20.3464 10.4973L19.4033 10.149C19.1458 10.0539 18.9388 9.8571 18.8306 9.60481L18.0195 7.71216C17.7043 6.97679 16.9813 6.5 16.1812 6.5H5C3.89543 6.5 3 7.39543 3 8.5V15.9995C3 16.5518 3.44772 16.9995 4 16.9995H4.5M19 17C19 17.8284 18.3284 18.5 17.5 18.5C16.6716 18.5 16 17.8279 16 16.9995M19 17C19 16.1716 18.3284 15.5 17.5 15.5C16.6716 15.5 16 16.1711 16 16.9995M4.5 16.9995C4.5 17.8279 5.17157 18.5 6 18.5C6.82843 18.5 7.5 17.8279 7.5 16.9995M4.5 16.9995C4.5 16.1711 5.17157 15.5 6 15.5C6.82843 15.5 7.5 16.1711 7.5 16.9995M16 16.9995H7.5M9 11.5V10.559C9 10.2164 9.19357 9.90322 9.5 9.75C9.80643 9.59678 10 9.28359 10 8.94098V8.5L10.8944 8.94721C11.572 9.286 12 9.97852 12 10.7361V11.5M17 12.5H16M9 11.5715L10.5 15.0001L12 11.5715H9Z" stroke="currentColor" stroke-linecap="round" stroke-linejoin="round"/>
</svg>
