<svg width="24" height="25" viewBox="0 0 24 25" fill="none" xmlns="http://www.w3.org/2000/svg">
<path d="M3 14.5V15.9995C3 16.5518 3.44772 16.9995 4 16.9995H4.5M3 14.5C3 13.9477 3.44772 13.5 4 13.5H13V7.5C13 6.94772 13.4477 6.5 14 6.5M3 14.5V8.5C3 7.39543 3.89543 6.5 5 6.5H14M14 6.5H16.1812C16.9813 6.5 17.7043 6.97679 18.0195 7.71216L18.8306 9.60481C18.9388 9.8571 19.1458 10.0539 19.4033 10.149L20.3464 10.4973C20.7392 10.6423 21 11.0167 21 11.4353V15.3816C21 15.7603 20.7861 16.1065 20.4474 16.276L19 17M19 17C19 17.8284 18.3284 18.5 17.5 18.5C16.6716 18.5 16 17.8279 16 16.9995M19 17C19 16.1716 18.3284 15.5 17.5 15.5C16.6716 15.5 16 16.1711 16 16.9995M4.5 16.9995C4.5 17.8279 5.17157 18.5 6 18.5C6.82843 18.5 7.5 17.8279 7.5 16.9995M4.5 16.9995C4.5 16.1711 5.17157 15.5 6 15.5C6.82843 15.5 7.5 16.1711 7.5 16.9995M16 16.9995H7.5M17 12.5H16" stroke="currentColor" stroke-linecap="round" stroke-linejoin="round"/>
</svg>
