<svg width="24" height="25" viewBox="0 0 24 25" fill="none" xmlns="http://www.w3.org/2000/svg">
<path d="M9 16.5V15.5M15 16.5V15.5M20 17.5V10.5C20 7.18629 17.3137 4.5 14 4.5H10C6.68629 4.5 4 7.18629 4 10.5V17.5M18 13.3271C16.1472 14.0137 14.2837 12.426 12.1723 12.5027C10.0752 12.4266 7.83619 14.0141 6 13.3271M16.5 19L18 20.5M7.5 19L6 20.5M10 19.5H14C16.2091 19.5 18 17.7091 18 15.5V10.5C18 8.29086 16.2091 6.5 14 6.5H10C7.79086 6.5 6 8.29086 6 10.5V15.5C6 17.7091 7.79086 19.5 10 19.5Z" stroke="currentColor" stroke-linecap="round" stroke-linejoin="round"/>
</svg>
