<svg width="24" height="25" viewBox="0 0 24 25" fill="none" xmlns="http://www.w3.org/2000/svg">
<path d="M7 17V16M13 17V16M16 11.5V15.5C16 17.7091 14.2091 19.5 12 19.5H8C5.79086 19.5 4 17.7091 4 15.5V10.5C4 8.29086 5.79086 6.5 8 6.5H10M19 4.5V6M19 6H14M19 6C19.5523 6 20 6.44771 20 7V8C20 8.55228 19.5523 9 19 9H14C13.4477 9 13 8.55228 13 8V7C13 6.44771 13.4477 6 14 6M14 4.5V6M16 14.3271C14.1472 15.0137 12.2837 13.426 10.1723 13.5027C8.07517 13.4266 5.83619 15.0141 4 14.3271M14.5 19L16 20.5M5.5 19L4 20.5" stroke="currentColor" stroke-linecap="round" stroke-linejoin="round"/>
</svg>
