<svg width="24" height="25" viewBox="0 0 24 25" fill="none" xmlns="http://www.w3.org/2000/svg">
<path d="M14.5 16.5L8.99998 16.4995M8.99998 16.4995C8.99998 17.3279 8.32841 18 7.49998 18C6.67155 18 5.99998 17.3279 5.99998 16.4995M8.99998 16.4995C8.99998 15.6711 8.32841 15 7.49998 15C6.67155 15 5.99998 15.6711 5.99998 16.4995M5.99998 16.4995C4.9977 16.4995 4.27409 15.5402 4.54945 14.5765L6.58552 7.45053C6.83085 6.59194 7.61561 6 8.50856 6H13.3122C14.1204 6 14.8491 6.48636 15.1592 7.23266L16.3357 10.0645C16.631 10.7754 17.3252 11.2386 18.0949 11.2386C19.1471 11.2386 20 12.0916 20 13.1437V14.4995C20 15.6041 19.1045 16.4995 18 16.4995M18 16.4995C18 17.3279 17.3284 18 16.5 18C15.6715 18 15 17.3284 15 16.5C15 15.6716 15.6715 15 16.5 15C17.3284 15 18 15.6711 18 16.4995ZM9.49998 6L8.49998 11.5M5.49998 11.5L14.0278 11.5C14.3383 11.5 14.6446 11.4277 14.9223 11.2889L16.5 10.5M11 13.5H9.99998" stroke="currentColor" stroke-linecap="round" stroke-linejoin="round"/>
</svg>
