<svg width="24" height="25" viewBox="0 0 24 25" fill="none" xmlns="http://www.w3.org/2000/svg">
<path d="M19 17H20C20.5523 17 21 16.5523 21 16V13.8212C21 13.0257 20.5087 12.313 19.7653 12.03C19.265 11.8395 18.8279 11.5132 18.5031 11.0878L15.6003 7.28625C15.222 6.79074 14.6342 6.5 14.0108 6.5H12.1176C11.5654 6.5 11.1176 6.94771 11.1176 7.5V10.7386C11.1176 11.2909 10.6699 11.7386 10.1176 11.7386H8.89216C8.70806 11.7386 8.55882 11.5894 8.55882 11.4053C8.55882 11.0371 8.26035 10.7386 7.89216 10.7386H5C3.89543 10.7386 3 11.6341 3 12.7386V15.9995C3 16.5518 3.44772 16.9995 4 16.9995H4.5M19 17C19 17.8284 18.3284 18.5 17.5 18.5C16.6716 18.5 16 17.8279 16 16.9995M19 17C19 16.1716 18.3284 15.5 17.5 15.5C16.6716 15.5 16 16.1711 16 16.9995M4.5 16.9995C4.5 17.8279 5.17157 18.5 6 18.5C6.82843 18.5 7.5 17.8279 7.5 16.9995M4.5 16.9995C4.5 16.1711 5.17157 15.5 6 15.5C6.82843 15.5 7.5 16.1711 7.5 16.9995M16 16.9995H7.5M14 11.5H13" stroke="currentColor" stroke-linecap="round" stroke-linejoin="round"/>
</svg>
