<svg width="24" height="25" viewBox="0 0 24 25" fill="none" xmlns="http://www.w3.org/2000/svg">
<path d="M18.5 16L12.75 6.5H11.5M6.22222 16.0002L9.06647 14.8825C10.5326 14.3064 10.6825 12.473 9.17305 12.0226C8.24656 11.7461 7.28703 11.5584 6.39182 11.4706C5.14874 11.3487 4 10.3664 4 9.1174V9.07243L9.5 10.0003C10.8637 8.69496 12.3282 8.37799 13.5392 8.87982C14.169 9.14081 14.901 9.25954 15.4855 8.9087V8.9087C16.152 8.50878 17 8.9889 17 9.76619V11M10 14.6571L10.2784 15.0871C10.647 15.6563 11.279 16 11.9572 16H12.913C12.4783 12.8662 15.9565 9.73204 19 11.523M21 16C21 17.3807 19.8807 18.5 18.5 18.5C17.1193 18.5 16 17.3807 16 16C16 14.6193 17.1193 13.5 18.5 13.5C19.8807 13.5 21 14.6193 21 16ZM8 16C8 17.3807 6.88071 18.5 5.5 18.5C4.11929 18.5 3 17.3807 3 16C3 14.6193 4.11929 13.5 5.5 13.5C6.88071 13.5 8 14.6193 8 16Z" stroke="currentColor" stroke-linecap="round" stroke-linejoin="round"/>
</svg>
