<svg width="24" height="25" viewBox="0 0 24 25" fill="none" xmlns="http://www.w3.org/2000/svg">
<path d="M14.5002 17.5H9.50024M12.0002 14.5C12.7914 14.5 13.5647 14.2654 14.2225 13.8259C14.8803 13.3864 15.393 12.7616 15.6957 12.0307C15.9985 11.2998 16.0777 10.4955 15.9234 9.71958C15.7691 8.94366 15.3881 8.23102 14.8287 7.67161C14.2693 7.1122 13.5565 6.73122 12.7806 6.57688C12.0047 6.42254 11.2004 6.50167 10.4695 6.80442C9.73858 7.10717 9.1139 7.61989 8.67438 8.27769C8.23485 8.93548 8.00024 9.70885 8.00024 10.5M12.0002 14.5C10.9394 14.5 9.92196 14.0785 9.17181 13.3283C8.42167 12.5782 8.00024 11.5608 8.00024 10.5M12.0002 14.5C12.8282 14.5 13.5002 12.71 13.5002 10.5C13.5002 8.29 12.8282 6.5 12.0002 6.5C11.1722 6.5 10.5002 8.29 10.5002 10.5C10.5002 12.71 11.1732 14.5 12.0002 14.5ZM8.00024 10.5L16.0002 10.5M13.5002 19.5H10.5002M7.00024 21.5H17.0002C18.6571 21.5 20.0002 20.1569 20.0002 18.5V6.5C20.0002 4.84315 18.6571 3.5 17.0002 3.5H7.00024C5.34339 3.5 4.00024 4.84315 4.00024 6.5V18.5C4.00024 20.1569 5.34339 21.5 7.00024 21.5Z" stroke="currentColor" stroke-linecap="round" stroke-linejoin="round"/>
</svg>
