<svg width="24" height="25" viewBox="0 0 24 25" fill="none" xmlns="http://www.w3.org/2000/svg">
<path d="M16 16.9995H7.5M16 16.9995C16 17.8279 16.6716 18.5 17.5 18.5C18.3284 18.5 19 17.8284 19 17M16 16.9995C16 16.1711 16.6716 15.5 17.5 15.5C18.3284 15.5 19 16.1716 19 17M7.5 16.9995C7.5 17.8279 6.82843 18.5 6 18.5C5.17157 18.5 4.5 17.8279 4.5 16.9995M7.5 16.9995C7.5 16.1711 6.82843 15.5 6 15.5C5.17157 15.5 4.5 16.1711 4.5 16.9995M4.5 16.9995C3.67157 16.9995 3 16.3279 3 15.4995V8.5C3 7.39543 3.89543 6.5 5 6.5H19C20.1046 6.5 21 7.39543 21 8.5V15C21 16.1046 20.1046 17 19 17M17 13.5H16M18 6.5V10.5C18 11.6046 18.8954 12.5 20 12.5H21" stroke="currentColor" stroke-linecap="round" stroke-linejoin="round"/>
</svg>
