<svg width="24" height="25" viewBox="0 0 24 25" fill="none" xmlns="http://www.w3.org/2000/svg">
<path d="M18.0001 16.0001L18.6211 16C19.4513 15.9998 20.1951 15.4867 20.4901 14.7107L20.9695 13.4495C21.4671 12.1406 20.5003 10.7388 19.1001 10.7388H18.1156C17.4222 10.7388 16.7783 10.3796 16.4139 9.78962L15.5862 8.44926C15.2219 7.85929 14.5779 7.50012 13.8845 7.50012H13.6471M18.0001 16.0001C18.0001 16.8285 17.3285 17.5001 16.5001 17.5001C15.6716 17.5001 15.0001 16.8285 15.0001 16.0001M18.0001 16.0001C18.0001 15.1717 17.3285 14.5001 16.5001 14.5001C15.6716 14.5001 15.0001 15.1717 15.0001 16.0001M5.00006 15.9996H4.90004C3.49978 15.9996 2.53299 14.5978 3.03057 13.2889L3.50991 12.0281C3.80499 11.2519 4.54899 10.7388 5.37938 10.7388H14.5001M5.00006 15.9996C5.00006 16.8281 5.67163 17.5001 6.50006 17.5001C7.32848 17.5001 8.00006 16.8281 8.00006 15.9996M5.00006 15.9996C5.00006 15.1712 5.67163 14.5001 6.50006 14.5001C7.32848 14.5001 8.00006 15.1712 8.00006 15.9996M15.0001 16.0001L8.00006 15.9996M13.0001 12.5001H12.0001M11.0001 10.5001L10.5001 9.50006M7.00006 10.5001L6.50006 9.50006" stroke="currentColor" stroke-linecap="round" stroke-linejoin="round"/>
</svg>
