<svg width="24" height="25" viewBox="0 0 24 25" fill="none" xmlns="http://www.w3.org/2000/svg">
<path d="M15 6.5H16.6327C17.1304 6.5 17.5523 6.86593 17.6227 7.35858L18.3369 12.3586C18.423 12.961 17.9432 13.4905 17.3674 13.6873C16.2973 14.0531 15.4609 14.9227 15.141 16.0132C14.9856 16.5432 14.5523 17 14 17H4M20 17C20 17.8284 19.3284 18.5 18.5 18.5C17.6716 18.5 17 17.8284 17 17C17 16.1716 17.6716 15.5 18.5 15.5C19.3284 15.5 20 16.1716 20 17ZM8.5 17C8.5 17.8284 7.82843 18.5 7 18.5C6.17157 18.5 5.5 17.8284 5.5 17C5.5 16.1716 6.17157 15.5 7 15.5C7.82843 15.5 8.5 16.1716 8.5 17Z" stroke="currentColor" stroke-linecap="round" stroke-linejoin="round"/>
</svg>
