<svg width="24" height="25" viewBox="0 0 24 25" fill="none" xmlns="http://www.w3.org/2000/svg">
<path d="M18.6586 14.5C18.8797 13.8532 19 13.1571 19 12.432V12.1176C19 11.3302 18.5676 10.6112 17.8846 10.2629L12.8846 7.71328C12.3269 7.42891 11.6731 7.42891 11.1154 7.71328L6.11538 10.2629C5.43243 10.6112 5 11.3302 5 12.1176V12.432C5 13.1571 5.12031 13.8532 5.34142 14.5M17 9.77492V7.5C17 6.39543 16.1046 5.5 15 5.5H9C7.89543 5.5 7 6.39543 7 7.5V9.77492M13 5.5V4.5C13 3.94772 12.5523 3.5 12 3.5C11.4477 3.5 11 3.94772 11 4.5V5.5M12 7.5V14.5M4 16.5L5.59506 17.6474C6.72226 18.4583 8.10287 18.5448 9.29225 17.8793L10.091 17.4325C11.1491 16.8404 12.366 16.8404 13.4242 17.4325L14.5386 18.056C15.548 18.6207 16.7042 18.6479 17.7306 18.131L20 16.9883M17.7307 21.1309C16.7043 21.6477 15.5481 21.6205 14.5388 21.0558L13.4243 20.4323C12.3662 19.8403 11.1493 19.8403 10.0911 20.4323L9.29241 20.8792C8.10302 21.5446 6.72242 21.4581 5.59521 20.6472" stroke="currentColor" stroke-linecap="round" stroke-linejoin="round"/>
</svg>
