<svg width="24" height="25" viewBox="0 0 24 25" fill="none" xmlns="http://www.w3.org/2000/svg">
<path d="M14 16.5V8.5" stroke="currentColor" stroke-linecap="round" stroke-linejoin="round" stroke-dasharray="2 2"/>
<path d="M12 19.5V19.167C12 18.0624 12.8954 17.167 14 17.167C15.1046 17.167 16 18.0624 16 19.167C16 19.3509 16.1491 19.5 16.333 19.5H17C18.6569 19.5 20 18.1569 20 16.5V8.5C20 6.84315 18.6569 5.5 17 5.5H16.3337C16.1494 5.5 16 5.64938 16 5.83366C16 6.93823 15.1046 7.83366 14 7.83366C12.8954 7.83366 12 6.93823 12 5.83366C12 5.64938 11.8506 5.5 11.6663 5.5H7C5.34315 5.5 4 6.84315 4 8.5V16.5C4 19 4.84315 19.5 6.5 19.5H7C8.10457 19.5 9 18.6046 9 17.5V16M8.99993 13.5V10.0718M8.99993 10.0718L6.5 12.643M8.99993 10.0718L11.5 12.643" stroke="currentColor" stroke-linecap="round" stroke-linejoin="round"/>
</svg>
