<svg width="24" height="25" viewBox="0 0 24 25" fill="none" xmlns="http://www.w3.org/2000/svg">
<path d="M11.6663 5.5C11.8506 5.5 12 5.64938 12 5.83366C12 6.93823 12.8954 7.83366 14 7.83366C15.1046 7.83366 16 6.93823 16 5.83366C16 5.64938 16.1494 5.5 16.3337 5.5H17C18.6569 5.5 20 6.84315 20 8.5V16.5C20 18.1569 18.6569 19.5 17 19.5H16.333C16.1491 19.5 16 19.3509 16 19.167C16 18.0624 15.1046 17.167 14 17.167C12.8954 17.167 12 18.0624 12 19.167C12 19.3509 11.8509 19.5 11.667 19.5H7C5.34315 19.5 4 18.1569 4 16.5V8.5C4 6.84315 5.34315 5.5 7 5.5H11.6663Z" stroke="currentColor" stroke-linecap="round" stroke-linejoin="round"/>
<path d="M14 16.5V8.5" stroke="currentColor" stroke-linecap="round" stroke-linejoin="round" stroke-dasharray="2 2"/>
</svg>
