<svg width="24" height="25" viewBox="0 0 24 25" fill="none" xmlns="http://www.w3.org/2000/svg">
<path d="M15 16.5V8.5" stroke="currentColor" stroke-linecap="round" stroke-linejoin="round" stroke-dasharray="2 2"/>
<path d="M5 16.5C5 18.1569 6.34315 19.5 8 19.5H12.667C12.8509 19.5 13 19.3509 13 19.167C13 18.0624 13.8954 17.167 15 17.167C16.1046 17.167 17 18.0624 17 19.167C17 19.3509 17.1491 19.5 17.333 19.5H18C19.6569 19.5 21 18.1569 21 16.5V8.5C21 6.84315 19.6569 5.5 18 5.5H17.3337C17.1494 5.5 17 5.64938 17 5.83366C17 6.93823 16.1046 7.83366 15 7.83366C13.8954 7.83366 13 6.93823 13 5.83366C13 5.64938 12.8506 5.5 12.6663 5.5H8C6.34315 5.5 5 6.84315 5 8.5M9 10L5.75098 11.6699M5.75098 13.3301L9 15M10.5 17C10.7967 17 11.0867 16.912 11.3333 16.7472C11.58 16.5824 11.7723 16.3481 11.8858 16.074C11.9994 15.7999 12.0291 15.4984 11.9712 15.2074C11.9133 14.9165 11.7704 14.6491 11.5607 14.4394C11.3509 14.2296 11.0836 14.0867 10.7926 14.0288C10.5017 13.971 10.2001 14.0006 9.92596 14.1142C9.65188 14.2277 9.41763 14.42 9.25281 14.6667C9.08799 14.9133 9 15.2034 9 15.5C9 15.8978 9.15803 16.2794 9.43933 16.5607C9.72064 16.842 10.1022 17 10.5 17ZM10.5 11C10.7967 11 11.0867 10.912 11.3333 10.7472C11.58 10.5824 11.7723 10.3481 11.8858 10.074C11.9994 9.79991 12.0291 9.49839 11.9712 9.20742C11.9133 8.91645 11.7704 8.64913 11.5607 8.43935C11.3509 8.22958 11.0836 8.08671 10.7926 8.02883C10.5017 7.97095 10.2001 8.00063 9.92596 8.11416C9.65188 8.22769 9.41763 8.41998 9.25281 8.66665C9.08799 8.91332 9 9.20335 9 9.50002C9 9.89785 9.15803 10.2794 9.43933 10.5607C9.72064 10.842 10.1022 11 10.5 11ZM4.5 14C4.79667 14 5.08667 13.912 5.33334 13.7472C5.58002 13.5824 5.7723 13.3481 5.88583 13.074C5.99937 12.7999 6.02907 12.4984 5.97119 12.2074C5.91331 11.9164 5.77045 11.6491 5.56067 11.4394C5.35089 11.2296 5.0836 11.0867 4.79263 11.0288C4.50166 10.971 4.20005 11.0006 3.92596 11.1142C3.65188 11.2277 3.41763 11.42 3.25281 11.6666C3.08799 11.9133 3 12.2034 3 12.5C3 12.8978 3.15803 13.2794 3.43933 13.5607C3.72064 13.842 4.10218 14 4.5 14Z" stroke="currentColor" stroke-linecap="round" stroke-linejoin="round"/>
</svg>
