<svg width="24" height="25" viewBox="0 0 24 25" fill="none" xmlns="http://www.w3.org/2000/svg">
<path d="M19 17L20.4474 16.276C20.7861 16.1065 21 15.7603 21 15.3816V11.4353C21 11.0167 20.7392 10.6423 20.3464 10.4973L19.4033 10.149C19.1458 10.0539 18.9388 9.8571 18.8306 9.60481L18.0195 7.71216C17.7043 6.97679 16.9813 6.5 16.1812 6.5H14.5C13.9477 6.5 13.5 6.94772 13.5 7.5V12.5C13.5 13.0523 13.0523 13.5 12.5 13.5H4C3.44772 13.5 3 13.9477 3 14.5V15.9995C3 16.5518 3.44772 16.9995 4 16.9995H4.5M19 17C19 17.8284 18.3284 18.5 17.5 18.5C16.6716 18.5 16 17.8279 16 16.9995M19 17C19 16.1716 18.3284 15.5 17.5 15.5C16.6716 15.5 16 16.1711 16 16.9995M4.5 16.9995C4.5 17.8279 5.17157 18.5 6 18.5C6.82843 18.5 7.5 17.8284 7.5 17C7.5 16.1716 6.82843 15.5 6 15.5C5.17157 15.5 4.5 16.1711 4.5 16.9995ZM16 16.9995H11M11 16.9995C11 17.8279 10.3284 18.5 9.5 18.5C8.67157 18.5 8 17.8284 8 17C8 16.1716 8.67157 15.5 9.5 15.5C10.3284 15.5 11 16.1711 11 16.9995ZM17 12.5H16" stroke="currentColor" stroke-linecap="round" stroke-linejoin="round"/>
</svg>
