<svg width="24" height="25" viewBox="0 0 24 25" fill="none" xmlns="http://www.w3.org/2000/svg">
<path d="M9.70742 16.2061C9.89497 16.5979 10 17.0367 10 17.5C10 19.1569 8.65685 20.5 7 20.5C5.34315 20.5 4 19.1569 4 17.5C4 15.8431 5.34315 14.5 7 14.5C7.46332 14.5 7.9021 14.605 8.29385 14.7926M6 17.5C6 18.0523 6.44771 18.5 7 18.5M7 6.5C6.44771 6.5 6 6.94771 6 7.5M18 7.5C18 6.94771 17.5523 6.5 17 6.5M17 18.5C17.5523 18.5 18 18.0523 18 17.5M8.29341 10.2076C7.90178 10.395 7.46315 10.5 7 10.5C5.34315 10.5 4 9.15685 4 7.5C4 5.84315 5.34315 4.5 7 4.5C8.65685 4.5 10 5.84315 10 7.5C10 7.96315 9.89505 8.40178 9.70763 8.79341M14.2924 16.2066C14.1049 16.5982 14 17.0369 14 17.5C14 19.1569 15.3431 20.5 17 20.5C18.6569 20.5 20 19.1569 20 17.5C20 15.8431 18.6569 14.5 17 14.5C16.5369 14.5 16.0982 14.6049 15.7066 14.7924M15.7061 10.2074C16.0979 10.395 16.5367 10.5 17 10.5C18.6569 10.5 20 9.15685 20 7.5C20 5.84315 18.6569 4.5 17 4.5C15.3431 4.5 14 5.84315 14 7.5C14 7.96332 14.105 8.4021 14.2926 8.79385M14.8283 8.25725C15.2188 7.86672 15.852 7.86672 16.2425 8.25725C16.6331 8.64777 16.6331 9.28094 16.2425 9.67146L14.8283 11.0857C14.0473 11.8667 14.0473 13.1331 14.8283 13.9141L16.2425 15.3283C16.6331 15.7188 16.6331 16.352 16.2425 16.7425C15.852 17.1331 15.2188 17.1331 14.8283 16.7425L13.4141 15.3283C12.6331 14.5473 11.3667 14.5473 10.5857 15.3283L9.17146 16.7425C8.78094 17.1331 8.14777 17.1331 7.75725 16.7425C7.36672 16.352 7.36672 15.7188 7.75725 15.3283L9.17146 13.9141C9.95251 13.1331 9.95251 11.8667 9.17146 11.0857L7.75725 9.67146C7.36672 9.28094 7.36672 8.64777 7.75725 8.25725C8.14777 7.86672 8.78094 7.86672 9.17146 8.25725L10.5857 9.67146C11.3667 10.4525 12.6331 10.4525 13.4141 9.67146L14.8283 8.25725Z" stroke="currentColor" stroke-linecap="round" stroke-linejoin="round"/>
</svg>
