<svg width="24" height="25" viewBox="0 0 24 25" fill="none" xmlns="http://www.w3.org/2000/svg">
<path d="M16.9999 16.5019C16.9999 17.6054 17.8954 18.5 18.9999 18.5C20.1045 18.5 20.9999 17.6054 20.9999 16.5019C20.9999 15.3985 20.1045 14.5039 18.9999 14.5039M19.4999 7.81056C19.9301 7.64941 20.1331 7.19123 19.9301 6.82253C19.7481 6.49177 19.346 6.43999 18.9999 6.55665M8.99992 16.502C8.99992 17.6054 8.10449 18.5 6.99992 18.5C5.89535 18.5 4.99992 17.6054 4.99992 16.502M4.99992 16.502L5.17567 16.5019C5.39043 16.5019 5.6038 16.5365 5.80756 16.6043L6.36803 16.791C6.77822 16.9276 7.22162 16.9276 7.63181 16.791L8.19228 16.6043C8.39604 16.5365 8.6094 16.5019 8.82417 16.5019H12.9999M4.99992 16.502C3.89535 16.502 2.96761 15.5975 3.1669 14.5111C3.59463 12.1792 4.88478 10.5078 7.49992 10.5078M10.4999 16.5018H14.4999M14.4999 16.5018H18.0232C18.7308 16.5018 19.2137 15.787 18.9507 15.1301L18.8422 14.8591C18.6488 14.3761 18.8582 13.8254 19.3237 13.5928L19.5457 13.4819C20.0625 13.2238 20.2537 12.5828 19.9628 12.0838L16.9999 7M14.4999 16.5018C18.5755 16.5018 16.4999 10.5 16.9999 7M14.4999 16.5018C11.9999 16.5018 11.8136 10.5078 8.49992 10.5078M16.9999 7L16.3184 6.77816C15.8479 6.625 15.3361 6.83899 15.1147 7.28149L14.9999 7.51073M11.9999 13.5048L12.5606 11.8243C12.7767 11.1767 12.2947 10.5078 11.6121 10.5078H5.49992C4.94763 10.5078 4.49992 10.0601 4.49992 9.50779V8.50977M7.99992 13.5049C7.99992 14.0566 7.5522 14.5039 6.99992 14.5039C6.44763 14.5039 5.99992 14.0566 5.99992 13.5049C5.99992 12.9531 6.44763 12.5059 6.99992 12.5059C7.5522 12.5059 7.99992 12.9531 7.99992 13.5049Z" stroke="currentColor" stroke-linecap="round" stroke-linejoin="round"/>
</svg>
