<svg width="24" height="25" viewBox="0 0 24 25" fill="none" xmlns="http://www.w3.org/2000/svg">
<path d="M11.5 4.52469C8.97334 4.77555 7 6.90733 7 9.5C7 10.6689 6.3964 11.9691 5.69602 12.905C5.25889 13.4891 5 14.2143 5 15C5 16.933 6.567 18.5 8.5 18.5H15.5C17.433 18.5 19 16.933 19 15C19 14.2143 18.7411 13.4891 18.304 12.905C18.1407 12.6868 17.9827 12.4488 17.8363 12.1972M14.6123 8.1123L15.5003 7.50024V6.40625M14 18.5C14 19.6046 13.1046 20.5 12 20.5C10.8954 20.5 10 19.6046 10 18.5M15.5 10.5C16.0933 10.5 16.6733 10.324 17.1667 9.9944C17.66 9.66475 18.0446 9.19626 18.2717 8.64808C18.4987 8.0999 18.5581 7.49663 18.4424 6.91469C18.3266 6.33274 18.0409 5.79823 17.6213 5.37867C17.2018 4.95912 16.6672 4.67339 16.0853 4.55763C15.5033 4.44187 14.9001 4.50134 14.3519 4.72841C13.8038 4.95547 13.3353 5.33992 13.0056 5.83326C12.676 6.32661 12.5 6.90667 12.5 7.50001C12.5 8.29566 12.8161 9.05874 13.3787 9.62135C13.9413 10.184 14.7044 10.5 15.5 10.5Z" stroke="currentColor" stroke-linecap="round" stroke-linejoin="round"/>
</svg>
