<svg width="24" height="25" viewBox="0 0 24 25" fill="none" xmlns="http://www.w3.org/2000/svg">
<path d="M11.5 4.52466C8.97334 4.77552 7 6.9073 7 9.49997C7 10.6689 6.3964 11.9691 5.69602 12.9049C5.25889 13.489 5 14.2143 5 15C5 16.933 6.567 18.5 8.5 18.5H15.5C17.433 18.5 19 16.933 19 15C19 14.2143 18.7411 13.4891 18.304 12.9049C18.1407 12.6867 17.9827 12.4487 17.8363 12.1972M14 18.5C14 19.6045 13.1046 20.5 12 20.5C10.8954 20.5 10 19.6045 10 18.5M14.2053 5.66177C13.5957 5.97141 13.3591 6.6668 13.5829 7.33842C13.9175 8.34278 16 9.49976 16 9.49976C16 9.49976 18.0824 8.34278 18.4171 7.33842C18.6408 6.66679 18.4046 5.97172 17.795 5.66182C16.5662 5.03726 16 6.41946 16 6.41946C16 6.41946 15.4346 5.03729 14.2053 5.66177Z" stroke="currentColor" stroke-linecap="round" stroke-linejoin="round"/>
</svg>
