<svg width="24" height="25" viewBox="0 0 24 25" fill="none" xmlns="http://www.w3.org/2000/svg">
<path d="M12 4.5C9.23858 4.5 7 6.73858 7 9.5C7 10.6689 6.3964 11.9691 5.69602 12.905C5.25889 13.4891 5 14.2143 5 15C5 16.933 6.567 18.5 8.5 18.5H15.5C17.433 18.5 19 16.933 19 15C19 14.2143 18.7411 13.4891 18.304 12.905C17.8967 12.3607 17.5221 11.6932 17.2799 11M14 18.5C14 19.6046 13.1046 20.5 12 20.5C10.8954 20.5 10 19.6046 10 18.5M18 6.5C18 7.60457 17.1046 8.5 16 8.5C14.8954 8.5 14 7.60457 14 6.5C14 5.39543 14.8954 4.5 16 4.5C17.1046 4.5 18 5.39543 18 6.5Z" stroke="currentColor" stroke-linecap="round" stroke-linejoin="round"/>
</svg>
