<svg width="24" height="25" viewBox="0 0 24 25" fill="none" xmlns="http://www.w3.org/2000/svg">
<path d="M14 18.5C14 19.6046 13.1046 20.5 12 20.5C10.8954 20.5 10 19.6046 10 18.5M8.5 18.5C6.567 18.5 5 16.933 5 15C5 14.2143 5.25889 13.4891 5.69602 12.905C6.3964 11.9691 7 10.6689 7 9.5C7 6.73858 9.23858 4.5 12 4.5C14.7614 4.5 17 6.73858 17 9.5C17 10.6689 17.6036 11.9691 18.304 12.905C18.7411 13.4891 19 14.2143 19 15C19 16.933 17.433 18.5 15.5 18.5H8.5Z" stroke="currentColor" stroke-linecap="round" stroke-linejoin="round"/>
</svg>
