<svg width="24" height="25" viewBox="0 0 24 25" fill="none" xmlns="http://www.w3.org/2000/svg">
<path d="M10 4.91604C8.2341 5.6876 7 7.44968 7 9.5C7 10.6689 6.3964 11.9691 5.69602 12.905C5.25889 13.4891 5 14.2143 5 15C5 16.933 6.567 18.5 8.5 18.5H15.5C17.433 18.5 19 16.933 19 15C19 14.2143 18.7411 13.4891 18.304 12.905C18.2291 12.8049 18.1553 12.7006 18.0832 12.5928M16.8114 4.94189C17.4377 5.23945 17.9384 5.73933 18.228 6.35617C18.5176 6.97301 18.5781 7.66854 18.3992 8.32396C18.2203 8.97938 17.8131 9.55404 17.2471 9.9498C16.6811 10.3456 15.9915 10.5378 15.2959 10.4938C14.904 10.4695 14.521 10.3696 14.1691 10.2001C13.7846 10.0129 13.4456 9.74796 13.1748 9.42306C12.9039 9.09816 12.7075 8.72076 12.5986 8.31608C12.4897 7.9114 12.4707 7.48875 12.5431 7.07639C12.6155 6.66403 12.7775 6.27146 13.0183 5.92489C13.3401 5.46044 13.8125 5.0625 14.375 4.7513M14.375 4.7513C13.6428 4.65316 12.5 4.5 12.5 4.5M14.375 4.7513C14.2793 5.53184 14.13 6.75 14.13 6.75M14 18.5C14 19.6046 13.1046 20.5 12 20.5C10.8954 20.5 10 19.6046 10 18.5" stroke="currentColor" stroke-linecap="round" stroke-linejoin="round"/>
</svg>
