<svg width="24" height="25" viewBox="0 0 24 25" fill="none" xmlns="http://www.w3.org/2000/svg">
<path d="M17.4057 17.9362C16.8574 18.2928 16.2029 18.5 15.5 18.5H8.5C6.567 18.5 5 16.933 5 15C5 14.2143 5.25889 13.4891 5.69602 12.905C6.3964 11.9691 7 10.6689 7 9.5C7 8.90463 7.10406 8.33356 7.29498 7.80399M18.8551 16C18.9494 15.6831 19 15.3475 19 15C19 14.2143 18.7411 13.4891 18.304 12.905C17.6036 11.9691 17 10.6689 17 9.5C17 6.73858 14.7614 4.5 12 4.5C10.6373 4.5 9.40187 5.04516 8.5 5.92928M4 4.5L20 20.5M14 18.5C14 19.6046 13.1046 20.5 12 20.5C10.8954 20.5 10 19.6046 10 18.5" stroke="currentColor" stroke-linecap="round" stroke-linejoin="round"/>
</svg>
