<svg width="24" height="25" viewBox="0 0 24 25" fill="none" xmlns="http://www.w3.org/2000/svg">
<path d="M12 10.5V14.5M10 12.5H14M19 7.69017L18.2748 15.4857C18.181 16.4946 17.6148 17.3923 16.7591 17.8891L12.4902 20.3675C12.1858 20.5442 11.8142 20.5442 11.5098 20.3675L7.24095 17.8891C6.38518 17.3923 5.81905 16.4946 5.72519 15.4857L5 7.69017C5 7.69017 7.5957 7.44674 9 6.5431C9.84149 6.00162 10.7203 5.2739 11.3076 4.76048C11.7048 4.41317 12.2952 4.41317 12.6924 4.76048C13.2797 5.2739 14.1585 6.00162 15 6.5431C16.4043 7.44674 19 7.69017 19 7.69017Z" stroke="currentColor" stroke-linecap="round" stroke-linejoin="round"/>
</svg>
