<svg width="24" height="25" viewBox="0 0 24 25" fill="none" xmlns="http://www.w3.org/2000/svg">
<path d="M14 16.5H7C4.79086 16.5 3 14.7091 3 12.5V10.5C3 8.29086 4.79086 6.5 7 6.5H15C17.2091 6.5 19 8.29086 19 10.5V11.5M18 15.5L19.5 17M19.5 17L21 18.5M19.5 17L21 15.5M19.5 17L18 18.5M16 11.5L14 11.5M14.2929 12.5L15.7071 10.5M14.2928 10.5001L15.707 12.4999M12 11.5L10 11.5M10.2929 12.5L11.7071 10.5M10.2928 10.5001L11.707 12.4999M8 11.5L6 11.5M6.29289 12.5L7.70711 10.5M6.29282 10.5001L7.70704 12.4999" stroke="currentColor" stroke-linecap="round" stroke-linejoin="round"/>
</svg>
