<svg width="24" height="25" viewBox="0 0 24 25" fill="none" xmlns="http://www.w3.org/2000/svg">
<path d="M19 14.1162V18.5M5 14.4601V11.5403C5 9.6732 5.7211 7.88261 7.00469 6.5624C8.28827 5.24219 10.0292 4.50045 11.8444 4.50045H12C12.9091 4.48989 13.8112 4.66359 14.655 5.01167C15.4988 5.35974 16.2676 5.87538 16.9177 6.5291C17.5677 7.18281 18.0862 7.96178 18.4434 8.8216C18.8007 9.68141 18.9898 10.6053 19 11.5403M7.93065 10.1964C7.79291 10.6248 7.72254 11.0731 7.7222 11.5244V16.2762C7.72179 16.4601 7.75672 16.6423 7.82498 16.8124C7.89324 16.9824 7.9935 17.137 8.11997 17.2671C8.24644 17.3971 8.39661 17.5003 8.56193 17.5705C8.72725 17.6407 8.90446 17.6765 9.08331 17.6761C9.26217 17.6765 9.43937 17.6407 9.6047 17.5705C9.77002 17.5003 9.92019 17.3971 10.0467 17.2671C10.1731 17.137 10.2734 16.9824 10.3416 16.8124C10.4099 16.6423 10.4448 16.4601 10.4444 16.2762V11.5484C10.444 11.3644 10.4789 11.1821 10.5472 11.0121C10.6155 10.842 10.7157 10.6876 10.8422 10.5575C10.9687 10.4274 11.1188 10.3243 11.2842 10.2541C11.4495 10.1839 11.6267 10.148 11.8055 10.1484C11.9844 10.1479 12.1616 10.1837 12.327 10.2539C12.4924 10.3241 12.6426 10.4271 12.7691 10.5572C12.8956 10.6873 12.9958 10.8419 13.0641 11.012C13.1323 11.1821 13.1672 11.3644 13.1666 11.5484V16.3002C13.1656 17.4137 12.7351 18.4813 11.9696 19.2687C11.204 20.0561 10.166 20.499 9.08331 20.5C8.20564 20.4985 7.35166 20.2069 6.64739 19.6682C5.94312 19.1295 5.42586 18.3723 5.17188 17.5082M14.9066 20.5C15.4869 19.6761 15.8276 18.6995 15.889 17.6841V11.5243C15.8883 10.4108 15.458 9.34306 14.6926 8.55559C13.9271 7.76813 12.889 7.32533 11.8064 7.32448C11.0706 7.32224 10.3482 7.52694 9.71729 7.91645" stroke="currentColor" stroke-linecap="round" stroke-linejoin="round"/>
</svg>
