<svg width="24" height="25" viewBox="0 0 24 25" fill="none" xmlns="http://www.w3.org/2000/svg">
<path d="M16.7875 14.3027L15.1932 12.7084C14.8091 12.3243 14.6982 11.7554 14.7854 11.2193C15.0309 9.70923 14.5715 8.10682 13.4071 6.94243C11.4838 5.01919 8.36566 5.01919 6.44243 6.94243C4.51919 8.86566 4.51919 11.9838 6.44243 13.9071C7.60682 15.0715 9.20923 15.5309 10.7193 15.2854C11.2554 15.1982 11.8243 15.3091 12.2084 15.6932L15.397 18.8818C16.2212 19.7061 17.5576 19.7061 18.3818 18.8818C19.2061 18.0576 19.2061 16.7212 18.3818 15.897L16.7875 14.3027ZM16.7875 14.3027L15.8511 15.2854M10.4222 10.9222C9.87272 11.4717 8.98181 11.4717 8.43231 10.9222C7.88282 10.3727 7.88282 9.48181 8.43231 8.93231C8.98181 8.38282 9.87272 8.38282 10.4222 8.93231C10.9717 9.48181 10.9717 10.3727 10.4222 10.9222Z" stroke="currentColor" stroke-linecap="round" stroke-linejoin="round"/>
</svg>
