<svg width="24" height="25" viewBox="0 0 24 25" fill="none" xmlns="http://www.w3.org/2000/svg">
<path d="M15.7875 15.3027L14.1932 13.7084C13.8091 13.3243 13.6982 12.7554 13.7854 12.2193C14.0309 10.7092 13.5715 9.10682 12.4071 7.94242C10.4838 6.01919 7.36566 6.01919 5.44243 7.94242C3.51919 9.86566 3.51919 12.9838 5.44243 14.9071C6.60682 16.0715 8.20923 16.5309 9.71927 16.2854C10.2554 16.1982 10.8243 16.3091 11.2084 16.6932L14.397 19.8818C15.2212 20.7061 16.5576 20.7061 17.3818 19.8818C18.2061 19.0576 18.2061 17.7212 17.3818 16.897L15.7875 15.3027ZM15.7875 15.3027L14.8511 16.2854M18.5929 4.86824C19.1148 5.1162 19.532 5.53278 19.7733 6.04681C20.0146 6.56084 20.0651 7.14045 19.916 7.68663C19.7669 8.23282 19.4276 8.7117 18.9559 9.0415C18.4843 9.37129 17.9095 9.53152 17.3299 9.49486C17.0034 9.47455 16.6842 9.39134 16.3909 9.25007C16.0705 9.09404 15.788 8.8733 15.5623 8.60255C15.3366 8.3318 15.1729 8.0173 15.0821 7.68007C14.9914 7.34283 14.9756 6.99063 15.0359 6.64699C15.0962 6.30336 15.2312 5.97622 15.4319 5.68741C15.7001 5.30037 16.0937 4.96875 16.5625 4.70942M16.5625 4.70942C15.9523 4.62763 15 4.5 15 4.5M16.5625 4.70942C16.4828 5.35987 16.3583 6.375 16.3583 6.375M9.42221 11.9222C8.87272 12.4717 7.98181 12.4717 7.43231 11.9222C6.88282 11.3727 6.88282 10.4818 7.43231 9.93231C7.98181 9.38282 8.87272 9.38282 9.42221 9.93231C9.97171 10.4818 9.97171 11.3727 9.42221 11.9222Z" stroke="currentColor" stroke-linecap="round" stroke-linejoin="round"/>
</svg>
