<svg width="24" height="25" viewBox="0 0 24 25" fill="none" xmlns="http://www.w3.org/2000/svg">
<path d="M4 4.5L20 20.5M19 15.5V12.5C19 11.3954 18.1046 10.5 17 10.5M17 10.5V8.5C17 6.29086 15.2091 4.5 13 4.5H11C10.1374 4.5 9.33862 4.77303 8.68529 5.23738M17 10.5L13.5 10.5M7 10.5C5.89543 10.5 5 11.3954 5 12.5V16.5C5 18.7091 6.79086 20.5 9 20.5H15C16.3492 20.5 17.5425 19.832 18.2669 18.8086M7 10.5L7 8.5C7 8.20703 7.0315 7.92141 7.09129 7.64636M7 10.5L10 10.5M12 16.5V15.5" stroke="currentColor" stroke-linecap="round" stroke-linejoin="round"/>
</svg>
