<svg width="24" height="25" viewBox="0 0 24 25" fill="none" xmlns="http://www.w3.org/2000/svg">
<path d="M17 12.5L15 12.5M15.2929 13.5L16.7071 11.5M15.2928 11.5001L16.707 13.4999M13 12.5L11 12.5M11.2929 13.5L12.7071 11.5M11.2928 11.5001L12.707 13.4999M9 12.5L7 12.5M7.29289 13.5L8.70711 11.5M7.29282 11.5001L8.70704 13.4999M8 17.5H16C18.2091 17.5 20 15.7091 20 13.5V11.5C20 9.29086 18.2091 7.5 16 7.5H8C5.79086 7.5 4 9.29086 4 11.5V13.5C4 15.7091 5.79086 17.5 8 17.5Z" stroke="currentColor" stroke-linecap="round" stroke-linejoin="round"/>
</svg>
