<svg width="24" height="25" viewBox="0 0 24 25" fill="none" xmlns="http://www.w3.org/2000/svg">
<path d="M16 8.5L18 6.5M18 6.5L20 4.5M18 6.5L16 4.5M18 6.5L20 8.5M15.7875 15.3027L14.1932 13.7084C13.8091 13.3243 13.6982 12.7554 13.7854 12.2193C14.0309 10.7092 13.5715 9.10682 12.4071 7.94242C10.4838 6.01919 7.36566 6.01919 5.44243 7.94242C3.51919 9.86566 3.51919 12.9838 5.44243 14.9071C6.60682 16.0715 8.20923 16.5309 9.71927 16.2854C10.2554 16.1982 10.8243 16.3091 11.2084 16.6932L14.397 19.8818C15.2212 20.7061 16.5576 20.7061 17.3818 19.8818C18.2061 19.0576 18.2061 17.7212 17.3818 16.897L15.7875 15.3027ZM15.7875 15.3027L14.8511 16.2854M9.42221 11.9222C8.87272 12.4717 7.98181 12.4717 7.43231 11.9222C6.88282 11.3727 6.88282 10.4818 7.43231 9.93231C7.98181 9.38282 8.87272 9.38282 9.42221 9.93231C9.97171 10.4818 9.97171 11.3727 9.42221 11.9222Z" stroke="currentColor" stroke-linecap="round" stroke-linejoin="round"/>
</svg>
