<svg width="24" height="25" viewBox="0 0 24 25" fill="none" xmlns="http://www.w3.org/2000/svg">
<path d="M16 6.5H20M15.7875 14.3027L14.1932 12.7084C13.8091 12.3243 13.6982 11.7554 13.7854 11.2193C14.0309 9.70923 13.5715 8.10682 12.4071 6.94243C10.4838 5.01919 7.36566 5.01919 5.44243 6.94243C3.51919 8.86566 3.51919 11.9838 5.44243 13.9071C6.60682 15.0715 8.20923 15.5309 9.71927 15.2854C10.2554 15.1982 10.8243 15.3091 11.2084 15.6932L14.397 18.8818C15.2212 19.7061 16.5576 19.7061 17.3818 18.8818C18.2061 18.0576 18.2061 16.7212 17.3818 15.897L15.7875 14.3027ZM15.7875 14.3027L14.8511 15.2854M9.42221 10.9222C8.87272 11.4717 7.98181 11.4717 7.43231 10.9222C6.88282 10.3727 6.88282 9.48181 7.43231 8.93231C7.98181 8.38282 8.87272 8.38282 9.42221 8.93231C9.97171 9.48181 9.97171 10.3727 9.42221 10.9222Z" stroke="currentColor" stroke-linecap="round" stroke-linejoin="round"/>
</svg>
