<svg width="24" height="25" viewBox="0 0 24 25" fill="none" xmlns="http://www.w3.org/2000/svg">
<path d="M18.2748 15.4857L19 7.69017C19 7.69017 16.4043 7.44674 15 6.5431C14.1585 6.00162 13.2797 5.2739 12.6924 4.76048C12.2952 4.41317 11.7048 4.41317 11.3076 4.76048C10.7203 5.2739 9.84149 6.00162 9 6.5431C7.5957 7.44674 5 7.69017 5 7.69017L5.72519 15.4857C5.81905 16.4946 6.38518 17.3923 7.24095 17.8891L11.5098 20.3675C11.8142 20.5442 12.1858 20.5442 12.4902 20.3675L16.7591 17.8891C17.6148 17.3923 18.181 16.4946 18.2748 15.4857Z" stroke="currentColor" stroke-linecap="round" stroke-linejoin="round"/>
</svg>
