<svg width="24" height="25" viewBox="0 0 24 25" fill="none" xmlns="http://www.w3.org/2000/svg">
<path d="M9.50003 13L11.1667 15L14.5 11M19 7.68993L18.2748 15.4855C18.181 16.4944 17.6148 17.3921 16.7591 17.8889L12.4902 20.3672C12.1858 20.5439 11.8142 20.5439 11.5098 20.3672L7.24095 17.8889C6.38518 17.3921 5.81905 16.4944 5.72519 15.4855L5 7.68993C5 7.68993 7.5957 7.44649 9 6.54286C9.84149 6.00138 10.7203 5.27366 11.3076 4.76024C11.7048 4.41293 12.2952 4.41293 12.6924 4.76024C13.2797 5.27366 14.1585 6.00138 15 6.54286C16.4043 7.44649 19 7.68993 19 7.68993Z" stroke="currentColor" stroke-linecap="round" stroke-linejoin="round"/>
</svg>
