<svg width="24" height="25" viewBox="0 0 24 25" fill="none" xmlns="http://www.w3.org/2000/svg">
<path d="M9.72302 13.6107C10.0222 14.2062 10.5447 14.6593 11.1766 14.871C11.8085 15.0827 12.4985 15.0358 13.096 14.7407C13.3897 14.5997 13.6529 14.4027 13.871 14.1608C14.0872 13.915 14.2539 13.6297 14.362 13.3207C14.4699 13.0093 14.5154 12.6797 14.496 12.3507C14.4751 12.0246 14.392 11.7056 14.251 11.4108L14.241 11.3907C14.0234 10.963 13.6892 10.6056 13.2771 10.3596C12.865 10.1137 12.3918 9.98926 11.912 10.0007C11.4312 10.0111 10.9637 10.1605 10.566 10.4308C10.1689 10.7016 9.85684 11.0796 9.66602 11.5207M9.5 10.2607L9.66199 11.5208L10.956 11.3607M19 7.69017L18.2748 15.4857C18.181 16.4946 17.6148 17.3923 16.7591 17.8891L12.4902 20.3675C12.1858 20.5442 11.8142 20.5442 11.5098 20.3675L7.24095 17.8891C6.38518 17.3923 5.81905 16.4946 5.72519 15.4857L5 7.69017C5 7.69017 7.5957 7.44674 9 6.5431C9.84149 6.00162 10.7203 5.2739 11.3076 4.76048C11.7048 4.41317 12.2952 4.41317 12.6924 4.76048C13.2797 5.2739 14.1585 6.00162 15 6.5431C16.4043 7.44674 19 7.69017 19 7.69017Z" stroke="currentColor" stroke-linecap="round" stroke-linejoin="round"/>
</svg>
