<svg width="24" height="25" viewBox="0 0 24 25" fill="none" xmlns="http://www.w3.org/2000/svg">
<path d="M18 8L17.4082 16.785C17.2587 18.8782 15.5169 20.5 13.4184 20.5H10.5816C8.48307 20.5 6.7413 18.8782 6.59178 16.785L6 8M11.1123 14.1123L12.0003 13.5002V12.4062M4 8.5C4 8.5 6.66667 7.5 12 7.5C17.3333 7.5 20 8.5 20 8.5M16 7.70711L15.9178 7.0068C15.6767 5.56024 14.4251 4.5 12.9586 4.5H11.0414C9.57486 4.5 8.32329 5.56024 8.0822 7.0068L8 7.70711M12 16.5C12.5933 16.5 13.1733 16.324 13.6667 15.9944C14.16 15.6648 14.5446 15.1963 14.7717 14.6481C14.9987 14.0999 15.0581 13.4966 14.9424 12.9147C14.8266 12.3327 14.5409 11.7982 14.1213 11.3787C13.7018 10.9591 13.1672 10.6734 12.5853 10.5576C12.0033 10.4419 11.4001 10.5013 10.8519 10.7284C10.3037 10.9555 9.83526 11.3399 9.50561 11.8333C9.17597 12.3266 9 12.9067 9 13.5C9 14.2957 9.31605 15.0587 9.87866 15.6213C10.4413 16.184 11.2043 16.5 12 16.5Z" stroke="currentColor" stroke-linecap="round" stroke-linejoin="round"/>
</svg>
