<svg width="24" height="25" viewBox="0 0 24 25" fill="none" xmlns="http://www.w3.org/2000/svg">
<path d="M13.3114 10.9419C13.9377 11.2394 14.4384 11.7393 14.728 12.3562C15.0176 12.973 15.0781 13.6685 14.8992 14.324C14.7203 14.9794 14.3131 15.554 13.7471 15.9498C13.1811 16.3455 12.4914 16.5378 11.7959 16.4938C11.404 16.4695 11.021 16.3696 10.669 16.2001C10.2846 16.0128 9.94559 15.748 9.67476 15.4231C9.40393 15.0982 9.20751 14.7208 9.09858 14.3161C8.98965 13.9114 8.97074 13.4887 9.04312 13.0764C9.11549 12.664 9.27747 12.2715 9.51826 11.9249C9.84006 11.4604 10.3125 11.0625 10.875 10.7513M10.875 10.7513C10.1428 10.6532 9 10.5 9 10.5M10.875 10.7513C10.7793 11.5318 10.63 12.75 10.63 12.75M18 8L17.4082 16.785C17.2587 18.8782 15.5169 20.5 13.4184 20.5H10.5816C8.48307 20.5 6.7413 18.8782 6.59178 16.785L6 8M4 8.5C4 8.5 6.66667 7.5 12 7.5C17.3333 7.5 20 8.5 20 8.5M16 7.70711L15.9178 7.0068C15.6767 5.56024 14.4251 4.5 12.9586 4.5H11.0414C9.57486 4.5 8.32329 5.56024 8.0822 7.0068L8 7.70711" stroke="currentColor" stroke-linecap="round" stroke-linejoin="round"/>
</svg>
