<svg width="24" height="25" viewBox="0 0 24 25" fill="none" xmlns="http://www.w3.org/2000/svg">
<path d="M18 8L17.4082 16.785C17.2587 18.8782 15.5169 20.5 13.4184 20.5H10.5816C8.48307 20.5 6.7413 18.8782 6.59178 16.785L6 8M4 8.5C4 8.5 6.66667 7.5 12 7.5C17.3333 7.5 20 8.5 20 8.5M16 7.70711L15.9178 7.0068C15.6767 5.56024 14.4251 4.5 12.9586 4.5H11.0414C9.57486 4.5 8.32329 5.56024 8.0822 7.0068L8 7.70711M12 14.3334L12 10M12 10L15 12.8266M12 10L9 12.8266M12 17V16.1111" stroke="currentColor" stroke-linecap="round" stroke-linejoin="round"/>
</svg>
