<svg width="24" height="25" viewBox="0 0 24 25" fill="none" xmlns="http://www.w3.org/2000/svg">
<path d="M14.5413 13V15.5M9.46009 13V15.5M12.0007 12L12.0007 16.5M13.0169 9.10205L13.0169 8.69031C13.0169 8.28612 13.2654 7.93372 13.6197 7.83534L14.7319 7.52653C15.1186 7.41917 15.5175 7.64458 15.6655 8.05413L16.0086 9.00312M17.997 10.3099L17.4968 16.785C17.3448 18.8782 15.5748 20.5 13.4421 20.5H10.5593C8.42664 20.5 6.65658 18.8782 6.50464 16.785L6.00301 10.2916C5.95255 9.63836 6.54357 9.1136 7.20349 9.19988C8.47225 9.36576 10.1017 9.5 12.0007 9.5C14.0184 9.5 15.5683 9.37883 16.7816 9.21487C17.4469 9.12499 18.0479 9.65108 17.997 10.3099ZM8.1691 5.0461L8.42933 4.75818C8.74046 4.41394 9.24491 4.41394 9.55605 4.75818C9.70546 4.92349 9.90811 5.01636 10.1194 5.01636H10.1878C10.6278 5.01636 10.9845 5.41101 10.9845 5.89784V6.30958C10.9845 6.71377 10.736 7.06618 10.3817 7.16456L9.26947 7.47336C8.88278 7.58072 8.48389 7.35531 8.33582 6.94576L7.99273 5.99678C7.87437 5.66938 7.94374 5.29544 8.1691 5.0461Z" stroke="currentColor" stroke-linecap="round" stroke-linejoin="round"/>
</svg>
