<svg width="24" height="25" viewBox="0 0 24 25" fill="none" xmlns="http://www.w3.org/2000/svg">
<path d="M8 7.50049L8 4.50049M8 4.50049L11 4.50049M8 4.50049L12 8.50049L16 4.50049M11.9984 13.5002C5.96023 13.4958 4.37532 16.4901 4.02357 18.6805C3.82479 19.9183 4.91725 20.7192 6.02028 20.4471L7.8521 19.9954C8.32285 19.8793 8.65756 19.4148 8.65724 18.878L8.65693 18.3651C8.65656 17.7326 9.11696 17.2202 9.68529 17.2206L14.5732 17.2242C15.1415 17.2246 15.6026 17.7377 15.6029 18.3702L15.6032 18.8948C15.6036 19.4262 15.9324 19.8881 16.3973 20.0102L17.9656 20.422C19.0756 20.7134 20.1821 19.912 19.9748 18.664C19.6113 16.4757 18.0106 13.5047 11.9984 13.5002Z" stroke="currentColor" stroke-linecap="round" stroke-linejoin="round"/>
</svg>
