<svg width="24" height="25" viewBox="0 0 24 25" fill="none" xmlns="http://www.w3.org/2000/svg">
<path d="M19 8.49976L16 8.49976M16 8.49976V5.49976M16 8.49976L20 4.49976M8.07176 16.4229C13.426 21.7842 17.2197 20.8033 19.2781 19.369C20.4414 18.5585 20.1105 16.9506 18.9149 16.1888L16.9293 14.9235C16.419 14.5984 15.7517 14.6717 15.324 15.1L14.9154 15.5092C14.4114 16.0138 13.5944 16.0138 13.0904 15.5092L8.75612 11.1691C8.25217 10.6645 8.25217 9.84632 8.75612 9.3417L9.17403 8.92324C9.59747 8.49924 9.67396 7.83925 9.35877 7.32941L8.29544 5.60944C7.54291 4.3922 5.92216 4.04931 5.11108 5.22824C3.68889 7.29544 2.74051 11.0845 8.07176 16.4229Z" stroke="currentColor" stroke-linecap="round" stroke-linejoin="round"/>
</svg>
