<svg width="24" height="25" viewBox="0 0 24 25" fill="none" xmlns="http://www.w3.org/2000/svg">
<path d="M8.07176 16.4228C2.74051 11.0845 3.68889 7.2954 5.11108 5.22821C5.92216 4.04928 7.54291 4.39217 8.29544 5.60941L9.35877 7.32937C9.67396 7.83922 9.59747 8.4992 9.17403 8.9232L8.75612 9.34166C8.25217 9.84629 8.25217 10.6644 8.75612 11.1691L10.9233 13.3391M13.0904 15.5091C13.5944 16.0137 14.4114 16.0137 14.9154 15.5091L15.324 15.0999C15.7517 14.6717 16.419 14.5983 16.9293 14.9235L18.9149 16.1887C20.1105 16.9506 20.4414 18.5585 19.2781 19.369C17.546 20.5758 14.5853 21.4618 10.5 18.518M16 8.5L4 20.5" stroke="currentColor" stroke-linecap="round" stroke-linejoin="round"/>
</svg>
