<svg width="24" height="25" viewBox="0 0 24 25" fill="none" xmlns="http://www.w3.org/2000/svg">
<path d="M20 7.5V8C20 9.933 18.433 11.5 16.5 11.5C14.567 11.5 13 9.933 13 8V7.5M8.07176 16.4228C13.426 21.7842 17.2197 20.8032 19.2781 19.369C20.4414 18.5585 20.1105 16.9506 18.9149 16.1887L16.9293 14.9235C16.419 14.5983 15.7517 14.6717 15.324 15.0999L14.9154 15.5091C14.4114 16.0137 13.5944 16.0137 13.0904 15.5091L8.75612 11.1691C8.25217 10.6644 8.25217 9.84628 8.75612 9.34166L9.17403 8.9232C9.59747 8.4992 9.67396 7.83921 9.35877 7.32937L8.29544 5.60941C7.54291 4.39217 5.92216 4.04928 5.11108 5.22821C3.68889 7.2954 2.74051 11.0845 8.07176 16.4228ZM16.5 9.5C15.6716 9.5 15 8.82843 15 8V6C15 5.17157 15.6716 4.5 16.5 4.5C17.3284 4.5 18 5.17157 18 6V8C18 8.82843 17.3284 9.5 16.5 9.5Z" stroke="currentColor" stroke-linecap="round" stroke-linejoin="round"/>
</svg>
