<svg width="24" height="25" viewBox="0 0 24 25" fill="none" xmlns="http://www.w3.org/2000/svg">
<path d="M16.1123 8.1123L17.0003 7.50024V6.40625M8.07176 16.4228C13.426 21.7842 17.2197 20.8032 19.2781 19.369C20.4414 18.5585 20.1105 16.9506 18.9149 16.1887L16.9293 14.9235C16.419 14.5983 15.7517 14.6717 15.324 15.0999L14.9154 15.5091C14.4114 16.0137 13.5944 16.0137 13.0904 15.5091L8.75612 11.1691C8.25217 10.6644 8.25217 9.84628 8.75612 9.34166L9.17403 8.9232C9.59747 8.4992 9.67396 7.83921 9.35876 7.32937L8.29544 5.60941C7.54291 4.39217 5.92216 4.04928 5.11108 5.22821C3.68889 7.2954 2.74051 11.0845 8.07176 16.4228ZM17 10.5C17.5933 10.5 18.1733 10.324 18.6667 9.9944C19.16 9.66475 19.5446 9.19626 19.7717 8.64808C19.9987 8.0999 20.0581 7.49663 19.9424 6.91469C19.8266 6.33274 19.5409 5.79823 19.1213 5.37867C18.7018 4.95912 18.1672 4.67339 17.5853 4.55763C17.0033 4.44187 16.4001 4.50134 15.8519 4.72841C15.3037 4.95547 14.8353 5.33992 14.5056 5.83326C14.176 6.32661 14 6.90667 14 7.50001C14 8.29566 14.316 9.05874 14.8787 9.62135C15.4413 10.184 16.2043 10.5 17 10.5Z" stroke="currentColor" stroke-linecap="round" stroke-linejoin="round"/>
</svg>
