<svg width="24" height="25" viewBox="0 0 24 25" fill="none" xmlns="http://www.w3.org/2000/svg">
<path d="M14 7.49993C14.0001 7.0294 14.1105 6.56547 14.3225 6.14536C14.534 5.72565 14.8425 5.36239 15.2225 5.08569C15.7999 4.65923 16.5114 4.4544 17.2273 4.50853C17.9431 4.56266 18.6157 4.87215 19.1224 5.38058C19.2232 5.47999 19.4999 5.7506 19.6938 5.95549M19.6938 5.95549L19.6583 4.80582M19.6938 5.95549L18.5439 5.99045M20 7.50007C19.9999 7.97059 19.8895 8.43453 19.6775 8.85464C19.4662 9.27446 19.1576 9.63775 18.7775 9.91431C18.2001 10.3408 17.4886 10.5456 16.7727 10.4915C16.0569 10.4373 15.3843 10.1279 14.8776 9.61942C14.7769 9.51988 14.5 9.24954 14.3061 9.04458M14.3061 9.04458L14.3416 10.1943M14.3061 9.04458L15.4561 9.00962M8.07176 16.4228C13.426 21.7842 17.2197 20.8032 19.2781 19.369C20.4414 18.5585 20.1105 16.9506 18.9149 16.1887L16.9293 14.9235C16.419 14.5983 15.7517 14.6717 15.324 15.0999L14.9154 15.5091C14.4114 16.0137 13.5944 16.0137 13.0904 15.5091L8.75612 11.1691C8.25217 10.6644 8.25217 9.84628 8.75612 9.34166L9.17403 8.9232C9.59747 8.4992 9.67396 7.83921 9.35877 7.32937L8.29544 5.60941C7.54291 4.39217 5.92216 4.04928 5.11108 5.22821C3.68889 7.2954 2.74051 11.0845 8.07176 16.4228Z" stroke="currentColor" stroke-linecap="round" stroke-linejoin="round"/>
</svg>
