<svg width="24" height="25" viewBox="0 0 24 25" fill="none" xmlns="http://www.w3.org/2000/svg">
<path d="M19.8777 6.96977L20 5.57639C20 5.57639 19.2584 5.5027 18.8571 5.22917C18.4443 4.9477 18 4.5 18 4.5C18 4.5 17.5557 4.9477 17.1429 5.22917C16.7416 5.5027 16 5.57639 16 5.57639L16.1223 6.96977C16.2027 7.88444 16.711 8.70717 17.4931 9.18822C17.804 9.37943 18.196 9.37943 18.5069 9.18822C19.289 8.70717 19.7973 7.88444 19.8777 6.96977Z" stroke="currentColor" stroke-linecap="round" stroke-linejoin="round"/>
<path d="M5.11108 5.22821C5.92216 4.04928 7.54291 4.39217 8.29544 5.60941L9.35877 7.32937C9.67396 7.83921 9.59747 8.4992 9.17403 8.9232L8.75612 9.34166C8.25217 9.84628 8.25217 10.6644 8.75612 11.1691L13.0904 15.5091C13.5944 16.0137 14.4114 16.0137 14.9154 15.5091L15.324 15.0999C15.7517 14.6717 16.419 14.5983 16.9293 14.9235L18.9149 16.1887C20.1105 16.9506 20.4414 18.5585 19.2781 19.369C17.2197 20.8032 13.426 21.7842 8.07176 16.4228C2.74051 11.0845 3.68889 7.2954 5.11108 5.22821Z" stroke="currentColor" stroke-linecap="round" stroke-linejoin="round"/>
</svg>
