<svg width="24" height="25" viewBox="0 0 24 25" fill="none" xmlns="http://www.w3.org/2000/svg">
<path d="M16 8.49988L20 4.49988M16 4.49988L20 8.49988M8.07176 16.4228C13.426 21.7841 17.2197 20.8032 19.2781 19.3689C20.4414 18.5584 20.1105 16.9506 18.9149 16.1887L16.9293 14.9234C16.419 14.5983 15.7517 14.6716 15.324 15.0999L14.9154 15.5091C14.4114 16.0137 13.5944 16.0137 13.0904 15.5091L8.75612 11.169C8.25217 10.6644 8.25217 9.84624 8.75612 9.34162L9.17403 8.92316C9.59747 8.49915 9.67396 7.83917 9.35877 7.32932L8.29544 5.60936C7.54291 4.39212 5.92216 4.04923 5.11108 5.22816C3.68889 7.29535 2.74051 11.0844 8.07176 16.4228Z" stroke="currentColor" stroke-linecap="round" stroke-linejoin="round"/>
</svg>
