<svg width="24" height="25" viewBox="0 0 24 25" fill="none" xmlns="http://www.w3.org/2000/svg">
<path d="M5.11108 5.22821C5.92216 4.04928 7.54291 4.39217 8.29544 5.60941L9.35877 7.32937C9.67396 7.83921 9.59747 8.4992 9.17403 8.9232L8.75612 9.34166C8.25217 9.84628 8.25217 10.6644 8.75612 11.1691L13.0904 15.5091C13.5944 16.0137 14.4114 16.0137 14.9154 15.5091L15.324 15.0999C15.7517 14.6717 16.419 14.5983 16.9293 14.9235L18.9149 16.1887C20.1105 16.9506 20.4414 18.5585 19.2781 19.369C17.2197 20.8032 13.426 21.7842 8.07176 16.4228C2.74051 11.0845 3.68889 7.2954 5.11108 5.22821Z" stroke="currentColor" stroke-linecap="round" stroke-linejoin="round"/>
<path d="M17.153 4.72501C17.2949 4.425 17.7051 4.425 17.847 4.72501L18.3198 5.72426C18.3761 5.8434 18.4851 5.92598 18.6111 5.94508L19.6683 6.10532C19.9857 6.15343 20.1124 6.5603 19.8827 6.79383L19.1178 7.57164C19.0266 7.66437 18.9849 7.79798 19.0065 7.92893L19.1871 9.02721C19.2413 9.35696 18.9095 9.60842 18.6256 9.45273L17.6801 8.9342C17.5673 8.87237 17.4327 8.87237 17.3199 8.9342L16.3744 9.45274C16.0905 9.60842 15.7587 9.35696 15.8129 9.02721L15.9935 7.92893C16.015 7.79798 15.9734 7.66437 15.8822 7.57164L15.1173 6.79383C14.8876 6.5603 15.0143 6.15343 15.3317 6.10532L16.3889 5.94508C16.5149 5.92598 16.6239 5.8434 16.6802 5.72426L17.153 4.72501Z" stroke="currentColor" stroke-linecap="round" stroke-linejoin="round"/>
</svg>
