<svg width="24" height="25" viewBox="0 0 24 25" fill="none" xmlns="http://www.w3.org/2000/svg">
<path d="M15.0001 21.5C12.4975 21.5 9.7081 21.4978 7.01151 21.4977C4.79789 21.4977 3.003 19.7016 3.00513 17.488C3.00844 14.0356 3.00844 10.9645 3.00513 7.5121C3.003 5.29848 4.79798 3.50264 7.0116 3.50415C9.67056 3.50596 12.3295 3.50596 14.9885 3.50415C17.2021 3.50264 18.9971 5.29817 18.9966 7.51179C18.9959 10.8123 19 13.7492 19 17.5M15.0001 21.5V18.5C15.0001 17.9478 15.4478 17.5 16.0001 17.5H19M15.0001 21.5L19 17.5M8.04843 9.65536V7.5242C8.04843 6.95857 7.5899 6.50004 7.02427 6.50004C6.45864 6.50004 6.00011 6.95857 6.00011 7.5242V9.50004C6.00011 10.6046 6.89554 11.5 8.00011 11.5C9.10468 11.5 10.0001 10.6046 10.0001 9.50004V8.19906" stroke="currentColor" stroke-linecap="round" stroke-linejoin="round"/>
</svg>
