<svg width="24" height="25" viewBox="0 0 24 25" fill="none" xmlns="http://www.w3.org/2000/svg">
<path d="M14.5002 19.5001C12.4651 19.5001 10.2134 19.4983 8.01149 19.498C5.79787 19.4978 4.00298 17.7016 4.00488 15.488C4.00725 12.7463 4.00725 10.2538 4.00488 7.51212C4.00298 5.2985 5.79796 3.50272 8.01157 3.50403C10.0039 3.50521 11.9963 3.50521 13.9886 3.50403C16.2022 3.50272 17.9972 5.29796 17.9971 7.51158C17.9969 10.2674 18.0001 12.7801 18.0001 15.9445M14.5002 19.5001V16.9445C14.5002 16.3922 14.9479 15.9445 15.5002 15.9445H18.0001M14.5002 19.5001L18.0001 15.9445M7.14251 19.4094C7.52744 20.6217 8.66107 21.5001 10.0011 21.5001H17.0001L20 18.5001V9.49972C20 8.15413 19.1144 7.0171 17.8943 6.63709M8.00009 7.50005H15.0001M8.00009 10.5001H15.0001M8.00009 13.5001H11.5001" stroke="currentColor" stroke-linecap="round" stroke-linejoin="round"/>
</svg>
