<svg width="24" height="25" viewBox="0 0 24 25" fill="none" xmlns="http://www.w3.org/2000/svg">
<path d="M16 21.5C13.4973 21.5 10.708 21.4978 8.0114 21.4977C5.79777 21.4977 4.00289 19.7016 4.00502 17.488C4.00833 14.0356 4.00833 10.9645 4.00502 7.5121C4.00289 5.29848 5.79787 3.50264 8.01149 3.50415C10.6705 3.50596 13.3294 3.50596 15.9884 3.50415C18.202 3.50264 19.997 5.29817 19.9965 7.51179C19.9958 10.8123 19.9999 13.7492 19.9999 17.5M16 21.5V18.5C16 17.9478 16.4477 17.5 17 17.5H19.9999M16 21.5L19.9999 17.5M4 12.3334L7 14L8.75 11.75M10.5 9.50004L8.75 11.75M8.75 11.75L11.5 14" stroke="currentColor" stroke-linecap="round" stroke-linejoin="round"/>
</svg>
