<svg width="24" height="25" viewBox="0 0 24 25" fill="none" xmlns="http://www.w3.org/2000/svg">
<path d="M12.0012 17.4975V21.4975M12.0012 21.4975L9.00073 18.4975M12.0012 21.4975L15.0019 18.4975M12.0013 14.4967V15.4967M7.00036 12.2063C6.56267 12.2101 6.13604 12.0689 5.78703 11.8048C5.43802 11.5406 5.18627 11.1684 5.07101 10.7461C4.95274 10.327 4.97592 9.88049 5.137 9.47585C5.29766 9.06809 5.58704 8.72395 5.96116 8.49568C5.81981 7.88934 5.88129 7.25331 6.13618 6.68528C6.39427 6.12064 6.82743 5.65423 7.37143 5.35507C7.91916 5.06249 8.54756 4.95719 9.16077 5.05509C9.77524 5.14808 10.341 5.44376 10.7681 5.89522C11.1313 4.97922 11.8367 4.24046 12.735 3.83538C13.6333 3.43029 14.654 3.39063 15.581 3.72476C16.5098 4.05213 17.2753 4.7273 17.7162 5.60793C18.157 6.48856 18.2389 7.50585 17.9444 8.44563C18.3377 8.65379 18.6492 8.98865 18.8286 9.39588C18.9634 9.70021 19.0201 10.0334 18.9937 10.3652C18.9672 10.697 18.8583 11.0169 18.6769 11.296C18.4956 11.5751 18.2474 11.8045 17.955 11.9635C17.6626 12.1225 17.3351 12.2059 17.0023 12.2063H7.00036Z" stroke="currentColor" stroke-linecap="round" stroke-linejoin="round"/>
</svg>
