<svg width="24" height="25" viewBox="0 0 24 25" fill="none" xmlns="http://www.w3.org/2000/svg">
<path d="M9.5 13.75L10.75 15M4 16.5L4 8.5C4 6.29086 5.79086 4.5 8 4.5L16 4.5C18.2091 4.5 20 6.29086 20 8.5L20 16.5C20 18.7091 18.2091 20.5 16 20.5L8 20.5C5.79086 20.5 4 18.7091 4 16.5ZM8.56122 17.5L11.6837 14.3776C11.6837 14.3776 12.3954 13.5284 11.6837 12.8164C10.9719 12.1045 10.1224 12.8164 10.1224 12.8164L7 15.9388V17.5H8.56122Z" stroke="currentColor" stroke-linecap="round" stroke-linejoin="round"/>
</svg>
