<svg width="24" height="25" viewBox="0 0 24 25" fill="none" xmlns="http://www.w3.org/2000/svg">
<path d="M13.9999 5.5C14.493 5.5 15.2195 5.5 15.9982 5.5C18.2078 5.5 19.9993 7.28823 19.9989 9.49789C19.9983 11.9054 19.9978 14.9805 19.9981 17.4913C19.9983 19.7049 18.2027 21.4974 15.9891 21.4961C13.4014 21.4946 10.5984 21.4946 8.01073 21.4961C5.79712 21.4974 4.00268 19.7014 4.0037 17.4878C4.00497 14.7301 4.00353 12.2581 4.00293 9.49959C4.00245 7.2909 5.79333 5.5 8.00202 5.5C8.91948 5.5 9.71137 5.5 9.99992 5.5M13.9999 5.5C13.9999 4.96957 13.7892 4.46089 13.4141 4.08582C13.039 3.71074 12.5304 3.5 11.9999 3.5C11.4695 3.5 10.9608 3.71074 10.5857 4.08582C10.2107 4.46089 9.99992 4.96957 9.99992 5.5M13.9999 5.5H15.9999C15.9978 6.02978 15.7864 6.53725 15.4118 6.91187C15.0372 7.28648 14.5297 7.49789 13.9999 7.5H9.99993C9.47014 7.49789 8.96268 7.28648 8.58806 6.91187C8.21344 6.53725 8.00203 6.02978 7.99993 5.5H9.99992M8.99993 11.5H14.9999M8.99993 14.5H14.9999M10.9999 17.5H14.9999" stroke="currentColor" stroke-linecap="round" stroke-linejoin="round"/>
</svg>
