<svg width="24" height="25" viewBox="0 0 24 25" fill="none" xmlns="http://www.w3.org/2000/svg">
<path d="M3 15.5C3 14.4073 3.00095 13.4578 3.00143 12.5088C3.00226 10.8485 4.34861 9.50169 6.0089 9.50315C10.218 9.50687 13.782 9.50688 17.9911 9.50316C19.6514 9.50169 20.9976 10.8485 20.9985 12.5088C20.999 13.4372 21 14.3662 21 15.5M18 13.5764L17.8819 14.921C17.7989 15.8664 17.2735 16.7167 16.4651 17.2139L16 17.5L15.5348 17.2139C14.7265 16.7167 14.2011 15.8664 14.118 14.921L14 13.5764C14 13.5764 14.7416 13.5027 15.1428 13.2292C15.5557 12.9477 16 12.5 16 12.5C16 12.5 16.4443 12.9477 16.8571 13.2292C17.2584 13.5027 18 13.5764 18 13.5764ZM20.9959 10.7618C20.9946 12.7283 20.9946 14.5217 20.9959 16.4883C20.9973 18.7019 19.2014 20.4969 16.9878 20.4946C13.5354 20.4911 10.4645 20.4911 7.01211 20.4946C4.79846 20.4969 3.00248 18.7014 3.00415 16.4877C3.00624 13.7343 3.00624 11.2657 3.00415 8.51228C3.00248 6.29863 4.7981 4.50207 7.01174 4.50181C8.34674 4.50166 9.64633 4.50107 10.5005 4.50061C11.0531 4.50031 11.4999 4.94815 11.4999 5.50071V5.75001C11.4999 6.30229 11.9479 6.75 12.5002 6.75016C14.1091 6.75061 15.5295 6.752 16.9882 6.75241C19.2019 6.75302 20.9973 8.54811 20.9959 10.7618Z" stroke="currentColor" stroke-miterlimit="10" stroke-linecap="round" stroke-linejoin="round"/>
</svg>
