<svg width="24" height="25" viewBox="0 0 24 25" fill="none" xmlns="http://www.w3.org/2000/svg">
<path d="M16.0001 21.5C13.4975 21.5 10.7081 21.4978 8.01151 21.4977C5.79789 21.4977 4.003 19.7016 4.00513 17.488C4.00844 14.0356 4.00844 10.9645 4.00513 7.5121C4.003 5.29848 5.79798 3.50264 8.0116 3.50415C10.6706 3.50596 13.3295 3.50596 15.9885 3.50415C18.2021 3.50264 19.9971 5.29817 19.9966 7.51179C19.9959 10.8123 20 13.7492 20 17.5M16.0001 21.5V18.5C16.0001 17.9478 16.4478 17.5 17.0001 17.5H20M16.0001 21.5L20 17.5M11.0001 7.57643L10.8821 8.92101C10.799 9.86638 10.2736 10.7167 9.46528 11.2139L9.00011 11.5L8.53495 11.2139C7.72661 10.7167 7.20118 9.86638 7.11817 8.92101L7.00011 7.57643C7.00011 7.57643 7.74174 7.50274 8.14297 7.22921C8.55583 6.94774 9.00011 6.50004 9.00011 6.50004C9.00011 6.50004 9.44439 6.94774 9.85725 7.22921C10.2585 7.50274 11.0001 7.57643 11.0001 7.57643Z" stroke="currentColor" stroke-linecap="round" stroke-linejoin="round"/>
</svg>
