<svg width="24" height="25" viewBox="0 0 24 25" fill="none" xmlns="http://www.w3.org/2000/svg">
<path d="M18 14.1L15.5 12.1L13 14.1M18 16.1L15.5 18.1L13 16.1M3 15.5041C3 14.411 3.00095 13.4612 3.00143 12.5118C3.00226 10.8509 4.34861 9.50356 6.0089 9.50503C10.218 9.50875 13.782 9.50875 17.9911 9.50503C19.6514 9.50356 20.9976 10.8509 20.9985 12.5118C20.999 13.4405 21 14.3699 21 15.5041M20.9959 10.7641C20.9946 12.7314 20.9946 14.5255 20.9959 16.4927C20.9973 18.7072 19.2014 20.5029 16.9878 20.5006C13.5354 20.497 10.4645 20.497 7.01211 20.5006C4.79846 20.5029 3.00248 18.7067 3.00415 16.4922C3.00624 13.7378 3.00624 11.2682 3.00415 8.51378C3.00248 6.2993 4.7981 4.50207 7.01174 4.50181C8.34674 4.50166 9.64633 4.50107 10.5005 4.50061C11.0531 4.50031 11.4999 4.94832 11.4999 5.50108V5.75048C11.4999 6.30297 11.9479 6.75084 12.5002 6.751C14.1091 6.75145 15.5295 6.75284 16.9882 6.75325C19.2019 6.75386 20.9973 8.54963 20.9959 10.7641Z" stroke="currentColor" stroke-miterlimit="10" stroke-linecap="round" stroke-linejoin="round"/>
</svg>
