<svg width="24" height="25" viewBox="0 0 24 25" fill="none" xmlns="http://www.w3.org/2000/svg">
<path d="M13.0001 7.5H11.0001M15.9886 20.4957C13.3296 20.4938 10.6706 20.4938 8.01156 20.4957C5.79795 20.4973 4.00281 18.7021 4.0044 16.4885C4.00629 13.8295 4.00629 11.1705 4.0044 8.51147C4.00281 6.29786 5.79817 4.50272 8.01178 4.50272C10.3072 4.50271 12.4827 4.50051 14.9714 4.50007C15.5019 4.49998 16.0108 4.71071 16.3859 5.08579L19.4143 8.11421C19.7894 8.48928 20.0001 8.99822 20 9.52866C19.9996 12.0174 19.9974 14.1929 19.9974 16.4883C19.9974 18.7019 18.2022 20.4973 15.9886 20.4957ZM9.00009 4.5H15.0001V8.5C15.0001 9.05228 14.5524 9.5 14.0001 9.5H10.0001C9.4478 9.5 9.00009 9.05228 9.00009 8.5V4.5ZM16.0001 20.5V17.5C16.0001 15.8431 14.6569 14.5 13.0001 14.5H11.0001C9.34324 14.5 8.00009 15.8431 8.00009 17.5V20.5H16.0001Z" stroke="currentColor" stroke-linecap="round" stroke-linejoin="round"/>
</svg>
