<svg width="24" height="25" viewBox="0 0 24 25" fill="none" xmlns="http://www.w3.org/2000/svg">
<path d="M15.5288 10.997L12.2798 12.6676M12.2798 14.3284L15.5288 15.9989M3 15.5035C3 14.4104 3.00095 13.4606 3.00143 12.5112C3.00226 10.8503 4.34861 9.50295 6.0089 9.50442C8.11347 9.50628 11.0567 9.50721 13 9.50721M21 15.5035C21 14.3693 20.999 13.4399 20.9985 12.5112M17.0288 17.9997C17.3255 17.9997 17.6155 17.9117 17.8622 17.7468C18.1088 17.5819 18.3011 17.3475 18.4146 17.0733C18.5282 16.7991 18.5579 16.4975 18.5 16.2064C18.4421 15.9153 18.2993 15.6479 18.0895 15.438C17.8797 15.2282 17.6124 15.0853 17.3214 15.0274C17.0305 14.9695 16.7289 14.9992 16.4548 15.1127C16.1807 15.2263 15.9464 15.4187 15.7816 15.6654C15.6168 15.9122 15.5288 16.2023 15.5288 16.4991C15.5288 16.8971 15.6868 17.2788 15.9681 17.5602C16.2494 17.8416 16.631 17.9997 17.0288 17.9997ZM17.0288 11.9974C17.3255 11.9974 17.6155 11.9094 17.8622 11.7445C18.1088 11.5796 18.3011 11.3452 18.4146 11.0711C18.5282 10.7969 18.5579 10.4952 18.5 10.2042C18.4421 9.91307 18.2993 9.64566 18.0895 9.4358C17.8797 9.22594 17.6124 9.08302 17.3214 9.02512C17.0305 8.96723 16.7289 8.99691 16.4548 9.11048C16.1807 9.22406 15.9464 9.41642 15.7816 9.66318C15.6168 9.90995 15.5288 10.2001 15.5288 10.4969C15.5288 10.8948 15.6868 11.2765 15.9681 11.5579C16.2494 11.8393 16.631 11.9974 17.0288 11.9974ZM11.0288 14.9986C11.3255 14.9986 11.6155 14.9105 11.8622 14.7457C12.1088 14.5808 12.3011 14.3464 12.4146 14.0722C12.5282 13.798 12.5579 13.4964 12.5 13.2053C12.4421 12.9142 12.2993 12.6468 12.0895 12.4369C11.8797 12.2271 11.6124 12.0841 11.3214 12.0262C11.0305 11.9683 10.7289 11.998 10.4548 12.1116C10.1807 12.2252 9.94644 12.4175 9.78162 12.6643C9.6168 12.9111 9.52881 13.2012 9.52881 13.498C9.52881 13.896 9.68684 14.2776 9.96815 14.5591C10.2494 14.8405 10.631 14.9986 11.0288 14.9986ZM20.9959 10.7635C20.9946 12.7308 20.9946 14.5249 20.9959 16.4921C20.9973 18.7066 19.2014 20.5023 16.9878 20.5C13.5354 20.4964 10.4645 20.4964 7.01211 20.5C4.79846 20.5023 3.00248 18.7061 3.00415 16.4916C3.00624 13.7372 3.00624 11.2676 3.00415 8.51317C3.00248 6.29869 4.7981 4.50146 7.01174 4.5012C8.34674 4.50105 9.64633 4.50046 10.5005 4.5C11.0531 4.4997 11.4999 4.94771 11.4999 5.50047V5.74987C11.4999 6.30236 11.9479 6.75023 12.5002 6.75039C14.1091 6.75084 15.5295 6.75223 16.9882 6.75264C19.2019 6.75325 20.9973 8.54902 20.9959 10.7635Z" stroke="currentColor" stroke-miterlimit="10" stroke-linecap="round" stroke-linejoin="round"/>
</svg>
