<svg width="24" height="25" viewBox="0 0 24 25" fill="none" xmlns="http://www.w3.org/2000/svg">
<path d="M20.9999 17.5C20.9999 13.7492 20.9958 10.8123 20.9965 7.5118C20.997 5.29818 19.202 3.50265 16.9884 3.50416C14.3274 3.50597 11.6664 3.50597 9.00547 3.50415C6.7942 3.50264 5 5.29424 5 7.50552V8.50004M20.9999 17.5H18C17.4477 17.5 17 17.9478 17 18.5V21.5M20.9999 17.5L17 21.5M17 21.5C14.4955 21.5 11.7038 21.4978 9.00537 21.4977C6.7941 21.4977 5 19.7058 5 17.4946V17M9 10L5.75098 11.67M5.75098 13.3301L9 15M10.5 17.0001C10.7967 17.0001 11.0867 16.9121 11.3333 16.7473C11.58 16.5824 11.7723 16.3481 11.8858 16.074C11.9994 15.8 12.0291 15.4984 11.9712 15.2075C11.9133 14.9165 11.7704 14.6492 11.5607 14.4394C11.3509 14.2296 11.0836 14.0868 10.7926 14.0289C10.5017 13.971 10.2001 14.0007 9.92596 14.1142C9.65187 14.2277 9.41763 14.42 9.25281 14.6667C9.08798 14.9134 9 15.2034 9 15.5001C9 15.8979 9.15803 16.2794 9.43933 16.5607C9.72063 16.842 10.1022 17.0001 10.5 17.0001ZM10.5 11.0001C10.7967 11.0001 11.0867 10.9121 11.3333 10.7473C11.58 10.5824 11.7723 10.3481 11.8858 10.074C11.9994 9.79995 12.0291 9.49843 11.9712 9.20746C11.9133 8.91649 11.7704 8.64918 11.5607 8.4394C11.3509 8.22962 11.0836 8.08675 10.7926 8.02887C10.5017 7.971 10.2001 8.00067 9.92596 8.1142C9.65187 8.22773 9.41763 8.42002 9.25281 8.66669C9.08798 8.91337 9 9.20339 9 9.50007C9 9.89789 9.15803 10.2794 9.43933 10.5607C9.72063 10.842 10.1022 11.0001 10.5 11.0001ZM4.5 14.0001C4.79667 14.0001 5.08667 13.9121 5.33334 13.7473C5.58002 13.5824 5.7723 13.3481 5.88583 13.074C5.99936 12.8 6.02907 12.4984 5.97119 12.2075C5.91331 11.9165 5.77045 11.6492 5.56067 11.4394C5.35089 11.2296 5.0836 11.0868 4.79263 11.0289C4.50166 10.971 4.20005 11.0007 3.92596 11.1142C3.65188 11.2277 3.41763 11.42 3.25281 11.6667C3.08799 11.9134 3 12.2034 3 12.5001C3 12.8979 3.15803 13.2794 3.43933 13.5607C3.72064 13.842 4.10218 14.0001 4.5 14.0001Z" stroke="currentColor" stroke-linecap="round" stroke-linejoin="round"/>
</svg>
