<svg width="24" height="25" viewBox="0 0 24 25" fill="none" xmlns="http://www.w3.org/2000/svg">
<path d="M8.00011 9.00004H12.0001M16.0001 21.5C13.4975 21.5 10.7081 21.4978 8.01151 21.4977C5.79789 21.4977 4.003 19.7016 4.00513 17.488C4.00844 14.0356 4.00844 10.9645 4.00513 7.5121C4.003 5.29848 5.79798 3.50264 8.0116 3.50415C10.6706 3.50596 13.3295 3.50596 15.9885 3.50415C18.2021 3.50264 19.9971 5.29817 19.9966 7.51179C19.9959 10.8123 20 13.7492 20 17.5M16.0001 21.5V18.5C16.0001 17.9478 16.4478 17.5 17.0001 17.5H20M16.0001 21.5L20 17.5" stroke="currentColor" stroke-linecap="round" stroke-linejoin="round"/>
</svg>
