<svg width="24" height="25" viewBox="0 0 24 25" fill="none" xmlns="http://www.w3.org/2000/svg">
<path d="M16 14.8333V12.5M16 12.5L18 14.3268M16 12.5L14 14.3268M16.0001 17.5V16.6111M3 15.504C3 14.4108 3.00095 13.4611 3.00143 12.5117C3.00226 10.8508 4.34861 9.50344 6.0089 9.50491C10.218 9.50863 13.782 9.50863 17.9911 9.50491C19.6514 9.50344 20.9976 10.8508 20.9985 12.5117C20.999 13.4404 21 14.3698 21 15.504M20.9959 10.764C20.9946 12.7313 20.9946 14.5254 20.9959 16.4926C20.9973 18.7071 19.2014 20.5028 16.9878 20.5005C13.5354 20.4969 10.4645 20.4969 7.01211 20.5005C4.79846 20.5028 3.00248 18.7066 3.00415 16.4921C3.00624 13.7377 3.00624 11.2681 3.00415 8.51366C3.00248 6.29918 4.7981 4.50195 7.01174 4.50169C8.34674 4.50153 9.64633 4.50095 10.5005 4.50049C11.0531 4.50019 11.4999 4.9482 11.4999 5.50096V5.75036C11.4999 6.30285 11.9479 6.75072 12.5002 6.75088C14.1091 6.75133 15.5295 6.75272 16.9882 6.75313C19.2019 6.75374 20.9973 8.5495 20.9959 10.764Z" stroke="currentColor" stroke-miterlimit="10" stroke-linecap="round" stroke-linejoin="round"/>
</svg>
