<svg width="24" height="25" viewBox="0 0 24 25" fill="none" xmlns="http://www.w3.org/2000/svg">
<path d="M7.00006 16C7.00006 14.8954 7.95945 14 9.14292 14C9.30585 14 9.46129 14.058 9.59246 14.1482C10.0663 14.4741 10.652 14.6668 11.2858 14.6668H12.7143C13.3482 14.6668 13.9338 14.4741 14.4077 14.1482C14.5388 14.058 14.6943 14 14.8572 14C16.0407 14 17.0001 14.8954 17.0001 16M12 13C10.3431 13 9 11.6569 9 10C9 8.34314 10.3431 7 12 7C13.6569 7 15 8.34314 15 10C15 11.6569 13.6569 13 12 13ZM12 20.5C7.58172 20.5 4 16.9183 4 12.5C4 8.08172 7.58172 4.5 12 4.5C16.4183 4.5 20 8.08172 20 12.5C20 16.9183 16.4183 20.5 12 20.5Z" stroke="currentColor" stroke-linecap="round" stroke-linejoin="round"/>
</svg>
