<svg width="24" height="25" viewBox="0 0 24 25" fill="none" xmlns="http://www.w3.org/2000/svg">
<path d="M17.1487 9.49641C17.6906 8.985 17.9963 8.29434 18 7.57341V7.21292C17.9981 6.49415 17.692 5.80543 17.1487 5.29841C16.8823 5.04457 16.5644 4.8432 16.2139 4.7061C15.8633 4.569 15.4871 4.499 15.1073 4.50007M6.85127 9.49641C6.30942 8.985 6.00372 8.29434 6 7.57341V7.21292C6.00186 6.49415 6.30803 5.80543 6.85127 5.29841C7.11772 5.04457 7.43558 4.8432 7.78612 4.7061C8.13666 4.569 8.51292 4.499 8.89273 4.50007M16.7285 12.4898H17.7585C18.6454 12.518 19.4849 12.8972 20.0924 13.5442C20.6999 14.1911 21.0257 15.0527 20.9982 15.9398C21.0061 16.2275 20.9021 16.5072 20.7082 16.7198C20.5095 16.9289 20.2364 17.0512 19.9482 17.0599M7.2798 12.4898H6.23985C5.3529 12.518 4.51344 12.8972 3.90595 13.5442C3.29846 14.1911 2.97266 15.0527 3.00014 15.9398C2.99221 16.2275 3.0962 16.5072 3.29016 16.7198C3.48876 16.9289 3.76188 17.0512 4.0501 17.0599M8.57143 15.5001C7.15127 15.5001 6 16.6193 6 18.0001C6 19.3808 7.15127 20.5001 8.57143 20.5001H15.4286C16.8487 20.5001 18 19.3808 18 18.0001C18 16.6193 16.8487 15.5001 15.4286 15.5001C15.233 15.5001 15.0465 15.5725 14.8891 15.6853C14.3205 16.0927 13.6177 16.3335 12.8571 16.3335H11.1429C10.3823 16.3335 9.67953 16.0927 9.11088 15.6853C8.95348 15.5725 8.76695 15.5001 8.57143 15.5001ZM12.1695 5.88972C12.5845 5.88945 12.9955 5.971 13.379 6.12971C13.7625 6.28842 14.1109 6.52116 14.4043 6.81465C14.6978 7.10813 14.9305 7.45665 15.0892 7.84016C15.2479 8.22367 15.3294 8.63471 15.3292 9.04976V9.46968C15.3317 9.88536 15.2517 10.2974 15.0938 10.682C14.9359 11.0665 14.7032 11.4159 14.4093 11.7098C14.1154 12.0037 13.7661 12.2365 13.3816 12.3944C12.9971 12.5523 12.5852 12.6322 12.1695 12.6297C11.7556 12.6306 11.3456 12.5498 10.963 12.3919C10.5803 12.2341 10.2325 12.0022 9.93962 11.7097C9.34775 11.114 9.01383 10.3095 9.00977 9.46968V9.04976C9.0118 8.21251 9.34623 7.41026 9.93962 6.81965C10.2307 6.52398 10.5779 6.28941 10.9608 6.12971C11.3437 5.97001 11.7547 5.88846 12.1695 5.88972Z" stroke="currentColor" stroke-linecap="round" stroke-linejoin="round"/>
</svg>
