<svg width="24" height="25" viewBox="0 0 24 25" fill="none" xmlns="http://www.w3.org/2000/svg">
<path d="M7.99997 8.5C7.99997 10.7091 9.79083 12.5 12 12.5C14.2091 12.5 16 10.7091 16 8.5M7.99997 8.5C7.99997 6.29086 9.79083 4.5 12 4.5C14.2091 4.5 16 6.29086 16 8.5M7.99997 8.5C7.99997 8.5 7.5 11 6.5 12C6.5 12 8.5 13.5 10 12M16 8.5C16 8.5 16.5 11.002 17.5 12.0028C17.5 12.0028 15.5 13.504 14 12.0028M16 8.5C16 8.5 14 9 13 7M13.5 20.5L16 20.4995C17.6569 20.4995 19 19.1564 19 17.4995C19 15.8427 17.6569 14.4995 16 14.4995C15.7719 14.4995 15.5543 14.5865 15.3706 14.7218C15.0244 14.977 14.6355 15.1777 14.2167 15.3113C13.495 15.5414 12.786 15.9277 12.4472 16.6053L11.0529 19.3941C10.7141 20.0719 10.0213 20.4999 9.26363 20.4998L8 20.4995C6.34315 20.4995 5 19.1564 5 17.4995C5 15.8427 6.34315 14.4995 8 14.4995C8.22811 14.4995 8.44573 14.5865 8.62936 14.7218C9.11553 15.0801 9.68571 15.331 10.3049 15.4395M14.5 5.5C14.5 5.5 12.5 8 8.5 7.5" stroke="currentColor" stroke-linecap="round" stroke-linejoin="round"/>
</svg>
