<svg width="24" height="25" viewBox="0 0 24 25" fill="none" xmlns="http://www.w3.org/2000/svg">
<path d="M18 17.4482V16.9742C18 15.6077 16.8923 14.5 15.5258 14.5H14M18 17.4482C18 18.5528 17.1046 19.4482 16 19.4483M18 17.4482C19.1046 17.4481 20 16.5528 20 15.4482V14.9742C20 13.6077 18.8923 12.5 17.5258 12.5H16M12.9999 11.3456C13.4179 11.2126 13.8019 10.9967 14.1213 10.7092C14.6839 10.2029 14.9999 9.51608 14.9999 8.8V8.2C14.9999 7.48392 14.6839 6.79714 14.1213 6.2908C13.5587 5.78445 12.7956 5.5 11.9999 5.5C11.2043 5.5 10.4412 5.78445 9.87861 6.2908C9.47981 6.64971 9.20489 7.09928 9.07861 7.58569M11 5.58569C11.1263 5.09928 11.4012 4.64971 11.8 4.2908C12.3626 3.78445 13.1257 3.5 13.9213 3.5C14.717 3.5 15.4801 3.78445 16.0427 4.2908C16.6053 4.79714 16.9213 5.48392 16.9213 6.2V6.8C16.9213 7.51608 16.6053 8.20286 16.0427 8.7092C15.7434 8.97854 15.3874 9.18509 15 9.31944M6.57143 16.5C5.15127 16.5 4 17.6193 4 19C4 20.3807 5.15127 21.5 6.57143 21.5H13.4286C14.8487 21.5 16 20.3807 16 19C16 17.6193 14.8487 16.5 13.4286 16.5C13.233 16.5 13.0465 16.5725 12.8891 16.6852C12.3205 17.0927 11.6177 17.3335 10.8571 17.3335H9.14286C8.38227 17.3335 7.67953 17.0927 7.11088 16.6852C6.95348 16.5725 6.76695 16.5 6.57143 16.5ZM10 13.5C9.20435 13.5 8.44127 13.2156 7.87866 12.7092C7.31605 12.2029 7 11.5161 7 10.8V10.2C7 9.48392 7.31605 8.79714 7.87866 8.2908C8.44127 7.78445 9.20435 7.5 10 7.5C10.7956 7.5 11.5587 7.78445 12.1213 8.2908C12.6839 8.79714 13 9.48392 13 10.2V10.8C13 11.5161 12.6839 12.2029 12.1213 12.7092C11.5587 13.2156 10.7956 13.5 10 13.5Z" stroke="currentColor" stroke-linecap="round" stroke-linejoin="round"/>
</svg>
