<svg width="24" height="25" viewBox="0 0 24 25" fill="none" xmlns="http://www.w3.org/2000/svg">
<path d="M17 18.3288C18.1652 17.917 19 16.8057 19 15.4995C19 13.8427 17.6569 12.4995 16 12.4995C15.7719 12.4995 15.5543 12.5865 15.3706 12.7218C14.7072 13.2107 13.8874 13.4997 13 13.4997H11C10.1127 13.4997 9.29278 13.2107 8.62936 12.7218C8.44573 12.5865 8.22811 12.4995 8 12.4995C6.34315 12.4995 5 13.8427 5 15.4995C5 16.8057 5.83481 17.917 7 18.3288M12 11.5C9.79086 11.5 8 9.70914 8 7.5C8 5.29086 9.79086 3.5 12 3.5C14.2091 3.5 16 5.29086 16 7.5C16 9.70914 14.2091 11.5 12 11.5ZM10.2053 17.662C9.59572 17.9717 9.35909 18.667 9.58288 19.3387C9.91754 20.343 12 21.5 12 21.5C12 21.5 14.0824 20.343 14.4171 19.3387C14.6408 18.667 14.4046 17.972 13.795 17.6621C12.5662 17.0375 12 18.4197 12 18.4197C12 18.4197 11.4346 17.0375 10.2053 17.662Z" stroke="currentColor" stroke-linecap="round" stroke-linejoin="round"/>
</svg>
