<svg width="24" height="25" viewBox="0 0 24 25" fill="none" xmlns="http://www.w3.org/2000/svg">
<path d="M16 8.5C16 10.7091 14.2091 12.5 12 12.5C9.79083 12.5 7.99997 10.7091 7.99997 8.5C7.99997 6.29086 9.79083 4.5 12 4.5C14.2091 4.5 16 6.29086 16 8.5ZM16 8.5C16 8.5 14 9 13 7M14.5 5.5C14.5 5.5 12.5 8 8.5 7.5M8 14.4995C6.34315 14.4995 5 15.8427 5 17.4995C5 19.1564 6.34315 20.4995 8 20.4995H16C17.6569 20.4995 19 19.1564 19 17.4995C19 15.8427 17.6569 14.4995 16 14.4995C15.7719 14.4995 15.5543 14.5865 15.3706 14.7218C14.7072 15.2107 13.8874 15.4997 13 15.4997H11C10.1127 15.4997 9.29278 15.2107 8.62936 14.7218C8.44572 14.5865 8.22811 14.4995 8 14.4995Z" stroke="currentColor" stroke-linecap="round" stroke-linejoin="round"/>
</svg>
