<svg width="24" height="25" viewBox="0 0 24 25" fill="none" xmlns="http://www.w3.org/2000/svg">
<path d="M16.831 15.7202C16.5054 15.0031 15.7442 14.5 14.8571 14.5C14.6942 14.5 14.5388 14.558 14.4076 14.6482C13.9337 14.9741 13.3481 15.1668 12.7143 15.1668H11.2857C10.6519 15.1668 10.0663 14.9741 9.5924 14.6482C9.46123 14.558 9.3058 14.5 9.14286 14.5C8.25581 14.5 7.49464 15.0031 7.169 15.7202M5 10.409V14.591C5 15.955 5.68471 17.2155 6.7962 17.8975L10.2038 19.9885C11.3153 20.6705 12.6847 20.6705 13.7962 19.9885L17.2038 17.8975C18.3153 17.2155 19 15.955 19 14.591V10.409C19 9.04497 18.3153 7.78452 17.2038 7.10249L13.7962 5.01152C12.6847 4.32949 11.3153 4.32949 10.2038 5.01152L6.7962 7.10249C5.68471 7.78452 5 9.04497 5 10.409ZM12 13.5C10.3431 13.5 9 12.1569 9 10.5C9 8.84314 10.3431 7.5 12 7.5C13.6569 7.5 15 8.84314 15 10.5C15 12.1569 13.6569 13.5 12 13.5Z" stroke="currentColor" stroke-linecap="round" stroke-linejoin="round"/>
</svg>
