<svg width="24" height="25" viewBox="0 0 24 25" fill="none" xmlns="http://www.w3.org/2000/svg">
<path d="M8 18.4995C6.34315 18.4995 5 17.1564 5 15.4995C5 13.8427 6.34315 12.4995 8 12.4995C8.22811 12.4995 8.44573 12.5865 8.62936 12.7218C9.29278 13.2107 10.1127 13.4997 11 13.4997H13C13.8874 13.4997 14.7072 13.2107 15.3706 12.7218C15.5543 12.5865 15.7719 12.4995 16 12.4995C17.6569 12.4995 19 13.8427 19 15.4995C19 17.1564 17.6569 18.4995 16 18.4995M10.5 21.5L13.5 18.5M13.5 21.5L10.5 18.5M12 11.5C9.79086 11.5 8 9.70914 8 7.5C8 5.29086 9.79086 3.5 12 3.5C14.2091 3.5 16 5.29086 16 7.5C16 9.70914 14.2091 11.5 12 11.5Z" stroke="currentColor" stroke-linecap="round" stroke-linejoin="round"/>
</svg>
