<svg width="24" height="25" viewBox="0 0 24 25" fill="none" xmlns="http://www.w3.org/2000/svg">
<path d="M9 10C9 8.34314 10.3431 7 12 7C13.6569 7 15 8.34314 15 10C15 11.6569 13.6569 13 12 13C10.3431 13 9 11.6569 9 10Z" stroke="currentColor" stroke-linecap="round" stroke-linejoin="round"/>
<path d="M9.5924 14.1482C9.46123 14.058 9.30579 14 9.14286 14C7.95939 14 7 14.8954 7 16C7 17.1046 7.95939 18 9.14286 18H14.8571C16.0406 18 17 17.1046 17 16C17 14.8954 16.0406 14 14.8571 14C14.6942 14 14.5388 14.058 14.4076 14.1482C13.9337 14.4741 13.3481 14.6668 12.7143 14.6668H11.2857C10.6519 14.6668 10.0663 14.4741 9.5924 14.1482Z" stroke="currentColor" stroke-linecap="round" stroke-linejoin="round"/>
<path d="M4 8.5C4 6.29086 5.79086 4.5 8 4.5H16C18.2091 4.5 20 6.29086 20 8.5V16.5C20 18.7091 18.2091 20.5 16 20.5H8C5.79086 20.5 4 18.7091 4 16.5V8.5Z" stroke="currentColor" stroke-linecap="round" stroke-linejoin="round"/>
</svg>
