<svg width="24" height="25" viewBox="0 0 24 25" fill="none" xmlns="http://www.w3.org/2000/svg">
<path d="M17 18.3288C18.1652 17.917 19 16.8057 19 15.4995C19 13.8427 17.6569 12.4995 16 12.4995C15.7719 12.4995 15.5543 12.5865 15.3706 12.7218C14.7072 13.2107 13.8874 13.4997 13 13.4997H11C10.1127 13.4997 9.29278 13.2107 8.62936 12.7218C8.44573 12.5865 8.22811 12.4995 8 12.4995C6.34315 12.4995 5 13.8427 5 15.4995C5 16.8057 5.83481 17.917 7 18.3288M12 11.5C9.79086 11.5 8 9.70914 8 7.5C8 5.29086 9.79086 3.5 12 3.5C14.2091 3.5 16 5.29086 16 7.5C16 9.70914 14.2091 11.5 12 11.5ZM10.8889 17.9451L9.83174 18.1053C9.51435 18.1534 9.38761 18.5603 9.61728 18.7938L10.3822 19.5716C10.4734 19.6644 10.5151 19.798 10.4935 19.9289L10.3129 21.0272C10.2587 21.357 10.5905 21.6084 10.8744 21.4527L11.8199 20.9342C11.9327 20.8724 12.0673 20.8724 12.1801 20.9342L13.1256 21.4527C13.4095 21.6084 13.7413 21.357 13.6871 21.0272L13.5065 19.9289C13.485 19.798 13.5266 19.6644 13.6178 19.5716L14.3827 18.7938C14.6124 18.5603 14.4857 18.1534 14.1683 18.1053L13.1111 17.9451C12.9851 17.926 12.8761 17.8434 12.8198 17.7243L12.347 16.725C12.2051 16.425 11.7949 16.425 11.653 16.725L11.1802 17.7243C11.1239 17.8434 11.0149 17.926 10.8889 17.9451Z" stroke="currentColor" stroke-linecap="round" stroke-linejoin="round"/>
</svg>
