<svg width="24" height="25" viewBox="0 0 24 25" fill="none" xmlns="http://www.w3.org/2000/svg">
<path d="M14.0001 18.4999C14.0001 18.0294 14.1106 17.5655 14.3226 17.1454C14.534 16.7256 14.8426 16.3624 15.2225 16.0857C15.8 15.6592 16.5115 15.4544 17.2273 15.5085C17.9432 15.5627 18.6158 15.8721 19.1225 16.3806C19.2233 16.48 19.4999 16.7506 19.6939 16.9555M19.6939 16.9555L19.6584 15.8058M19.6939 16.9555L18.5439 16.9905M20.0001 18.5001C20 18.9706 19.8895 19.4345 19.6776 19.8546C19.4662 20.2745 19.1577 20.6378 18.7776 20.9143C18.2001 21.3408 17.4887 21.5456 16.7728 21.4915C16.0569 21.4373 15.3844 21.1279 14.8777 20.6194C14.777 20.5199 14.5001 20.2495 14.3062 20.0446M14.3062 20.0446L14.3417 21.1943M14.3062 20.0446L15.4562 20.0096M12.0001 19.4995H7.00006C5.34321 19.4995 4.00006 18.1564 4.00006 16.4995C4.00006 14.8427 5.34321 13.4995 7.00006 13.4995C7.22817 13.4995 7.44579 13.5865 7.62942 13.7218C8.29284 14.2107 9.11271 14.4997 10.0001 14.4997H12.0001C12.8874 14.4997 13.7073 14.2107 14.3707 13.7218C14.5543 13.5865 14.7719 13.4995 15.0001 13.4995C15.4019 13.4995 15.7852 13.5785 16.1354 13.7218M11.0001 11.5C8.79098 11.5 7.00012 9.70914 7.00012 7.5C7.00012 5.29086 8.79098 3.5 11.0001 3.5C13.2093 3.5 15.0001 5.29086 15.0001 7.5C15.0001 9.70914 13.2093 11.5 11.0001 11.5Z" stroke="currentColor" stroke-linecap="round" stroke-linejoin="round"/>
</svg>
