<svg width="24" height="25" viewBox="0 0 24 25" fill="none" xmlns="http://www.w3.org/2000/svg">
<path d="M17 18.3288C18.1652 17.917 19 16.8057 19 15.4995C19 13.8427 17.6569 12.4995 16 12.4995C15.7719 12.4995 15.5543 12.5865 15.3706 12.7218C14.7072 13.2107 13.8874 13.4997 13 13.4997H11C10.1127 13.4997 9.29278 13.2107 8.62936 12.7218C8.44573 12.5865 8.22811 12.4995 8 12.4995C6.34315 12.4995 5 13.8427 5 15.4995C5 16.8057 5.83481 17.917 7 18.3288M12.6153 18.0998L11.8998 18.9998L11.4998 18.5998M12 11.5C9.79086 11.5 8 9.70914 8 7.5C8 5.29086 9.79086 3.5 12 3.5C14.2091 3.5 16 5.29086 16 7.5C16 9.70914 14.2091 11.5 12 11.5ZM10.7593 16.3892C10.9944 16.392 11.2205 16.2983 11.3848 16.1301C11.7221 15.7846 12.2779 15.7846 12.6153 16.1301C12.7795 16.2983 13.0056 16.392 13.2407 16.3892C13.7236 16.3834 14.1166 16.7764 14.1108 17.2593C14.108 17.4944 14.2017 17.7205 14.3699 17.8848C14.7155 18.2221 14.7155 18.7779 14.3699 19.1152C14.2017 19.2795 14.108 19.5056 14.1108 19.7407C14.1166 20.2236 13.7236 20.6166 13.2407 20.6108C13.0056 20.608 12.7795 20.7017 12.6153 20.8699C12.2779 21.2154 11.7221 21.2154 11.3848 20.8699C11.2205 20.7017 10.9944 20.608 10.7593 20.6108C10.2764 20.6166 9.88342 20.2236 9.88917 19.7407C9.89197 19.5056 9.79834 19.2795 9.63008 19.1152C9.28455 18.7779 9.28455 18.2221 9.63008 17.8848C9.79834 17.7205 9.89197 17.4944 9.88917 17.2593C9.88342 16.7764 10.2764 16.3834 10.7593 16.3892Z" stroke="currentColor" stroke-linecap="round" stroke-linejoin="round"/>
</svg>
