<svg width="24" height="25" viewBox="0 0 24 25" fill="none" xmlns="http://www.w3.org/2000/svg">
<path d="M8 9.5V11.5M16 9.5V11.5M12 9.5V12.7L11 13.5M8 15.5C8.47186 16.1223 9.07783 16.6262 9.7713 16.9729C10.4648 17.3197 11.2272 17.5 12 17.5C12.7728 17.5 13.5352 17.3197 14.2287 16.9729C14.9222 16.6262 15.5281 16.1223 16 15.5M4 8.94444V8.05555C4 6.09188 5.59188 4.5 7.55555 4.5H8.44444M20 16.0556V16.9444C20 18.9081 18.4081 20.5 16.4444 20.5H15.5556M8.44444 20.5H7.55555C5.59188 20.5 4 18.9081 4 16.9444V16.0556M15.5556 4.5H16.4444C18.4081 4.5 20 6.09188 20 8.05555V8.94444" stroke="currentColor" stroke-linecap="round" stroke-linejoin="round"/>
</svg>
