<svg width="24" height="25" viewBox="0 0 24 25" fill="none" xmlns="http://www.w3.org/2000/svg">
<path d="M9.25454 9.5356C9.25454 9.5356 7 9.13677 7 11.0089C7 12.4084 8.34122 12.3432 9.68681 11.957M9.68681 11.957C10.4262 11.5523 11 11.4999 11 11.4999C10.5961 11.6595 10.1412 11.8266 9.68681 11.957ZM9.68681 11.957C8.79285 12.4463 7.65678 13.4506 7 15.5M16.773 9.73467C16.773 9.73467 15.8665 9.2066 15.269 9.73476C14.6715 10.2629 14.6715 11.1193 15.269 11.6474C15.8665 12.1756 17 11.6474 17 11.6474C17 11.6474 14.7752 13.0481 13.2969 10.358M13.2969 10.358C13.194 10.1707 13.0947 9.96352 13 9.73467C13.105 9.93108 13.2045 10.1347 13.2969 10.358ZM13.2969 10.358C13.7021 11.3372 13.9707 12.6967 13.9707 15.5M4 8.94444V8.05555C4 6.09188 5.59188 4.5 7.55555 4.5H8.44444M20 16.0556V16.9444C20 18.9081 18.4081 20.5 16.4444 20.5H15.5556M8.44444 20.5H7.55555C5.59188 20.5 4 18.9081 4 16.9444V16.0556M15.5556 4.5H16.4444C18.4081 4.5 20 6.09188 20 8.05555V8.94444" stroke="currentColor" stroke-linecap="round" stroke-linejoin="round"/>
</svg>
