<svg width="24" height="25" viewBox="0 0 24 25" fill="none" xmlns="http://www.w3.org/2000/svg">
<path d="M17 13.6786V16.8752M7 13.9294V11.8004C7 10.439 7.51507 9.13336 8.43192 8.1707C9.34876 7.20805 10.5923 6.6672 11.8889 6.6672H12C12.6493 6.6595 13.2937 6.78616 13.8964 7.03996C14.4991 7.29377 15.0483 7.66976 15.5126 8.14642C15.9769 8.62309 16.3472 9.19109 16.6025 9.81804C16.8577 10.445 16.9927 11.1186 17 11.8004M9.09323 10.8205C8.99484 11.1329 8.94458 11.4598 8.94434 11.7888V15.2537C8.94405 15.3878 8.969 15.5207 9.01775 15.6447C9.06651 15.7686 9.13812 15.8813 9.22846 15.9762C9.3188 16.071 9.42606 16.1462 9.54415 16.1974C9.66223 16.2486 9.78881 16.2748 9.91656 16.2745C10.0443 16.2748 10.1709 16.2486 10.289 16.1974C10.4071 16.1462 10.5143 16.071 10.6047 15.9762C10.695 15.8813 10.7666 15.7686 10.8154 15.6447C10.8641 15.5207 10.8891 15.3878 10.8888 15.2537V11.8063C10.8885 11.6722 10.9134 11.5393 10.9622 11.4153C11.011 11.2913 11.0826 11.1787 11.1729 11.0838C11.2632 10.989 11.3705 10.9138 11.4886 10.8626C11.6067 10.8114 11.7333 10.7852 11.861 10.7855C11.9888 10.7851 12.1154 10.8113 12.2335 10.8624C12.3516 10.9136 12.4589 10.9887 12.5493 11.0836C12.6396 11.1785 12.7112 11.2912 12.76 11.4152C12.8087 11.5392 12.8336 11.6722 12.8332 11.8063V15.2712C12.8325 16.0831 12.525 16.8616 11.9782 17.4358C11.4313 18.0099 10.6899 18.3328 9.91656 18.3336C9.28965 18.3325 8.67967 18.1199 8.17662 17.7271C7.67357 17.3343 7.30409 16.7821 7.12268 16.152M14.076 18.3334C14.4905 17.7327 14.7338 17.0206 14.7777 16.2802V11.7887C14.7772 10.9767 14.4699 10.1982 13.9231 9.62396C13.3763 9.04976 12.6348 8.72689 11.8615 8.72627C11.3359 8.72464 10.82 8.8739 10.3693 9.15792M4 8.94432V8.05543C4 6.09175 5.59188 4.49988 7.55555 4.49988H8.44444M20 16.0554V16.9443C20 18.908 18.4081 20.4999 16.4444 20.4999H15.5556M8.44444 20.4999H7.55555C5.59188 20.4999 4 18.908 4 16.9443V16.0554M15.5556 4.49988H16.4444C18.4081 4.49988 20 6.09175 20 8.05543V8.94432" stroke="currentColor" stroke-linecap="round" stroke-linejoin="round"/>
</svg>
