<svg width="24" height="25" viewBox="0 0 24 25" fill="none" xmlns="http://www.w3.org/2000/svg">
<path d="M4 8.94444V8.05555C4 6.09188 5.59188 4.5 7.55555 4.5H8.44444M20 16.0556V16.9444C20 18.9081 18.4081 20.5 16.4444 20.5H15.5556M8.44444 20.5H7.55555C5.59188 20.5 4 18.9081 4 16.9444V16.0556M15.5556 4.5H16.4444C18.4081 4.5 20 6.09188 20 8.05555V8.94444M12 9.5C15.3138 9.5 18 12.5 18 12.5C18 12.5 15.3138 15.5 12 15.5C8.6862 15.5 6 12.5 6 12.5C6 12.5 8.6862 9.5 12 9.5ZM12 14.5C12.3955 14.5 12.7822 14.3827 13.1111 14.1629C13.44 13.9432 13.6964 13.6308 13.8478 13.2654C13.9991 12.8999 14.0387 12.4977 13.9616 12.1098C13.8844 11.7218 13.6939 11.3655 13.4142 11.0858C13.1345 10.8061 12.7781 10.6156 12.3902 10.5384C12.0022 10.4612 11.6001 10.5009 11.2346 10.6523C10.8692 10.8036 10.5568 11.0599 10.3371 11.3888C10.1173 11.7177 10 12.1044 10 12.5C10 13.0304 10.2107 13.5392 10.5858 13.9142C10.9608 14.2893 11.4696 14.5 12 14.5Z" stroke="currentColor" stroke-linecap="round" stroke-linejoin="round"/>
</svg>
