<svg width="24" height="25" viewBox="0 0 24 25" fill="none" xmlns="http://www.w3.org/2000/svg">
<path d="M17 11C17 11 17.5 11.5745 17.5 12.5C17.5 13.4255 17 14 17 14M14 10.5C14 10.5 15 11.0907 15 12.5C15 13.9093 14 14.5 14 14.5M8 8.5L16 16.5M4 8.94444V8.05555C4 6.09188 5.59188 4.5 7.55555 4.5H8.44444M20 16.0556V16.9444C20 18.9081 18.4081 20.5 16.4444 20.5H15.5556M8.44444 20.5H7.55555C5.59188 20.5 4 18.9081 4 16.9444V16.0556M15.5556 4.5H16.4444C18.4081 4.5 20 6.09188 20 8.05555V8.94444M12 12.5C12 14.1569 10.6569 15.5 9 15.5C7.34314 15.5 6 14.1569 6 12.5C6 10.8431 7.34314 9.5 9 9.5" stroke="currentColor" stroke-linecap="round" stroke-linejoin="round"/>
</svg>
