<svg width="24" height="25" viewBox="0 0 24 25" fill="none" xmlns="http://www.w3.org/2000/svg">
<path d="M7 12.5H11V15.5H7V12.5ZM7 12.5V9.5H11M4 8.94444V8.05555C4 6.09188 5.59188 4.5 7.55555 4.5H8.44444M20 16.0556V16.9444C20 18.9081 18.4081 20.5 16.4444 20.5H15.5556M8.44444 20.5H7.55555C5.59188 20.5 4 18.9081 4 16.9444V16.0556M15.5556 4.5H16.4444C18.4081 4.5 20 6.09188 20 8.05555V8.94444M13 9.5V12.3235H17M17 12.3235V15.5M17 12.3235V9.5" stroke="currentColor" stroke-linecap="round" stroke-linejoin="round"/>
</svg>
