<svg width="24" height="25" viewBox="0 0 24 25" fill="none" xmlns="http://www.w3.org/2000/svg">
<path d="M13 16.5V14.25C12.9997 14.1511 13.019 14.0532 13.0567 13.9618C13.0944 13.8704 13.1499 13.7874 13.2198 13.7175C13.3621 13.5797 13.5519 13.5017 13.75 13.5H16M4 8.94444V8.05555C4 6.09188 5.59188 4.5 7.55555 4.5H8.44444M20 16.0556V16.9444C20 18.9081 18.4081 20.5 16.4444 20.5H15.5556M8.44444 20.5H7.55555C5.59188 20.5 4 18.9081 4 16.9444V16.0556M15.5556 4.5H16.4444C18.4081 4.5 20 6.09188 20 8.05555V8.94444M16 15.4999V16.4999H15M10.25 13.5H8.75C8.55109 13.5 8.36033 13.579 8.21968 13.7196C8.07903 13.8603 8 14.0511 8 14.25V15.75C8 15.9489 8.07903 16.1397 8.21968 16.2804C8.36033 16.421 8.55109 16.5 8.75 16.5H10.25C10.4489 16.5 10.6397 16.421 10.7803 16.2804C10.921 16.1397 11 15.9489 11 15.75V14.25C11 14.0511 10.921 13.8603 10.7803 13.7196C10.6397 13.579 10.4489 13.5 10.25 13.5ZM15.25 8.5H13.75C13.5511 8.5 13.3603 8.57898 13.2197 8.71963C13.079 8.86029 13 9.05109 13 9.25V10.75C13 10.9489 13.079 11.1397 13.2197 11.2804C13.3603 11.421 13.5511 11.5 13.75 11.5H15.25C15.4489 11.5 15.6397 11.421 15.7803 11.2804C15.921 11.1397 16 10.9489 16 10.75V9.25C16 9.05109 15.921 8.86029 15.7803 8.71963C15.6397 8.57898 15.4489 8.5 15.25 8.5ZM10.25 8.5H8.75C8.55109 8.5 8.36033 8.57898 8.21968 8.71963C8.07903 8.86029 8 9.05109 8 9.25V10.75C8 10.9489 8.07903 11.1397 8.21968 11.2804C8.36033 11.421 8.55109 11.5 8.75 11.5H10.25C10.4489 11.5 10.6397 11.421 10.7803 11.2804C10.921 11.1397 11 10.9489 11 10.75V9.25C11 9.05109 10.921 8.86029 10.7803 8.71963C10.6397 8.57898 10.4489 8.5 10.25 8.5Z" stroke="currentColor" stroke-linecap="round" stroke-linejoin="round"/>
</svg>
