<svg width="24" height="25" viewBox="0 0 24 25" fill="none" xmlns="http://www.w3.org/2000/svg">
<path d="M4 8.94444V8.05555C4 6.09188 5.59188 4.5 7.55555 4.5H8.44444M20 16.0556V16.9444C20 18.9081 18.4081 20.5 16.4444 20.5H15.5556M8.44444 20.5H7.55555C5.59188 20.5 4 18.9081 4 16.9444V16.0556M15.5556 4.5H16.4444C18.4081 4.5 20 6.09188 20 8.05555V8.94444M14.5 15L16 16.5M14 11.5C14 13.1569 12.6569 14.5 11 14.5C9.34314 14.5 8 13.1569 8 11.5C8 9.84314 9.34314 8.5 11 8.5C12.6569 8.5 14 9.84314 14 11.5Z" stroke="currentColor" stroke-linecap="round" stroke-linejoin="round"/>
</svg>
