<svg width="24" height="25" viewBox="0 0 24 25" fill="none" xmlns="http://www.w3.org/2000/svg">
<path d="M16 11.6111C16 12.6425 15.5786 13.6316 14.8284 14.3609C14.0783 15.0903 13.0609 15.5 12 15.5M12 15.5C10.9391 15.5 9.92172 15.0903 9.17158 14.3609C8.42143 13.6316 8 12.6425 8 11.6111M12 15.5V17.5M4 8.94444V8.05555C4 6.09188 5.59188 4.5 7.55555 4.5H8.44444M20 16.0556V16.9444C20 18.9081 18.4081 20.5 16.4444 20.5H15.5556M8.44444 20.5H7.55555C5.59188 20.5 4 18.9081 4 16.9444V16.0556M15.5556 4.5H16.4444C18.4081 4.5 20 6.09188 20 8.05555V8.94444M10 17.5H14M14 9.65385C14 9.08261 13.7893 8.5348 13.4142 8.13088C13.0391 7.72695 12.5304 7.5 12 7.5C11.4696 7.5 10.9609 7.72695 10.5858 8.13088C10.2107 8.5348 10 9.08261 10 9.65385V11.3462C10 11.9174 10.2107 12.4652 10.5858 12.8691C10.9609 13.273 11.4696 13.5 12 13.5C12.5304 13.5 13.0391 13.273 13.4142 12.8691C13.7893 12.4652 14 11.9174 14 11.3462V9.65385Z" stroke="currentColor" stroke-linecap="round" stroke-linejoin="round"/>
</svg>
