<svg width="24" height="25" viewBox="0 0 24 25" fill="none" xmlns="http://www.w3.org/2000/svg">
<path d="M16 17.2866C16.6308 17.22 17.2037 17.144 17.7061 17.0679C19.0643 16.8622 20 15.671 20 14.2973V8.70269C20 7.32901 19.0638 6.13769 17.7056 5.93203C16.2777 5.7158 14.2811 5.5 12 5.5C9.71888 5.5 7.72234 5.7158 6.29435 5.93203C4.93615 6.13769 4 7.32901 4 8.7027V14.2973C4 15.671 4.93571 16.8622 6.29391 17.0679C6.79633 17.144 7.36916 17.22 8 17.2866M4 11.5H20M4 9.5H20M12 15.5V19.5M10 17.5H14" stroke="currentColor" stroke-linecap="round" stroke-linejoin="round"/>
</svg>
