<svg width="24" height="25" viewBox="0 0 24 25" fill="none" xmlns="http://www.w3.org/2000/svg">
<path d="M9 9.5C9 9.5 7.23467 9.48919 6.81533 9.59208C5.56452 9.89835 4.6061 10.9369 4.48436 12.2284L4.01303 17.2284C3.84742 18.9852 5.28179 20.5 7.11102 20.5H16.889C18.7182 20.5 20.1526 18.9852 19.987 17.2284L19.5156 12.2284C19.3939 10.9369 18.4355 9.89835 17.1847 9.59208C16.9389 9.5319 16.6819 9.5 16.4177 9.5H9ZM9 9.5V7.5C9 5.84315 10.3431 4.5 12 4.5C13.6569 4.5 15 5.84315 15 7.5V9.5M15 12.5V11.5M9 12.5V11.5M4 17.5H15" stroke="currentColor" stroke-linecap="round" stroke-linejoin="round"/>
</svg>
