<svg width="24" height="25" viewBox="0 0 24 25" fill="none" xmlns="http://www.w3.org/2000/svg">
<path d="M6.64774 8.07344L18.8439 6.27133C19.5036 6.17245 20.0737 6.73565 19.9922 7.39805C19.8308 8.71082 19.6994 9.96818 19.5436 11.2706C19.4249 12.2626 18.5786 13 17.5799 13H7.4983M6.64774 8.07344L7.4983 13M6.64774 8.07344H6.51593C5.61937 8.07344 4.83247 7.47622 4.59086 6.61242L4 4.5M7.4983 13L7.71962 14.3284C7.88029 15.2927 8.71426 15.9995 9.69144 15.9995H18.4929M15 7L16 13M11 7.5L12 13M18 19.5C18 20.0523 17.5523 20.5 17 20.5C16.4477 20.5 16 20.0523 16 19.5C16 18.9477 16.4477 18.5 17 18.5C17.5523 18.5 18 18.9477 18 19.5ZM10 19.5C10 20.0523 9.55228 20.5 9 20.5C8.44771 20.5 8 20.0523 8 19.5C8 18.9477 8.44771 18.5 9 18.5C9.55228 18.5 10 18.9477 10 19.5Z" stroke="currentColor" stroke-linecap="round" stroke-linejoin="round"/>
</svg>
