<svg width="24" height="25" viewBox="0 0 24 25" fill="none" xmlns="http://www.w3.org/2000/svg">
<path d="M17.6988 19.135L15.507 18.026M20.0001 17.4715L18.0001 16.5M8.93164 8.6635V5.1635M11.6714 7V3.5M14 9.5L15.6097 10.7382C15.8558 10.9275 16 11.2204 16 11.5309V13.5M12 13.5H11M5 7.93555V14.624C5 16.6879 6.13278 18.5811 7.94008 19.5376L9.75771 20.4996M8 10.9318V14.0682C8 15.0913 8.53799 16.0366 9.4113 16.5481L12.0887 18.1164C12.962 18.6279 14.038 18.6279 14.9113 18.1164L17.5887 16.5481C18.462 16.0366 19 15.0913 19 14.0682V10.9318C19 9.90873 18.462 8.96339 17.5887 8.45187L14.9113 6.88364C14.038 6.37212 12.962 6.37212 12.0887 6.88364L9.4113 8.45187C8.53798 8.96339 8 9.90873 8 10.9318ZM7 20C7 20.8284 6.32843 21.5 5.5 21.5C4.67157 21.5 4 20.8284 4 20C4 19.1716 4.67157 18.5 5.5 18.5C6.32843 18.5 7 19.1716 7 20Z" stroke="currentColor" stroke-linecap="round" stroke-linejoin="round"/>
</svg>
