<svg width="24" height="25" viewBox="0 0 24 25" fill="none" xmlns="http://www.w3.org/2000/svg">
<path d="M7 9V7.00646C7 5.9314 7.70211 4.99906 8.72076 4.83811C9.79175 4.66888 11.2892 4.5 13 4.5C14.7108 4.5 16.2082 4.66888 17.2792 4.83811C18.2979 4.99906 19 5.9314 19 7.00646V9M5 14.5H21M5 12.5H21M7 7H19M13 20.5C15.2811 20.5 17.2777 20.2842 18.7057 20.068C20.0639 19.8623 21 18.671 21 17.2973V11.7027C21 10.329 20.0639 9.13769 18.7057 8.93202C17.2777 8.71579 15.2811 8.5 13 8.5C10.7189 8.5 8.72234 8.71579 7.29435 8.93202C5.93615 9.13769 5 10.329 5 11.7027V17.2973C5 18.671 5.93615 19.8623 7.29435 20.068C8.72234 20.2842 10.7189 20.5 13 20.5Z" stroke="currentColor" stroke-linecap="round" stroke-linejoin="round"/>
</svg>
