<svg width="24" height="25" viewBox="0 0 24 25" fill="none" xmlns="http://www.w3.org/2000/svg">
<path d="M4 12.5H20M4 10.5H20M12 18.5C14.2811 18.5 16.2777 18.2842 17.7057 18.068C19.0639 17.8623 20 16.671 20 15.2973V9.70269C20 8.32901 19.0638 7.13769 17.7057 6.93203C16.2777 6.7158 14.2811 6.5 12 6.5C9.71888 6.5 7.72234 6.7158 6.29435 6.93203C4.93615 7.13769 4 8.32901 4 9.7027V15.2973C4 16.671 4.93615 17.8623 6.29435 18.068C7.72234 18.2842 9.71888 18.5 12 18.5Z" stroke="currentColor" stroke-linecap="round" stroke-linejoin="round"/>
</svg>
