<svg width="24" height="25" viewBox="0 0 24 25" fill="none" xmlns="http://www.w3.org/2000/svg">
<path d="M14.8234 16.2866C15.9369 16.1954 16.8659 16.0961 17.615 16.0031C19.0141 15.8294 20 14.6284 20 13.2185V7.70269C20 6.32901 19.0638 5.13769 17.7056 4.93203C16.2777 4.7158 14.2811 4.5 12 4.5C9.71888 4.5 7.72234 4.7158 6.29435 4.93203C4.93615 5.13769 4 6.32901 4 7.70269V13.1927C4 14.6143 5.00066 15.8259 6.41135 16.0016C7.16191 16.095 8.08499 16.1949 9.17676 16.2866M11 18L12 17.5V16.5M4 10.5H20M4 8.5H20M15 17.5C15 19.1569 13.6569 20.5 12 20.5C10.3431 20.5 9 19.1569 9 17.5C9 15.8431 10.3431 14.5 12 14.5C13.6569 14.5 15 15.8431 15 17.5Z" stroke="currentColor" stroke-linecap="round" stroke-linejoin="round"/>
</svg>
