<svg width="24" height="25" viewBox="0 0 24 25" fill="none" xmlns="http://www.w3.org/2000/svg">
<path d="M4.97638 16C3.79219 15.6703 3 14.561 3 13.2973V7.70269C3 6.32901 3.93615 5.13769 5.29435 4.93203C6.72234 4.7158 8.71889 4.5 11 4.5C13.2811 4.5 15.2777 4.7158 16.7057 4.93203C18.0639 5.13769 19 6.32901 19 7.70269V9M5 14.5H21M5 12.5H21M3 8.5H19M3 10.5H5M13 20.5C15.2811 20.5 17.2777 20.2842 18.7057 20.068C20.0639 19.8623 21 18.671 21 17.2973V11.7027C21 10.329 20.0639 9.13769 18.7057 8.93202C17.2777 8.71579 15.2811 8.5 13 8.5C10.7189 8.5 8.72234 8.71579 7.29435 8.93202C5.93615 9.13769 5 10.329 5 11.7027V17.2973C5 18.671 5.93615 19.8623 7.29435 20.068C8.72234 20.2842 10.7189 20.5 13 20.5Z" stroke="currentColor" stroke-linecap="round" stroke-linejoin="round"/>
</svg>
