<svg width="24" height="25" viewBox="0 0 24 25" fill="none" xmlns="http://www.w3.org/2000/svg">
<path d="M16 15L15.5 18M12 15V18M8 15L8.5 18M15.5 8.5H18C19.1046 8.5 20 9.39543 20 10.5C20 11.0523 19.5523 11.5 19 11.5H5C4.44772 11.5 4 11.0523 4 10.5C4 9.39543 4.89543 8.5 6 8.5H6.5M8.5 8.5H13M10.5 4.5L8 9.5M13.5 4.5L16 9.5M7.60434 20.5H16.3957C17.3331 20.5 18.1447 19.8489 18.348 18.9339L19.7296 12.7169C19.8683 12.0924 19.3931 11.5 18.7534 11.5H5.24662C4.60687 11.5 4.13165 12.0924 4.27043 12.7169L5.65197 18.9339C5.85532 19.8489 6.66695 20.5 7.60434 20.5Z" stroke="currentColor" stroke-linecap="round" stroke-linejoin="round"/>
</svg>
