<svg width="24" height="25" viewBox="0 0 24 25" fill="none" xmlns="http://www.w3.org/2000/svg">
<path d="M7.5 14L8.18182 15.5L10.5 13.5M5 10.409V14.591C5 15.955 5.68471 17.2155 6.7962 17.8975L10.2038 19.9885C11.3153 20.6705 12.6847 20.6705 13.7962 19.9885L17.2038 17.8975C18.3153 17.2155 19 15.955 19 14.591V10.409C19 9.04497 18.3153 7.78452 17.2038 7.10249L13.7962 5.01152C12.6847 4.32949 11.3153 4.32949 10.2038 5.01152L6.7962 7.10249C5.68471 7.78452 5 9.04497 5 10.409ZM10.5 9L12.4378 7.83733C12.7792 7.63249 13.2096 7.64968 13.5335 7.88109L16.0812 9.70088C16.344 9.88859 16.5 10.1917 16.5 10.5146V14L14 15.5V12.0146C14 11.6917 13.844 11.3886 13.5812 11.2009L10.5 9Z" stroke="currentColor" stroke-linecap="round" stroke-linejoin="round"/>
</svg>
