<svg width="24" height="25" viewBox="0 0 24 25" fill="none" xmlns="http://www.w3.org/2000/svg">
<path d="M15.1108 9.5H16.4177C16.6819 9.5 16.9389 9.5319 17.1847 9.59208C18.4355 9.89835 19.3939 10.9369 19.5156 12.2284L19.987 17.2284C20.1526 18.9852 18.7182 20.5 16.889 20.5H7.11102C5.28179 20.5 3.84742 18.9852 4.01303 17.2284L4.48436 12.2284C4.6061 10.9369 5.56452 9.89835 6.81533 9.59208M9 9.5H12.5M10.5 17L12 15.5M12 15.5L13.5 14M12 15.5L10.5 14M12 15.5L13.5 17M15 11.5V7.5C15 5.84315 13.6569 4.5 12 4.5C10.3431 4.5 9 5.84315 9 7.5V11.5" stroke="currentColor" stroke-linecap="round" stroke-linejoin="round"/>
</svg>
