<svg width="24" height="25" viewBox="0 0 24 25" fill="none" xmlns="http://www.w3.org/2000/svg">
<path d="M6 10.3269V14.591C6 15.955 6.68471 17.2155 7.7962 17.8975L11.2038 19.9885C12.3153 20.6705 13.6847 20.6705 14.7962 19.9885L18.2038 17.8975C19.3153 17.2155 20 15.955 20 14.591V10.409C20 9.04497 19.3153 7.78452 18.2038 7.10249L14.7962 5.01152C13.6847 4.32949 12.3153 4.32949 11.2038 5.01152L9.5929 6M7.70711 6.79289L6.29289 8.20711M6.29289 6.79289L7.70711 8.20711M11 16.8L9 15.5M11 13.8L9 12.5M10 7.5C10 9.15685 8.65685 10.5 7 10.5C5.34315 10.5 4 9.15685 4 7.5C4 5.84315 5.34315 4.5 7 4.5C8.65685 4.5 10 5.84315 10 7.5ZM11.5 9L13.4378 7.83733C13.7792 7.63249 14.2096 7.64968 14.5335 7.88109L17.0812 9.70088C17.344 9.8886 17.5 10.1917 17.5 10.5146V14L15 15.5V12.0146C15 11.6917 14.844 11.3886 14.5812 11.2009L11.5 9Z" stroke="currentColor" stroke-linecap="round" stroke-linejoin="round"/>
</svg>
