<svg width="24" height="25" viewBox="0 0 24 25" fill="none" xmlns="http://www.w3.org/2000/svg">
<path d="M19.5241 10.8875C19.5241 11.9057 19.4202 15.0883 19.2814 16.2135C19.1126 17.5813 18.3347 18.7352 17.2217 19.5M4.47588 10.8877C4.47588 11.9058 4.57984 15.0884 4.71862 16.2135C4.88735 17.5813 5.66529 18.7352 6.77826 19.5M12 11.5C9.85022 11.5 8.27279 9.62039 8.7942 7.68005L9.47064 5.16278C9.57531 4.77326 9.9515 4.5 10.3831 4.5H13.617C14.0486 4.5 14.4247 4.77326 14.5294 5.16278L15.2059 7.68006C15.7273 9.62039 14.1498 11.5 12 11.5ZM17.8834 11.5C16.913 11.5 16.0672 10.8856 15.8319 10.0098L14.6434 5.58721C14.495 5.03496 14.944 4.5 15.5559 4.5H17.4616C17.8536 4.5 18.2045 4.72625 18.3422 5.06777L19.8634 8.84182C20.3819 10.128 19.3599 11.5 17.8834 11.5ZM6.11659 11.5C4.64011 11.5 3.61813 10.128 4.13656 8.84182L5.6578 5.06776C5.79546 4.72625 6.14638 4.5 6.53843 4.5H8.44413C9.056 4.5 9.50496 5.03496 9.35656 5.58722L8.16813 10.0098C7.93279 10.8856 7.08695 11.5 6.11659 11.5Z" stroke="currentColor" stroke-linecap="round" stroke-linejoin="round"/>
<path d="M11 18L12 17.5V16.5" stroke="currentColor" stroke-linecap="round" stroke-linejoin="round"/>
<path d="M15 17.5C15 19.1569 13.6569 20.5 12 20.5C10.3431 20.5 9 19.1569 9 17.5C9 15.8431 10.3431 14.5 12 14.5C13.6569 14.5 15 15.8431 15 17.5Z" stroke="currentColor" stroke-linecap="round" stroke-linejoin="round"/>
</svg>
