<svg width="24" height="25" viewBox="0 0 24 25" fill="none" xmlns="http://www.w3.org/2000/svg">
<path d="M16.5999 17.3418C16.5999 17.3418 17.0113 14.463 17.1109 12.6043C17.2099 10.7569 17.1109 7.8667 17.1109 7.8667M12.0002 17.8682V7.8667M12.0002 17.8682C7.99481 17.8682 4.84497 16.8154 4.84497 16.8154M12.0002 17.8682C16.0057 17.8682 19.1553 16.8154 19.1553 16.8154M7.40031 17.3418C7.40031 17.3418 6.98887 14.463 6.88923 12.6043C6.7902 10.7569 6.88923 7.8667 6.88923 7.8667M4.33398 10.4986C4.33398 10.4986 8.78192 11.5514 12.0002 11.5514C15.2185 11.5514 19.6664 10.4986 19.6664 10.4986M4.33398 13.6567C4.33398 13.6567 8.78192 14.7095 12.0002 14.7095C15.2185 14.7095 19.6664 13.6567 19.6664 13.6567M5.86714 7.86647C7.15928 7.86647 8.38136 7.26151 9.18855 6.22229L9.6056 5.68536C10.8332 4.10488 13.1671 4.10488 14.3946 5.68536L14.8117 6.22228C15.6189 7.26151 16.841 7.86647 18.1331 7.86647M9.54749 20.5002H14.4525C17.1106 20.5002 19.3249 18.4017 19.5457 15.6734L19.9928 10.1471C20.0921 8.91955 19.1515 7.8667 17.9555 7.8667H6.04447C4.84845 7.8667 3.90788 8.91955 4.0072 10.1471L4.45433 15.6734C4.67507 18.4017 6.88941 20.5002 9.54749 20.5002Z" stroke="currentColor" stroke-linecap="round" stroke-linejoin="round"/>
</svg>
