<svg width="24" height="25" viewBox="0 0 24 25" fill="none" xmlns="http://www.w3.org/2000/svg">
<path d="M14 17H16.5M16.5 17H19M16.5 17V14.5M16.5 17V19.5M7 20.5H8C9.65685 20.5 11 19.1569 11 17.5V16.5C11 14.8431 9.65685 13.5 8 13.5H7C5.34315 13.5 4 14.8431 4 16.5V17.5C4 19.1569 5.34315 20.5 7 20.5ZM7 11.5H8C9.65685 11.5 11 10.1569 11 8.5V7.5C11 5.84315 9.65685 4.5 8 4.5H7C5.34315 4.5 4 5.84315 4 7.5V8.5C4 10.1569 5.34315 11.5 7 11.5ZM16 11.5H17C18.6569 11.5 20 10.1569 20 8.5V7.5C20 5.84315 18.6569 4.5 17 4.5H16C14.3431 4.5 13 5.84315 13 7.5V8.5C13 10.1569 14.3431 11.5 16 11.5Z" stroke="currentColor" stroke-linecap="round" stroke-linejoin="round"/>
</svg>
