<svg width="24" height="25" viewBox="0 0 24 25" fill="none" xmlns="http://www.w3.org/2000/svg">
<path d="M4 6.5C4 5.39543 4.89543 4.5 6 4.5H8C9.10457 4.5 10 5.39543 10 6.5V7.5C10 8.60457 9.10457 9.5 8 9.5H6C4.89543 9.5 4 8.60457 4 7.5V6.5Z" stroke="currentColor" stroke-linecap="round" stroke-linejoin="round"/>
<path d="M4 14.5C4 13.3954 4.89543 12.5 6 12.5H8C9.10457 12.5 10 13.3954 10 14.5V18.5C10 19.6046 9.10457 20.5 8 20.5H6C4.89543 20.5 4 19.6046 4 18.5V14.5Z" stroke="currentColor" stroke-linecap="round" stroke-linejoin="round"/>
<path d="M14 6.5C14 5.39543 14.8954 4.5 16 4.5H18C19.1046 4.5 20 5.39543 20 6.5V10.5C20 11.6046 19.1046 12.5 18 12.5H16C14.8954 12.5 14 11.6046 14 10.5V6.5Z" stroke="currentColor" stroke-linecap="round" stroke-linejoin="round"/>
<path d="M14 17.5C14 16.3954 14.8954 15.5 16 15.5H18C19.1046 15.5 20 16.3954 20 17.5V18.5C20 19.6046 19.1046 20.5 18 20.5H16C14.8954 20.5 14 19.6046 14 18.5V17.5Z" stroke="currentColor" stroke-linecap="round" stroke-linejoin="round"/>
</svg>
