<svg width="24" height="25" viewBox="0 0 24 25" fill="none" xmlns="http://www.w3.org/2000/svg">
<path d="M13 16.5C13 14.8431 14.3431 13.5 16 13.5H17C18.6569 13.5 20 14.8431 20 16.5V17.5C20 19.1569 18.6569 20.5 17 20.5H16C14.3431 20.5 13 19.1569 13 17.5V16.5Z" stroke="currentColor" stroke-linecap="round" stroke-linejoin="round"/>
<path d="M4 16.5C4 14.8431 5.34315 13.5 7 13.5H8C9.65685 13.5 11 14.8431 11 16.5V17.5C11 19.1569 9.65685 20.5 8 20.5H7C5.34315 20.5 4 19.1569 4 17.5V16.5Z" stroke="currentColor" stroke-linecap="round" stroke-linejoin="round"/>
<path d="M4 7.5C4 5.84315 5.34315 4.5 7 4.5H8C9.65685 4.5 11 5.84315 11 7.5V8.5C11 10.1569 9.65685 11.5 8 11.5H7C5.34315 11.5 4 10.1569 4 8.5V7.5Z" stroke="currentColor" stroke-linecap="round" stroke-linejoin="round"/>
<path d="M13 7.5C13 5.84315 14.3431 4.5 16 4.5H17C18.6569 4.5 20 5.84315 20 7.5V8.5C20 10.1569 18.6569 11.5 17 11.5H16C14.3431 11.5 13 10.1569 13 8.5V7.5Z" stroke="currentColor" stroke-linecap="round" stroke-linejoin="round"/>
</svg>
