<svg width="24" height="25" viewBox="0 0 24 25" fill="none" xmlns="http://www.w3.org/2000/svg">
<path d="M4 6C4 5.17157 4.67157 4.5 5.5 4.5H18.5C19.3284 4.5 20 5.17157 20 6C20 6.82843 19.3284 7.5 18.5 7.5H5.5C4.67157 7.5 4 6.82843 4 6Z" stroke="currentColor" stroke-linecap="round" stroke-linejoin="round"/>
<path d="M4 12.5C4 11.6716 4.67157 11 5.5 11H18.5C19.3284 11 20 11.6716 20 12.5C20 13.3284 19.3284 14 18.5 14H5.5C4.67157 14 4 13.3284 4 12.5Z" stroke="currentColor" stroke-linecap="round" stroke-linejoin="round"/>
<path d="M4 19C4 18.1716 4.67157 17.5 5.5 17.5H18.5C19.3284 17.5 20 18.1716 20 19C20 19.8284 19.3284 20.5 18.5 20.5H5.5C4.67157 20.5 4 19.8284 4 19Z" stroke="currentColor" stroke-linecap="round" stroke-linejoin="round"/>
</svg>
