<svg width="24" height="25" viewBox="0 0 24 25" fill="none" xmlns="http://www.w3.org/2000/svg">
<path d="M11 5.5H13M10 21.5H14C16.2091 21.5 18 19.7091 18 17.5V7.5C18 5.29086 16.2091 3.5 14 3.5H10C7.79086 3.5 6 5.29086 6 7.5V17.5C6 19.7091 7.79086 21.5 10 21.5ZM12 19.5C12.1978 19.5 12.3913 19.4412 12.5557 19.3313C12.7202 19.2214 12.8482 19.0653 12.9239 18.8826C12.9996 18.6999 13.0194 18.4988 12.9808 18.3048C12.9422 18.1108 12.8469 17.9327 12.7071 17.7929C12.5672 17.653 12.3891 17.5578 12.1951 17.5192C12.0011 17.4806 11.8002 17.5004 11.6175 17.5761C11.4347 17.6518 11.2783 17.78 11.1685 17.9445C11.0586 18.1089 11 18.3023 11 18.5001C11 18.7653 11.1054 19.0195 11.293 19.2071C11.4805 19.3946 11.7348 19.5 12 19.5Z" stroke="currentColor" stroke-linecap="round" stroke-linejoin="round"/>
</svg>
