<svg width="24" height="25" viewBox="0 0 24 25" fill="none" xmlns="http://www.w3.org/2000/svg">
<path d="M14 3.5V4C14 4.55229 13.5522 5 13 5H11C10.4477 5 9.99995 4.55229 9.99995 4V3.5C9.72911 3.5 9.38492 3.50007 9.0071 3.50015C7.34758 3.50048 6.00162 4.84715 6.00293 6.50668C6.00581 10.1684 6.00598 13.8301 6.00361 17.4918C6.00218 19.7041 7.79576 21.4982 10.008 21.4976C11.3359 21.4972 12.6638 21.4972 13.9917 21.4976C16.2041 21.4982 17.9977 19.704 17.9962 17.4916C17.9938 13.829 17.994 10.1663 17.997 6.50359C17.9983 4.84533 16.654 3.5 14.9957 3.5C14.5614 3.5 14.1954 3.5 14 3.5Z" stroke="currentColor" stroke-linecap="round" stroke-linejoin="round"/>
</svg>
