<svg width="24" height="25" viewBox="0 0 24 25" fill="none" xmlns="http://www.w3.org/2000/svg">
<path d="M6 16.5L6.00088 17.5824C5.98919 18.0884 6.11006 18.5885 6.35107 19.0312C6.59208 19.4739 6.94453 19.8433 7.37221 20.1014C7.79989 20.3595 8.28738 20.4971 8.78458 20.5C9.28178 20.5028 9.77076 20.3708 10.2013 20.1176L18.6021 15.0401C19.0291 14.7742 19.3819 14.4011 19.6267 13.9566C19.8715 13.512 20 13.011 20 12.5014C20 11.9918 19.8715 11.4907 19.6267 11.0462C19.3819 10.6016 19.0291 10.2285 18.6021 9.96261L10.2013 4.88242C9.77043 4.62899 9.28104 4.49701 8.78345 4.50005C8.28587 4.50309 7.79807 4.64104 7.37025 4.89971C6.94243 5.15838 6.59005 5.52842 6.34936 5.97176C6.10868 6.41509 5.98839 6.9157 6.00088 7.42207V8.5M11 11.5L12.5 13M12.5 13L14 14.5M12.5 13L14 11.5M12.5 13L11 14.5M9 10.5H7V12.5383H9V14.5H7M4 10.5V14.5M5.5 14V14.5766" stroke="currentColor" stroke-linecap="round" stroke-linejoin="round"/>
</svg>
