<svg width="24" height="25" viewBox="0 0 24 25" fill="none" xmlns="http://www.w3.org/2000/svg">
<path d="M5 16.5L5.00088 17.5824C4.98919 18.0884 5.11006 18.5885 5.35107 19.0312C5.59208 19.4739 5.94453 19.8433 6.37221 20.1014C6.79989 20.3595 7.28738 20.4971 7.78458 20.5C8.28178 20.5028 8.77076 20.3708 9.20127 20.1176L17.6021 15.0401C18.0291 14.7742 18.3819 14.4011 18.6267 13.9566C18.8715 13.512 19 13.011 19 12.5014C19 11.9918 18.8715 11.4907 18.6267 11.0462C18.3819 10.6016 18.0291 10.2285 17.6021 9.96261L9.20127 4.88242C8.77044 4.62899 8.28104 4.49701 7.78346 4.50005C7.28587 4.50309 6.79807 4.64104 6.37025 4.89971C5.94243 5.15838 5.59005 5.52842 5.34936 5.97176C5.10868 6.41509 4.9884 6.9157 5.00088 7.42207V8.5M5 10.5H8V12.5383H5V14.5H8M10 11.5L11.5 13M11.5 13L13 14.5M11.5 13L13 11.5M11.5 13L10 14.5" stroke="currentColor" stroke-linecap="round" stroke-linejoin="round"/>
</svg>
