<svg width="24" height="25" viewBox="0 0 24 25" fill="none" xmlns="http://www.w3.org/2000/svg">
<path d="M7.49988 7.5H14.4999C18.0897 7.5 20.9999 10.4101 20.9999 14C20.9999 17.5899 18.0897 20.5 14.4999 20.5H12.9999M4.99988 20.5V15.618C4.99988 14.8747 4.21757 14.3912 3.55266 14.7236L2.99988 15M10.9999 14.5H7.66655C7.29836 14.5 6.99988 14.7985 6.99988 15.1667C6.99988 15.903 7.59683 16.5 8.33321 16.5H8.99988C10.1044 16.5 10.9999 17.3954 10.9999 18.5C10.9999 19.6046 10.1044 20.5 8.99988 20.5C7.89531 20.5 6.99988 19.6046 6.99988 18.5V18M6.99988 10.5L3.99988 7.5L6.99988 4.5M9.99988 10.5L6.99988 7.5L9.99988 4.5" stroke="currentColor" stroke-linecap="round" stroke-linejoin="round"/>
</svg>
