<svg width="24" height="25" viewBox="0 0 24 25" fill="none" xmlns="http://www.w3.org/2000/svg">
<path d="M7.49988 7.5H14.4999C18.0897 7.5 20.9999 10.4101 20.9999 14C20.9999 17.5899 18.0897 20.5 14.4999 20.5H12.9999M4.99988 20.5V15.618C4.99988 14.8747 4.21757 14.3912 3.55266 14.7236L2.99988 15M6.99988 10.5L3.99988 7.5L6.99988 4.5M9.99988 10.5L6.99988 7.5L9.99988 4.5M6.99988 16V19C6.99988 19.8284 7.67145 20.5 8.49988 20.5C9.32831 20.5 9.99988 19.8284 9.99988 19V16C9.99988 15.1716 9.32831 14.5 8.49988 14.5C7.67145 14.5 6.99988 15.1716 6.99988 16Z" stroke="currentColor" stroke-linecap="round" stroke-linejoin="round"/>
</svg>
