<svg width="24" height="25" viewBox="0 0 24 25" fill="none" xmlns="http://www.w3.org/2000/svg">
<path d="M11.2 10.9132C11.445 11.0821 11.6468 11.3164 11.7867 11.5941C11.9266 11.8718 12 12.184 12 12.5012C12 12.8185 11.9266 13.1306 11.7867 13.4084C11.6468 13.6861 11.445 13.9204 11.2 14.0893L6.40088 17.2641C6.15299 17.4214 5.87115 17.5029 5.58478 17.4999C5.29841 17.497 5.018 17.4098 4.77284 17.2475C4.52768 17.0851 4.32675 16.8536 4.19104 16.577C4.05532 16.3004 3.98979 15.989 4.00129 15.6751V9.32421C3.9899 9.01044 4.0555 8.69906 4.19126 8.42259C4.32702 8.14611 4.52796 7.91465 4.7731 7.75239C5.01824 7.59012 5.29861 7.50298 5.58493 7.50008C5.87125 7.49717 6.15304 7.57859 6.40088 7.73585L11.2 10.9132Z" stroke="currentColor" stroke-linecap="round" stroke-linejoin="round"/>
<path d="M19.2 10.9132C19.445 11.0821 19.6468 11.3164 19.7867 11.5941C19.9266 11.8718 20 12.184 20 12.5012C20 12.8185 19.9266 13.1306 19.7867 13.4084C19.6468 13.6861 19.445 13.9204 19.2 14.0893L14.4009 17.2641C14.153 17.4214 13.8711 17.5029 13.5848 17.4999C13.2984 17.497 13.018 17.4098 12.7728 17.2475C12.5277 17.0851 12.3268 16.8536 12.191 16.577C12.0553 16.3004 11.9898 15.989 12.0013 15.6751V9.32421C11.9899 9.01044 12.0555 8.69906 12.1913 8.42259C12.327 8.14611 12.528 7.91465 12.7731 7.75239C13.0182 7.59012 13.2986 7.50298 13.5849 7.50008C13.8712 7.49717 14.153 7.57859 14.4009 7.73585L19.2 10.9132Z" stroke="currentColor" stroke-linecap="round" stroke-linejoin="round"/>
</svg>
