<svg width="24" height="25" viewBox="0 0 24 25" fill="none" xmlns="http://www.w3.org/2000/svg">
<path d="M12.7999 10.9132C12.555 11.0821 12.3532 11.3164 12.2133 11.5941C12.0734 11.8718 12 12.184 12 12.5012C12 12.8185 12.0734 13.1306 12.2133 13.4084C12.3532 13.6861 12.555 13.9204 12.7999 14.0893L17.5991 17.2641C17.847 17.4214 18.1288 17.5029 18.4152 17.4999C18.7016 17.497 18.982 17.4098 19.2272 17.2475C19.4723 17.0851 19.6732 16.8536 19.809 16.577C19.9447 16.3004 20.0102 15.989 19.9987 15.6751V9.32421C20.0101 9.01044 19.9445 8.69906 19.8087 8.42259C19.673 8.14611 19.472 7.91465 19.2269 7.75239C18.9818 7.59012 18.7014 7.50298 18.4151 7.50008C18.1287 7.49717 17.847 7.57859 17.5991 7.73585L12.7999 10.9132Z" stroke="currentColor" stroke-linecap="round" stroke-linejoin="round"/>
<path d="M4.79995 10.9132C4.55503 11.0821 4.35319 11.3164 4.21328 11.5941C4.07338 11.8718 4 12.184 4 12.5012C4 12.8185 4.07338 13.1306 4.21328 13.4084C4.35319 13.6861 4.55503 13.9204 4.79995 14.0893L9.59912 17.2641C9.84701 17.4214 10.1288 17.5029 10.4152 17.4999C10.7016 17.497 10.982 17.4098 11.2272 17.2475C11.4723 17.0851 11.6732 16.8536 11.809 16.577C11.9447 16.3004 12.0102 15.989 11.9987 15.6751V9.32421C12.0101 9.01044 11.9445 8.69906 11.8087 8.42259C11.673 8.14611 11.472 7.91465 11.2269 7.75239C10.9818 7.59012 10.7014 7.50298 10.4151 7.50008C10.1287 7.49717 9.84696 7.57859 9.59912 7.73585L4.79995 10.9132Z" stroke="currentColor" stroke-linecap="round" stroke-linejoin="round"/>
</svg>
