<svg width="24" height="25" viewBox="0 0 24 25" fill="none" xmlns="http://www.w3.org/2000/svg">
<path d="M16.9999 7.5H9.49988C5.91003 7.5 2.99988 10.4101 2.99988 14C2.99988 17.5899 5.91003 20.5 9.49988 20.5H11.2962M16.9999 7.5L13.9999 10.5M16.9999 7.5L13.9999 4.5M15.9999 20.5V15.618C15.9999 14.8747 15.2176 14.3912 14.5527 14.7236L13.9999 15M16.9999 10.5L19.9999 7.5L16.9999 4.5M17.9999 19V16C17.9999 15.1716 18.6715 14.5 19.4999 14.5C20.3283 14.5 20.9999 15.1716 20.9999 16V19C20.9999 19.8284 20.3283 20.5 19.4999 20.5C18.6715 20.5 17.9999 19.8284 17.9999 19Z" stroke="currentColor" stroke-linecap="round" stroke-linejoin="round"/>
</svg>
