<svg width="24" height="25" viewBox="0 0 24 25" fill="none" xmlns="http://www.w3.org/2000/svg">
<path d="M16.9999 7.5H9.49988C5.91003 7.5 2.99988 10.4101 2.99988 14C2.99988 17.5899 5.91003 20.5 9.49988 20.5H11.2962M16.9999 7.5L13.9999 10.5M16.9999 7.5L13.9999 4.5M20.9999 14.5H17.6665C17.2984 14.5 16.9999 14.7985 16.9999 15.1667C16.9999 15.903 17.5968 16.5 18.3332 16.5H18.9999C20.1045 16.5 20.9999 17.3954 20.9999 18.5C20.9999 19.6046 20.1045 20.5 18.9999 20.5C17.8953 20.5 16.9999 19.6046 16.9999 18.5V18M14.9999 20.5V15.618C14.9999 14.8747 14.2176 14.3912 13.5527 14.7236L12.9999 15M16.9999 10.5L19.9999 7.5L16.9999 4.5" stroke="currentColor" stroke-linecap="round" stroke-linejoin="round"/>
</svg>
