<svg width="24" height="25" viewBox="0 0 24 25" fill="none" xmlns="http://www.w3.org/2000/svg">
<path d="M5 9H9L10.5 7.5L13.5 10.5L15.5 9H19M12 17.5C13.8565 17.5 15.637 16.7625 16.9497 15.4497C17.7792 14.6203 18.379 13.6041 18.7082 12.5M12 17.5C10.1435 17.5 8.36302 16.7625 7.05026 15.4497C6.22081 14.6203 5.62101 13.6041 5.29179 12.5M12 17.5V21.5M9 21.5H15M15.873 11.5C15.6958 12.186 15.338 12.8188 14.8284 13.3284C14.0783 14.0785 13.0609 14.5 12 14.5C10.9391 14.5 9.92172 14.0785 9.17157 13.3284C8.66203 12.8188 8.30416 12.186 8.12701 11.5M8.12701 6.5C8.30416 5.81399 8.66203 5.18117 9.17157 4.67163C9.92172 3.92149 10.9391 3.5 12 3.5C13.0609 3.5 14.0783 3.92149 14.8284 4.67163C15.338 5.18117 15.6958 5.81399 15.873 6.5" stroke="currentColor" stroke-linecap="round" stroke-linejoin="round"/>
</svg>
