<svg width="24" height="25" viewBox="0 0 24 25" fill="none" xmlns="http://www.w3.org/2000/svg">
<path d="M19 10.5C19 11.4836 18.793 12.4458 18.4031 13.3284M12 17.5C10.1435 17.5 8.36302 16.7625 7.05026 15.4497C5.73751 14.137 5 12.3565 5 10.5M12 17.5V21.5M12 17.5C12.3366 17.5 12.6707 17.4758 13 17.4282M9 21.5H15M16 10.5V7.5C16 6.43913 15.5786 5.42178 14.8284 4.67163C14.0783 3.92149 13.0609 3.5 12 3.5C10.9391 3.5 9.92172 3.92149 9.17157 4.67163C8.42143 5.42178 8 6.43913 8 7.5V10.5C8 11.5609 8.42143 12.5782 9.17157 13.3284C9.92172 14.0785 10.9391 14.5 12 14.5C12.3403 14.5 12.6761 14.4566 13 14.373M16 18V18.5M16 13V16" stroke="currentColor" stroke-linecap="round" stroke-linejoin="round"/>
</svg>
