<svg width="24" height="25" viewBox="0 0 24 25" fill="none" xmlns="http://www.w3.org/2000/svg">
<path d="M12 17.5C10.1435 17.5 8.36302 16.7625 7.05026 15.4497C5.73751 14.137 5 12.3565 5 10.5M12 17.5C13.3641 17.5 14.6872 17.1018 15.8139 16.3698M12 17.5V21.5M19 10.5C19 12.1523 18.4158 13.7443 17.3619 15M4 4.5L20 20.5M9 21.5H15M15.4641 12.5C15.8122 11.8971 16 11.2082 16 10.5V7.5C16 6.43913 15.5786 5.42178 14.8284 4.67163C14.0783 3.92149 13.0609 3.5 12 3.5C10.9391 3.5 9.92171 3.92149 9.17157 4.67163C8.86304 4.98016 8.61011 5.33389 8.41925 5.71727M8 10.5C8 11.5609 8.42142 12.5782 9.17157 13.3284C9.92171 14.0785 10.9391 14.5 12 14.5C12.5775 14.5 13.1421 14.3751 13.6577 14.1403L8 8.5V10.5Z" stroke="currentColor" stroke-linecap="round" stroke-linejoin="round"/>
</svg>
