<svg width="24" height="25" viewBox="0 0 24 25" fill="none" xmlns="http://www.w3.org/2000/svg">
<path d="M19 15.5L16.3333 18.5L15 17M19 10.5C19 11.1835 18.9 11.8567 18.7082 12.5M5 10.5C5 12.3565 5.73751 14.137 7.05026 15.4497C8.36302 16.7625 10.1435 17.5 12 17.5V21.5M9 21.5H15M16 7.5C16 6.43913 15.5786 5.42178 14.8284 4.67163C14.0783 3.92149 13.0609 3.5 12 3.5C10.9391 3.5 9.92172 3.92149 9.17157 4.67163C8.42143 5.42178 8 6.43913 8 7.5V10.5C8 11.5609 8.42143 12.5782 9.17157 13.3284C9.92172 14.0785 10.9391 14.5 12 14.5C13.0609 14.5 14.0783 14.0785 14.8284 13.3284C15.5786 12.5782 16 11.5609 16 10.5V7.5Z" stroke="currentColor" stroke-linecap="round" stroke-linejoin="round"/>
</svg>
