<svg width="24" height="25" viewBox="0 0 24 25" fill="none" xmlns="http://www.w3.org/2000/svg">
<path d="M11 11L12.5 12.5M12.5 12.5L14 14M12.5 12.5L14 11M12.5 12.5L11 14M11.2759 8.49998H8C6.89543 8.49998 6 9.39541 6 10.5V14.5C6 15.6045 6.89543 16.5 8 16.5H11.2759C11.7438 16.5 12.1968 16.664 12.5563 16.9635L14.7196 18.7663C16.0223 19.8519 18 18.9256 18 17.2299V7.77006C18 6.07438 16.0223 5.14807 14.7196 6.23361L12.5563 8.03642C12.1968 8.33594 11.7438 8.49998 11.2759 8.49998Z" stroke="currentColor" stroke-linecap="round" stroke-linejoin="round"/>
</svg>
