<svg width="24" height="25" viewBox="0 0 24 25" fill="none" xmlns="http://www.w3.org/2000/svg">
<path d="M19 11.5V13.5C19 15.3565 18.2625 17.1369 16.9497 18.4497C15.637 19.7625 13.8565 20.5 12 20.5C10.1435 20.5 8.36302 19.7625 7.05026 18.4497C5.73751 17.1369 5 15.3565 5 13.5V11.5M8 13.5V8.5C8 7.43913 8.42143 6.42178 9.17157 5.67163C9.92172 4.92149 10.9391 4.5 12 4.5C13.0609 4.5 14.0783 4.92149 14.8284 5.67163C15.5786 6.42178 16 7.43913 16 8.5V13.5M8 13.5C8 14.5609 8.42143 15.5782 9.17157 16.3284C9.92172 17.0785 10.9391 17.5 12 17.5C13.0609 17.5 14.0783 17.0785 14.8284 16.3284C15.5786 15.5782 16 14.5609 16 13.5M8 13.5H9M16 13.5H15M8 11.5H10M8 9.5H9M16 11.5H14M16 9.5H15" stroke="currentColor" stroke-linecap="round" stroke-linejoin="round"/>
</svg>
