<svg width="24" height="25" viewBox="0 0 24 25" fill="none" xmlns="http://www.w3.org/2000/svg">
<path d="M8 4.5H6C4.89543 4.5 4 5.39543 4 6.5V18.5C4 19.6046 4.89543 20.5 6 20.5H8C9.10457 20.5 10 19.6046 10 18.5V6.5C10 5.39543 9.10457 4.5 8 4.5Z" stroke="currentColor" stroke-linecap="round" stroke-linejoin="round"/>
<path d="M18 4.5H16C14.8954 4.5 14 5.39543 14 6.5V18.5C14 19.6046 14.8954 20.5 16 20.5H18C19.1046 20.5 20 19.6046 20 18.5V6.5C20 5.39543 19.1046 4.5 18 4.5Z" stroke="currentColor" stroke-linecap="round" stroke-linejoin="round"/>
</svg>
