<svg width="24" height="25" viewBox="0 0 24 25" fill="none" xmlns="http://www.w3.org/2000/svg">
<path d="M17.6021 15.0374C18.0291 14.7715 18.3819 14.3984 18.6267 13.9538C18.8715 13.5093 19 13.0082 19 12.4986C19 11.989 18.8715 11.488 18.6267 11.0434C18.3819 10.5989 18.0291 10.2258 17.6021 9.95987L9.20127 4.88235C8.77076 4.62915 8.28178 4.49719 7.78458 4.50005C7.28738 4.5029 6.79989 4.64046 6.37221 4.89859C5.94453 5.15673 5.59208 5.52612 5.35107 5.96882C5.11006 6.41152 4.98919 6.91156 5.00088 7.41755V17.5779C4.9884 18.0843 5.10868 18.5849 5.34936 19.0282C5.59005 19.4716 5.94243 19.8416 6.37025 20.1003C6.79807 20.359 7.28587 20.4969 7.78346 20.4999C8.28104 20.503 8.77044 20.371 9.20127 20.1176L17.6021 15.0374Z" stroke="currentColor" stroke-linecap="round" stroke-linejoin="round"/>
</svg>
