<svg width="24" height="25" viewBox="0 0 24 25" fill="none" xmlns="http://www.w3.org/2000/svg">
<path d="M9.99969 10.5958C9.69355 10.7985 9.44124 11.0797 9.26636 11.4129C9.09148 11.7462 8.99976 12.1207 8.99976 12.5015C8.99976 12.8822 9.09148 13.2568 9.26636 13.5901C9.44124 13.9233 9.69355 14.2045 9.99969 14.4072L15.9987 18.217C16.3085 18.4057 16.6608 18.5034 17.0188 18.4999C17.3767 18.4964 17.7273 18.3918 18.0337 18.1969C18.3402 18.0021 18.5913 17.7243 18.761 17.3924C18.9306 17.0605 19.0125 16.6868 18.9981 16.3102V8.68905C19.0124 8.31253 18.9304 7.93888 18.7607 7.6071C18.591 7.27533 18.3398 6.99758 18.0334 6.80286C17.7269 6.60814 17.3765 6.50358 17.0186 6.50009C16.6607 6.4966 16.3085 6.59431 15.9987 6.78302L9.99969 10.5958Z" stroke="currentColor" stroke-linecap="round" stroke-linejoin="round"/>
<path d="M6.33309 6.5H7.66642C8.4028 6.5 8.99976 7.17157 8.99976 8V17C8.99976 17.8284 8.4028 18.5 7.66642 18.5H6.33309C5.59671 18.5 4.99976 17.8284 4.99976 17V8C4.99976 7.17157 5.59671 6.5 6.33309 6.5Z" stroke="currentColor" stroke-linecap="round" stroke-linejoin="round"/>
</svg>
