<svg width="24" height="25" viewBox="0 0 24 25" fill="none" xmlns="http://www.w3.org/2000/svg">
<path d="M14.0001 10.5958C14.3062 10.7985 14.5585 11.0797 14.7334 11.4129C14.9083 11.7462 15 12.1207 15 12.5015C15 12.8822 14.9083 13.2568 14.7334 13.5901C14.5585 13.9233 14.3062 14.2045 14.0001 14.4072L8.0011 18.217C7.69124 18.4057 7.33894 18.5034 6.98097 18.4999C6.62301 18.4964 6.2725 18.3918 5.96605 18.1969C5.6596 18.0021 5.40844 17.7243 5.2388 17.3924C5.06915 17.0605 4.98724 16.6868 5.00161 16.3102V8.68905C4.98737 8.31253 5.06938 7.93888 5.23908 7.6071C5.40878 7.27533 5.65995 6.99758 5.96638 6.80286C6.27281 6.60814 6.62326 6.50358 6.98116 6.50009C7.33906 6.4966 7.6913 6.59431 8.0011 6.78302L14.0001 10.5958Z" stroke="currentColor" stroke-linecap="round" stroke-linejoin="round"/>
<path d="M17.6667 6.5H16.3333C15.597 6.5 15 7.17157 15 8V17C15 17.8284 15.597 18.5 16.3333 18.5H17.6667C18.403 18.5 19 17.8284 19 17V8C19 7.17157 18.403 6.5 17.6667 6.5Z" stroke="currentColor" stroke-linecap="round" stroke-linejoin="round"/>
</svg>
