<svg width="24" height="25" viewBox="0 0 24 25" fill="none" xmlns="http://www.w3.org/2000/svg">
<path d="M16.9226 14.5C17.232 14.012 17.5 13.3453 17.5 12.5C17.5 11.6547 17.232 10.988 16.9226 10.5M17 18.5C17 18.5 20 16.7 20 12.5C20 8.3 17 6.5 17 6.5M8.83624 8.93586H5.83333C4.82081 8.93586 4 9.73372 4 10.7179V14.2821C4 15.2663 4.82081 16.0641 5.83333 16.0641H8.83624C9.26512 16.0641 9.68043 16.2103 10.0099 16.4772L11.993 18.0835C13.1871 19.0508 15 18.2254 15 16.7145V8.28548C15 6.77457 13.1871 5.94919 11.993 6.91645L10.0099 8.52281C9.68043 8.7897 9.26512 8.93586 8.83624 8.93586Z" stroke="currentColor" stroke-linecap="round" stroke-linejoin="round"/>
</svg>
