<svg width="24" height="25" viewBox="0 0 24 25" fill="none" xmlns="http://www.w3.org/2000/svg">
<path d="M18.4227 14.5C18.7321 14.012 19 13.3453 19 12.5C19 11.6547 18.7321 10.988 18.4227 10.5M9.83624 8.93586H6.83333C5.82081 8.93586 5 9.73372 5 10.7179V14.2821C5 15.2663 5.82081 16.0641 6.83333 16.0641H9.83624C10.2651 16.0641 10.6804 16.2103 11.0099 16.4772L12.993 18.0835C14.1871 19.0508 16 18.2254 16 16.7145V8.28548C16 6.77457 14.1871 5.94919 12.993 6.91645L11.0099 8.52281C10.6804 8.7897 10.2651 8.93586 9.83624 8.93586Z" stroke="currentColor" stroke-linecap="round" stroke-linejoin="round"/>
</svg>
