<svg width="24" height="25" viewBox="0 0 24 25" fill="none" xmlns="http://www.w3.org/2000/svg">
<path d="M10 12.5H12M12 12.5H14M12 12.5V10.5M12 12.5V14.5M11.1552 7.74781H7.33333C6.04467 7.74781 5 8.81163 5 10.1239V14.8761C5 16.1884 6.04467 17.2522 7.33333 17.2522H11.1552C11.7011 17.2522 12.2296 17.4471 12.649 17.8029L15.1729 19.9447C16.6927 21.2344 19 20.1339 19 18.1194V6.88064C19 4.8661 16.6927 3.76559 15.1729 5.05527L12.649 7.19708C12.2296 7.55293 11.7011 7.74781 11.1552 7.74781Z" stroke="currentColor" stroke-linecap="round" stroke-linejoin="round"/>
</svg>
