<svg width="24" height="25" viewBox="0 0 24 25" fill="none" xmlns="http://www.w3.org/2000/svg">
<path d="M13.4286 9.57143L10.5714 12.4286M4 8.50195C4 6.29173 5.79086 4.5 8 4.5H15.9955C18.2046 4.5 19.9955 6.29173 19.9955 8.50195V13.5044C19.9955 15.7146 18.2046 17.5063 15.9955 17.5063H10.7569C10.4872 17.5063 10.2289 17.6154 10.0407 17.8087L7.71628 20.1957C7.09018 20.8386 6 20.3951 6 19.4975V17.548C6 17.1909 5.80335 16.8684 5.52319 16.647C4.59545 15.9142 4 14.7788 4 13.5044V8.50195ZM14.5 11C14.5 12.3807 13.3807 13.5 12 13.5C10.6193 13.5 9.5 12.3807 9.5 11C9.5 9.61929 10.6193 8.5 12 8.5C13.3807 8.5 14.5 9.61929 14.5 11Z" stroke="currentColor" stroke-linecap="round" stroke-linejoin="round"/>
</svg>
