<svg width="24" height="25" viewBox="0 0 24 25" fill="none" xmlns="http://www.w3.org/2000/svg">
<path d="M17 18.374C18.7252 17.9299 20 16.3638 20 14.5V8.5C20 6.29086 18.2091 4.5 16 4.5H8C5.79086 4.5 4 6.29086 4 8.5V14.5C4 16.3638 5.27477 17.9299 7 18.374M17 8.5L13.029 10.8826C12.3956 11.2626 11.6044 11.2626 10.971 10.8826L7 8.5M14 20.5V16.5C14 15.9477 13.5523 15.5 13 15.5H11C10.4477 15.5 10 15.9477 10 16.5V20.5L11.47 19.5812C11.7943 19.3786 12.2057 19.3786 12.53 19.5812L14 20.5Z" stroke="currentColor" stroke-linecap="round" stroke-linejoin="round"/>
</svg>
