<svg width="24" height="25" viewBox="0 0 24 25" fill="none" xmlns="http://www.w3.org/2000/svg">
<path d="M17 18.374C18.7252 17.9299 20 16.3638 20 14.5V8.5C20 6.29086 18.2091 4.5 16 4.5H8C5.79086 4.5 4 6.29086 4 8.5V14.5C4 16.3638 5.27477 17.9299 7 18.374M12 17.5L13 18.5M17 8.5L13.029 10.8826C12.3956 11.2626 11.6044 11.2626 10.971 10.8826L7 8.5M11.249 20.5L13.7469 18.0021C13.7469 18.0021 14.3163 17.3227 13.7469 16.7531C13.1775 16.1836 12.498 16.7531 12.498 16.7531L10 19.251V20.5H11.249Z" stroke="currentColor" stroke-linecap="round" stroke-linejoin="round"/>
</svg>
