<svg width="24" height="25" viewBox="0 0 24 25" fill="none" xmlns="http://www.w3.org/2000/svg">
<path d="M8 4.5C5.79086 4.5 4 6.29173 4 8.50195V13.5044C4 14.7788 4.59545 15.9142 5.52319 16.647C5.80335 16.8684 6 17.1909 6 17.548V19.4975C6 20.3951 7.09018 20.8386 7.71628 20.1957L10.0407 17.8087C10.2289 17.6154 10.4872 17.5063 10.7569 17.5063H15.9955C18.2046 17.5063 19.9955 15.7146 19.9955 13.5044V8.50195C19.9955 6.29173 18.2046 4.5 15.9955 4.5H8Z" stroke="currentColor" stroke-linecap="round" stroke-linejoin="round"/>
<path d="M10.2053 9.16201C11.4346 8.53754 12 9.9197 12 9.9197C12 9.9197 12.5662 8.5375 13.7949 9.16206C14.4046 9.47196 14.6408 10.167 14.4171 10.8387C14.0824 11.843 12 13 12 13C12 13 9.91754 11.843 9.58288 10.8387C9.35909 10.167 9.59572 9.47165 10.2053 9.16201Z" stroke="currentColor" stroke-linecap="round" stroke-linejoin="round"/>
</svg>
