<svg width="24" height="25" viewBox="0 0 24 25" fill="none" xmlns="http://www.w3.org/2000/svg">
<path d="M17 18.374C18.7252 17.9299 20 16.3638 20 14.5V8.5C20 6.29086 18.2091 4.5 16 4.5H8C5.79086 4.5 4 6.29086 4 8.5V14.5C4 16.3638 5.27477 17.9299 7 18.374M17 8.5L13.029 10.8826C12.3956 11.2626 11.6044 11.2626 10.971 10.8826L7 8.5M10.2053 16.662C9.59572 16.9717 9.35909 17.667 9.58288 18.3387C9.91754 19.343 12 20.5 12 20.5C12 20.5 14.0824 19.343 14.4171 18.3387C14.6408 17.667 14.4046 16.972 13.7949 16.6621C12.5662 16.0375 12 17.4197 12 17.4197C12 17.4197 11.4346 16.0375 10.2053 16.662Z" stroke="currentColor" stroke-linecap="round" stroke-linejoin="round"/>
</svg>
