<svg width="24" height="25" viewBox="0 0 24 25" fill="none" xmlns="http://www.w3.org/2000/svg">
<path d="M17 18.374C18.7252 17.9299 20 16.3638 20 14.5V8.5C20 6.29086 18.2091 4.5 16 4.5H8C5.79086 4.5 4 6.29086 4 8.5V14.5C4 16.3638 5.27477 17.9299 7 18.374M11.1123 18.1123L12.0003 17.5002V16.4063M17 8.5L13.029 10.8826C12.3956 11.2626 11.6044 11.2626 10.971 10.8826L7 8.5M12 20.5C12.5933 20.5 13.1733 20.324 13.6667 19.9944C14.16 19.6648 14.5446 19.1963 14.7717 18.6481C14.9987 18.0999 15.0581 17.4966 14.9424 16.9147C14.8266 16.3327 14.5409 15.7982 14.1213 15.3787C13.7018 14.9591 13.1672 14.6734 12.5853 14.5576C12.0033 14.4419 11.4001 14.5013 10.8519 14.7284C10.3037 14.9555 9.83526 15.3399 9.50561 15.8333C9.17597 16.3266 9 16.9067 9 17.5C9 18.2957 9.31605 19.0587 9.87866 19.6214C10.4413 20.184 11.2043 20.5 12 20.5Z" stroke="currentColor" stroke-linecap="round" stroke-linejoin="round"/>
</svg>
