<svg width="24" height="25" viewBox="0 0 24 25" fill="none" xmlns="http://www.w3.org/2000/svg">
<path d="M15 5.5H8C5.79086 5.5 4 7.29086 4 9.5V15.5C4 17.7091 5.79086 19.5 8 19.5H16C18.2091 19.5 20 17.7091 20 15.5V10.5M7 9.5L10.971 11.8826C11.6044 12.2626 12.3956 12.2626 13.029 11.8826L15.75 10.25M20 7C20 7.82843 19.3284 8.5 18.5 8.5C17.6716 8.5 17 7.82843 17 7C17 6.17157 17.6716 5.5 18.5 5.5C19.3284 5.5 20 6.17157 20 7Z" stroke="currentColor" stroke-linecap="round" stroke-linejoin="round"/>
</svg>
