<svg width="24" height="25" viewBox="0 0 24 25" fill="none" xmlns="http://www.w3.org/2000/svg">
<path d="M17 18.374C18.7252 17.9299 20 16.3638 20 14.5V8.5C20 6.29086 18.2091 4.5 16 4.5H8C5.79086 4.5 4 6.29086 4 8.5V14.5C4 16.3638 5.27477 17.9299 7 18.374M10.5 16.1C10.5 15.2163 11.1716 14.5 12 14.5C12.8284 14.5 13.5 15.2163 13.5 16.1C13.5 16.6442 12.931 17.125 12.4939 17.414C12.2031 17.6064 12 17.9393 12 18.3098M12 20.1V20.5M17 8.5L13.029 10.8826C12.3956 11.2626 11.6044 11.2626 10.971 10.8826L7 8.5" stroke="currentColor" stroke-linecap="round" stroke-linejoin="round"/>
</svg>
