<svg width="24" height="25" viewBox="0 0 24 25" fill="none" xmlns="http://www.w3.org/2000/svg">
<path d="M20 8.5V16.5C20 18.7091 18.2091 20.5 16 20.5H8C5.79086 20.5 4 18.7091 4 16.5V8.5M20 8.5C20 6.29086 18.2091 4.5 16 4.5H15M20 8.5V11.5C20 13.7091 18.2091 15.5 16 15.5H15.5365C15.1127 15.5 14.7481 15.7774 14.5172 16.1328C13.9822 16.9558 13.0547 17.5 12 17.5C10.9453 17.5 10.0178 16.9558 9.48283 16.1328C9.25186 15.7774 8.88735 15.5 8.46353 15.5H8C5.79086 15.5 4 13.7091 4 11.5V8.5M4 8.5C4 6.29086 5.79086 4.5 8 4.5H9M15 9.5L12 12.5M12 12.5L9 9.5M12 12.5V4.5" stroke="currentColor" stroke-linecap="round" stroke-linejoin="round"/>
</svg>
