<svg width="24" height="25" viewBox="0 0 24 25" fill="none" xmlns="http://www.w3.org/2000/svg">
<path d="M20 11.5V16.5C20 18.7091 18.2091 20.5 16 20.5H8C5.79086 20.5 4 18.7091 4 16.5V11.5M20 11.5C20 9.63616 18.7252 8.07006 17 7.62602M20 11.5C20 13.7091 18.2091 15.5 16 15.5H15.5365C15.1127 15.5 14.7481 15.7774 14.5172 16.1328C13.9822 16.9558 13.0547 17.5 12 17.5C10.9453 17.5 10.0178 16.9558 9.48283 16.1328C9.25186 15.7774 8.88735 15.5 8.46353 15.5H8C5.79086 15.5 4 13.7091 4 11.5M4 11.5C4 9.63616 5.27477 8.07006 7 7.62602M17 7.62602V6.5C17 5.39543 16.1046 4.5 15 4.5H9C7.89543 4.5 7 5.39543 7 6.5V7.62602M17 7.62602V15.1566M7 7.62602V15.1566M10 7.5H14M10 12.5H14M10 10H12.6667" stroke="currentColor" stroke-linecap="round" stroke-linejoin="round"/>
</svg>
