<svg width="24" height="25" viewBox="0 0 24 25" fill="none" xmlns="http://www.w3.org/2000/svg">
<path d="M11.2602 11.5102L12.0002 11.0002V10.0885M4 8.50195C4 6.29173 5.79086 4.5 8 4.5H15.9955C18.2046 4.5 19.9955 6.29173 19.9955 8.50195V13.5044C19.9955 15.7146 18.2046 17.5063 15.9955 17.5063H10.7569C10.4872 17.5063 10.2289 17.6154 10.0407 17.8087L7.71628 20.1957C7.09018 20.8386 6 20.3951 6 19.4975V17.548C6 17.1909 5.80335 16.8684 5.52319 16.647C4.59545 15.9142 4 14.7788 4 13.5044V8.50195ZM12 13.5C12.4944 13.5 12.9778 13.3534 13.3889 13.0787C13.8 12.804 14.1205 12.4135 14.3097 11.9567C14.4989 11.4999 14.5484 10.9972 14.452 10.5122C14.3555 10.0273 14.1174 9.58186 13.7678 9.23223C13.4181 8.8826 12.9727 8.64449 12.4877 8.54802C12.0028 8.45156 11.5001 8.50112 11.0433 8.69034C10.5865 8.87956 10.196 9.19993 9.92134 9.61105C9.64664 10.0222 9.5 10.5056 9.5 11C9.5 11.663 9.76338 12.2989 10.2322 12.7678C10.7011 13.2366 11.337 13.5 12 13.5Z" stroke="currentColor" stroke-linecap="round" stroke-linejoin="round"/>
</svg>
