<svg width="24" height="25" viewBox="0 0 24 25" fill="none" xmlns="http://www.w3.org/2000/svg">
<path d="M12.9349 11.7044L10.4187 14.1963C9.96754 14.6431 9.37246 14.9192 8.73701 14.9764L8.49579 14.9981C8.21307 15.0236 7.97621 14.789 8.00191 14.509L8.02384 14.2701C8.08161 13.6407 8.36033 13.0514 8.81151 12.6045L11.3277 10.1126M4 10.6587C4 7.25733 6.68629 4.5 10 4.5H13.9955C17.3092 4.5 19.9955 7.25733 19.9955 10.6587V11.6851C19.9955 15.0864 17.3092 17.8438 13.9955 17.8438H8.41422C8.149 17.8438 7.89464 17.9519 7.70711 18.1444L5.70711 20.1973C5.07714 20.8439 4 20.386 4 19.4715V10.6587ZM12.742 8.64801L13.0634 8.32966C13.5072 7.89011 14.2268 7.89011 14.6706 8.32966C15.1144 8.76921 15.1144 9.48186 14.6706 9.92141L14.3492 10.2398C14.0829 10.5035 14.0829 10.9311 14.3492 11.1948C14.6155 11.4585 14.6155 11.8861 14.3492 12.1498C14.0829 12.4136 13.6512 12.4136 13.3849 12.1498L10.8133 9.60306C10.547 9.33933 10.547 8.91174 10.8133 8.64801C11.0796 8.38428 11.5114 8.38428 11.7777 8.64801C12.0439 8.91174 12.4757 8.91174 12.742 8.64801Z" stroke="currentColor" stroke-linecap="round" stroke-linejoin="round"/>
</svg>
