<svg width="24" height="25" viewBox="0 0 24 25" fill="none" xmlns="http://www.w3.org/2000/svg">
<path d="M14 4.50002H7.25092C5.45549 4.50002 4 5.9558 4 7.7516V11.8161C4 12.8516 4.48394 13.774 5.23794 14.3695C5.46564 14.5493 5.62546 14.8114 5.62546 15.1015V16.6855C5.62546 17.4148 6.51148 17.7751 7.02033 17.2527L8.90942 15.3133C9.0624 15.1562 9.27233 15.0677 9.49155 15.0677H13.7491C15.5445 15.0677 17 13.6119 17 11.8161V9.5M10 15.1V16.1278C10 17.5091 11.1196 18.629 12.5007 18.629H15.7757C15.9444 18.629 16.1058 18.6971 16.2235 18.8179L17.6767 20.3098C18.0681 20.7117 18.7496 20.4345 18.7496 19.8735V18.655C18.7496 18.4318 18.8726 18.2302 19.0477 18.0919C19.6277 17.6339 20 16.9243 20 16.1278V13.0012C20 11.6199 18.8804 10.5 17.4993 10.5H17M18.5 6C18.5 6.82843 17.8284 7.5 17 7.5C16.1716 7.5 15.5 6.82843 15.5 6C15.5 5.17157 16.1716 4.5 17 4.5C17.8284 4.5 18.5 5.17157 18.5 6Z" stroke="currentColor" stroke-linecap="round" stroke-linejoin="round"/>
</svg>
