<svg width="24" height="25" viewBox="0 0 24 25" fill="none" xmlns="http://www.w3.org/2000/svg">
<path d="M8 4.5C5.79086 4.5 4 6.29173 4 8.50195V13.5044C4 14.7788 4.59545 15.9142 5.52319 16.647C5.80335 16.8684 6 17.1909 6 17.548V19.4975C6 20.3951 7.09018 20.8386 7.71628 20.1957L10.0407 17.8087C10.2289 17.6154 10.4872 17.5063 10.7569 17.5063H15.9955C18.2046 17.5063 19.9955 15.7146 19.9955 13.5044V8.50195C19.9955 6.29173 18.2046 4.5 15.9955 4.5H8Z" stroke="currentColor" stroke-linecap="round" stroke-linejoin="round"/>
<path d="M13.8777 10.9698L14 9.57639C14 9.57639 13.2584 9.5027 12.8571 9.22917C12.4443 8.9477 12 8.5 12 8.5C12 8.5 11.5557 8.9477 11.1429 9.22917C10.7416 9.5027 10 9.57639 10 9.57639L10.1223 10.9698C10.2027 11.8844 10.711 12.7072 11.4931 13.1882C11.804 13.3794 12.196 13.3794 12.5069 13.1882C13.289 12.7072 13.7973 11.8844 13.8777 10.9698Z" stroke="currentColor" stroke-linecap="round" stroke-linejoin="round"/>
</svg>
