<svg width="24" height="25" viewBox="0 0 24 25" fill="none" xmlns="http://www.w3.org/2000/svg">
<path d="M10.5 12.5L13.5 9.5M13.5 12.5L10.5 9.5M4 8.50195C4 6.29173 5.79086 4.5 8 4.5H15.9955C18.2046 4.5 19.9955 6.29173 19.9955 8.50195V13.5044C19.9955 15.7146 18.2046 17.5063 15.9955 17.5063H10.7569C10.4872 17.5063 10.2289 17.6154 10.0407 17.8087L7.71628 20.1957C7.09018 20.8386 6 20.3951 6 19.4975V17.548C6 17.1909 5.80335 16.8684 5.52319 16.647C4.59545 15.9142 4 14.7788 4 13.5044V8.50195Z" stroke="currentColor" stroke-linecap="round" stroke-linejoin="round"/>
</svg>
