<svg width="24" height="25" viewBox="0 0 24 25" fill="none" xmlns="http://www.w3.org/2000/svg">
<path d="M17 18.374C18.7252 17.9299 20 16.3638 20 14.5V8.5C20 6.29086 18.2091 4.5 16 4.5H8C5.79086 4.5 4 6.29086 4 8.5V14.5C4 16.3638 5.27477 17.9299 7 18.374M17 8.5L13.029 10.8826C12.3956 11.2626 11.6044 11.2626 10.971 10.8826L7 8.5M13.5 19L15 20.5M13 16.5C13 17.6046 12.1046 18.5 11 18.5C9.89543 18.5 9 17.6046 9 16.5C9 15.3954 9.89543 14.5 11 14.5C12.1046 14.5 13 15.3954 13 16.5Z" stroke="currentColor" stroke-linecap="round" stroke-linejoin="round"/>
</svg>
