<svg width="24" height="25" viewBox="0 0 24 25" fill="none" xmlns="http://www.w3.org/2000/svg">
<path d="M17 18.374C18.7252 17.9299 20 16.3638 20 14.5V8.5C20 6.29086 18.2091 4.5 16 4.5H8C5.79086 4.5 4 6.29086 4 8.5V14.5C4 16.3638 5.27477 17.9299 7 18.374M17 8.5L13.029 10.8826C12.3956 11.2626 11.6044 11.2626 10.971 10.8826L7 8.5M11.1111 17.6561L10.2654 17.7843C10.0115 17.8227 9.91009 18.1482 10.0938 18.3351L10.7058 18.9573C10.7787 19.0315 10.812 19.1384 10.7948 19.2431L10.6503 20.1218C10.607 20.3856 10.8724 20.5867 11.0995 20.4622L11.8559 20.0474C11.9461 19.9979 12.0539 19.9979 12.1441 20.0474L12.9005 20.4622C13.1276 20.5867 13.393 20.3856 13.3496 20.1218L13.2052 19.2431C13.188 19.1384 13.2213 19.0315 13.2942 18.9573L13.9062 18.3351C14.0899 18.1482 13.9885 17.8227 13.7346 17.7843L12.8889 17.6561C12.7881 17.6408 12.7009 17.5747 12.6558 17.4794L12.2776 16.68C12.164 16.44 11.836 16.44 11.7224 16.68L11.3442 17.4794C11.2991 17.5747 11.2119 17.6408 11.1111 17.6561Z" stroke="currentColor" stroke-linecap="round" stroke-linejoin="round"/>
</svg>
