<svg width="24" height="25" viewBox="0 0 24 25" fill="none" xmlns="http://www.w3.org/2000/svg">
<path d="M8 4.5C5.79086 4.5 4 6.29173 4 8.50195V13.5044C4 14.7788 4.59545 15.9142 5.52319 16.647C5.80335 16.8684 6 17.1909 6 17.548V19.4975C6 20.3951 7.09018 20.8386 7.71628 20.1957L10.0407 17.8087C10.2289 17.6154 10.4872 17.5063 10.7569 17.5063H15.9955C18.2046 17.5063 19.9955 15.7146 19.9955 13.5044V8.50195C19.9955 6.29173 18.2046 4.5 15.9955 4.5H8Z" stroke="currentColor" stroke-linecap="round" stroke-linejoin="round"/>
<path d="M11.7224 9.18001C11.836 8.94 12.164 8.94 12.2776 9.18001L12.6558 9.97941C12.7009 10.0747 12.7881 10.1408 12.8889 10.1561L13.7346 10.2843C13.9885 10.3227 14.0899 10.6482 13.9062 10.8351L13.2942 11.4573C13.2213 11.5315 13.188 11.6384 13.2052 11.7431L13.3496 12.6218C13.393 12.8856 13.1276 13.0867 12.9005 12.9622L12.1441 12.5474C12.0539 12.4979 11.9461 12.4979 11.8559 12.5474L11.0995 12.9622C10.8724 13.0867 10.607 12.8856 10.6504 12.6218L10.7948 11.7431C10.812 11.6384 10.7787 11.5315 10.7058 11.4573L10.0938 10.8351C9.91009 10.6482 10.0115 10.3227 10.2654 10.2843L11.1111 10.1561C11.2119 10.1408 11.2991 10.0747 11.3442 9.97941L11.7224 9.18001Z" stroke="currentColor" stroke-linecap="round" stroke-linejoin="round"/>
</svg>
