<svg width="24" height="25" viewBox="0 0 24 25" fill="none" xmlns="http://www.w3.org/2000/svg">
<path d="M15 11.5L12 14.5L9 11.5M4 12.5C4 14.0822 4.46919 15.6289 5.34824 16.9445C6.22729 18.2601 7.47673 19.2855 8.93854 19.891C10.4003 20.4965 12.0089 20.655 13.5607 20.3463C15.1126 20.0376 16.538 19.2756 17.6569 18.1568C18.7757 17.038 19.5376 15.6126 19.8463 14.0607C20.155 12.5089 19.9965 10.9004 19.391 9.43857C18.7855 7.97676 17.7602 6.72729 16.4446 5.84824C15.129 4.96919 13.5822 4.5 12 4.5C9.87827 4.5 7.84343 5.34287 6.34314 6.84316C4.84285 8.34345 4 10.3783 4 12.5Z" stroke="currentColor" stroke-linecap="round" stroke-linejoin="round"/>
</svg>
