<svg width="24" height="25" viewBox="0 0 24 25" fill="none" xmlns="http://www.w3.org/2000/svg">
<path d="M12 9.5L12 15.5M12 15.5L14.5 13M12 15.5L9.5 13M12 20.5C13.5822 20.5 15.129 20.0308 16.4446 19.1518C17.7602 18.2727 18.7855 17.0232 19.391 15.5614C19.9965 14.0996 20.155 12.4911 19.8463 10.9393C19.5376 9.38741 18.7757 7.96199 17.6569 6.84317C16.538 5.72435 15.1126 4.9624 13.5607 4.65371C12.0089 4.34503 10.4003 4.50349 8.93853 5.10899C7.47672 5.71449 6.22729 6.73988 5.34824 8.05547C4.46919 9.37106 4 10.9178 4 12.5C4 14.6217 4.84285 16.6565 6.34314 18.1568C7.84344 19.6571 9.87826 20.5 12 20.5Z" stroke="currentColor" stroke-linecap="round" stroke-linejoin="round"/>
</svg>
