<svg width="24" height="25" viewBox="0 0 24 25" fill="none" xmlns="http://www.w3.org/2000/svg">
<path d="M9 13.5L12 10.5L15 13.5M20 12.5C20 10.9177 19.5308 9.37106 18.6518 8.05547C17.7727 6.73988 16.5233 5.71449 15.0615 5.10899C13.5997 4.50349 11.9911 4.34503 10.4393 4.65371C8.88743 4.9624 7.46196 5.72435 6.34314 6.84317C5.22432 7.96199 4.46241 9.38741 4.15372 10.9393C3.84504 12.4911 4.00346 14.0996 4.60896 15.5614C5.21446 17.0232 6.23984 18.2727 7.55543 19.1518C8.87103 20.0308 10.4177 20.5 12 20.5C14.1217 20.5 16.1566 19.6571 17.6569 18.1568C19.1571 16.6565 20 14.6217 20 12.5Z" stroke="currentColor" stroke-linecap="round" stroke-linejoin="round"/>
</svg>
