<svg width="24" height="25" viewBox="0 0 24 25" fill="none" xmlns="http://www.w3.org/2000/svg">
<path d="M12 15.5L12 9.5M12 9.5L9.5 12M12 9.5L14.5 12M12 4.5C10.4178 4.5 8.87103 4.96919 7.55544 5.84824C6.23985 6.72729 5.21447 7.97676 4.60897 9.43857C4.00347 10.9004 3.84504 12.5089 4.15372 14.0607C4.4624 15.6126 5.22433 17.038 6.34315 18.1568C7.46197 19.2756 8.88743 20.0376 10.4393 20.3463C11.9911 20.655 13.5997 20.4965 15.0615 19.891C16.5233 19.2855 17.7727 18.2601 18.6518 16.9445C19.5308 15.6289 20 14.0822 20 12.5C20 10.3783 19.1571 8.34345 17.6569 6.84316C16.1566 5.34287 14.1217 4.5 12 4.5Z" stroke="currentColor" stroke-linecap="round" stroke-linejoin="round"/>
</svg>
